<?xml version="1.0" encoding="UTF-8"?>
<svg id="Layer_1" data-name="Layer 1" xmlns="http://www.w3.org/2000/svg" viewBox="0 0 1024.44 682.2">
  <defs>
    <style>
      .cls-1 {
        fill: #fefefe;
      }

      .cls-1, .cls-2, .cls-3 {
        stroke-width: 0px;
      }

      .cls-2 {
        fill: #e64c3c;
      }

      .cls-3 {
        fill: #fbd016;
      }
    </style>
  </defs>
  <path class="cls-3" d="M1023.39,170.73c.08,1.49.22,2.98.22,4.47.01,110.6.01,221.19,0,331.79,0,1.49-.15,2.98-.22,4.47-338.53,0-677.06,0-1015.59,0-2.33,0-4.66-.04-6.99-.06V170.79c2.33-.02,4.66-.06,6.99-.06,338.53,0,677.06,0,1015.59,0ZM219.38,263.85c.34.35.67.69,1.01,1.04.81,3.7,2.72,8.23,6.47,6.88,3.02-1.08,4.03.26,5.28,1.3,2.17,1.81,4.34,3.18,7.17,2.59,3.09-.65,2.8-3.79,3.61-5.79,2.86,1.76,4.99,4.4,8.89,3.36,5.22-1.39,7.02-5.22,7.46-10.72,3.11,3.88,4.58,8.48,9.99,8.26,4.88-.2,7.21-3.39,8.89-7.52,2.87,3.69,5.06,7.49,10.58,6.07,4.93-1.26,6.09-5.35,7.61-10.02,3.62,11.16,8.35,12.23,19.15,4.94,1.23,4.61,4.03,7.03,8.99,6.43,4.59-.56,6.78-3.9,8.36-7.63,1.58.71,1.28,1.63,1.36,2.41.74,6.66,6.68,9.77,12.36,6.21,2.77-1.74,4.34-2.42,4.78,1.77.26,2.42,2.33,2.67,4.22,2.17,1.72-.46,3.32-1.39,4.98-2.09,2.64-1.12,1.59.94,1.71,2-.38.19-1.09.22-.39.87.01.01.41-.38.63-.59,1.43-.99,3.11-1.79,2.84-3.99l.08-.11c4.41.59,6-1.84,6.19-5.77.17-.28.34-.55.51-.83-.27.17-.53.33-.8.5-2.19.25-3.01-.81-2.85-2.9.12-1.49-.03-3.2,1.83-3.67,2.05-.52,4.16-.89,6.26-1.07,2.78-.23,2.12,2.99,3.47,4.3,2.57-3.04-.04-7.87,4.27-9.77,0-.43.02-.86.02-1.28-.99-2.05-1.94-2.06-2.85.05l.09.09c-1.59.41-3.18.82-4.78,1.22-.41-1.18.2-2.87-1.72-3.52-.63,1.77-.02,2.89,1.21,3.82-.47.48,1.08,2.92-1.25,1.48-1.53-.95-2.94-2.86-2.24-4.56,1.09-2.65-.54-3.34-2.03-4.69-5.37-4.89-12.74-4.36-18.95-7.08-4.7-2.06-6.17-1.75-9.31-6.19,2.77-1.29,3.26-2.57,1.88-4.94l-.04-.04c-.38-.95-1.94-2.19.82-2.1,4.74.16,9.48.08,14.23.1.46.86,1.22,1.05,2.08.83.19-.05.31-.4.46-.61-.78-.17-1.57-.34-2.35-.51-4.67-1.74-9.57-1.87-14.98-1.48,1.39-1.63,2.63-1.05,3.69-1.17,6.92-.8,13.35,1.6,19.94,3.03,3.3,3.86,8.75,5.83,9.43,12.52,1.41-1.86,1.89-3.08,2.77-3.56,3.46-1.89,3.87-3.55-.07-5.23-.96-.41-.63-1.62-1.15-1.98-2.78-1.9-4.67-5.47-8.81-4.9-2.48-3.69-4.44-1.65-6.82,1.14,1.9-3.81-.76-4.47-2.71-5.03-4.11-1.18-8.12-1.62-11.91,1.58-2.94,2.49-6.09,1.55-7.56-1.7-.7-1.54-2.03-1.25-2.94-.95-1.36.44-2.53,1.45-4.17,2.45,5.87,3.86,5.21,9.63,4.89,15.28-.6,1.11-1.79,2.3-1.67,3.33.33,2.85.55,2.82-1.8,3.67-.15-.47-.48-.92-.91-.48-.41.42-.02.78.49.92-.34.67-.06,2.31-.49,2-1.11-.8-3.54-1.65-2.17-3.55,1.83-2.53-.34-3.23-1.57-3.43-7.3-1.24-13.86-5.28-21.47-5.44-1.91-.04-5.42-.07-5.62-1.95-.42-3.86-2.08-8.29,1.67-11.69.52-.25,1.03-.49,1.55-.74-.11-.11-.2-.29-.33-.32-.69-.17-1.2.08-1.46.76-1.08-1.48-1.1-1.82.48-2.33,7.77-2.52,15.54-2.94,23.2.41,2.02.88,3.96,1.95,5.8-.27-6.62-7.52-9.98-8.5-13.61-3.94.02-3.11.09-6.37-4.39-3.27-1.67,1.16-3.53,1.1-5.28.88-2.74-.36-4.67.28-4.79,3.25-.05,1.21-.48,1.37-1.32,1.47-.89.11-1.86-.07-1.86-1.11,0-1.88-1.7-3.62-.2-5.67,1.18-1.61.67-3.52-.04-5.23-.82-1.98-2.15-3.36-4.55-3.07-1.33.16-1.38,1.15-1.5,2.17-.3,2.5.99,3.23,3.23,3.1.86-.05,1.74.25,1.71,1.31-.03,1.04-.9,1.28-1.77,1.3-2.16.03-4.34.18-6.48-.02-1.45-.13-3.84,1.12-4.09-1.32-.2-1.91,2.02-.96,3.11-1.41.55-.23,1.19-.61,1.45-1.1,1.46-2.73-.76-10.39-3.48-12.26.83-1.25,3.1-.3,3.47-2.3.86-4.68,2.38-1.5,3.77-.17.12-1.37.79-2.88-1.33-3.12-3.66-.41-4.35,3.75-7.13,4.82-.44.17-.45,1.88.47,2.64.24.2.6.25.91.35,3.9,1.16,2.99,2.97.86,5.24-2.74,2.91-5.02,6.03-2.61,10.34,1.17,2.09-1.02,1.85-1.92,2.5-2.73-1.98-4.25,1.39-7.22,1.86.88-2.47,1.43-5.04-1.52-5.34-3.16-.33-1.41,3.17-2.49,4.65-4.13-3.72-4.09-3.58-9.55-1.88-2.46.77.07,2.73-1.25,3.58-2.01-1.36-4.04-3.89-5.94.11-2.78.69-5.91.58-7.79,3.36-.09.72-.18,1.45.75,1.73-1.63,3.02-3.25,2.93-4.88,0,.98-.51,1.14-1.4.19-1.79-1.17-.48-1.19.62-1.19,1.45-1.38.01-2.75.03-4.13.04-.18-.54-.36-1.08-.54-1.62-.4.15-1.02.21-1.15.48-.29.64.07,1.17.74,1.43-1,3.06-2.62,2.35-4.16.55-.55-.64-1.07-1.72-1.68-.74-2.2,3.51-2.83,1.38-3.88-.77-.55-1.12-1.99-1.5-2.96-.47-1.44,1.53-3.01,2.77-4.86,3.74-1.26.66-.75,1.4-.1,2.35,1.32,1.94,2.73,1.03,4.33.57,6.32-1.81,12.67-3.44,19.27-1.38-3.03.71-6.5-1.12-9.15,1.81,2.94-1.54,6.78,2.64,9.28-1.68,2.24.54,2.33,1.94,1.56,3.76-.5,1.18-1.32,2.67.65,3.14,1.75.42,2.56-.64,2.88-2.46.31-1.73,1.06-3.43,2.8-5.12,0,1.32,0,1.96,0,2.61-2.06,2.67-.95,5.53-.14,8.38.16-2.73.33-5.46.49-8.18,1.33-2.67,6.36-4,3.07-8.39-.05-.07.36-.47.55-.72,2.85,1.85,4.26-.89,6.19-1.94,6.23-.73,12.46-.51,18.68.18,1.24.68,2.54,1.27,3.71,2.05,1.41.95.72,1.39-.52,1.56-.48-.75-1.14-1.15-2.03-.91-.19.05-.31.39-.46.6.76.23,1.51.46,2.27.69,1.56,1.63,1.11,3.67,1.29,5.64.36,4.01-.59,5.78-5.28,6.67-8.64,1.64-17.23,4.04-25.34,7.74q3.12,4.04-1.37,6.2c.87-1.82,1.59-4.53-.34-4.29-4.67.6-1.3-5.33-4.79-5.15,2.19-2.6-.94-2.91-1.77-2.97-1.59-.11-2.1,1.98-1.81,2.91.96,3.06-.8,2.98-2.77,2.88-8.05-.45-15.09,2.99-22.25,5.86-2.27.91-5.88,1.54-2.88,5.83.87,1.25-.82,4.07-2.76,5.2-2.41,1.4-1.71-1.59-2.57-2.33-4.18-3.57-3.02-8.63-2.82-14.16,1.06,2.81.09,5.59,2.5,7.25,1.11-2.37-.67-4.38-.23-6.51.91-4.34,2.44-8.29,6.52-10.67,2.77-1.62,1.1-3.75.52-5.58-.31-.99-2.45-1.03-2.47-.53-.2,3.92-4.42,3.85-6.22,6.4-1.7,2.41-.39,5.49-2.81,7.2-.52-.82-1.21-1.05-1.78-.17-.39.61.04,1.15.73,1.36.13,1.4-.35,2.64-1.05,3.81-.68.24-1.07.84-.75,1.38.21.36,1.01.37,1.54.53,1.43,1.46,1.38,2.91-.2,4.16-2.06,1.62-1.16,4.73-.47,5.11,2.83,1.55,3.07,4.13,3.33,6.57.46,4.33,3.25,4.58,6.54,4.35.61.37,1.23.75,1.84,1.12ZM269.53,215.81h10.87c-3.71-.97-7.43-2.09-11.05-.27-.85.14-1.83-.21-2.5.7,1.07.86,1.94.65,2.68-.43ZM311.5,215.82h10.88c-3.72-.98-7.45-2.1-11.07-.27-.84.14-1.82-.23-2.49.7,1.06.83,1.94.67,2.68-.42ZM336.45,234.77c2.43-3.01,2.35-6.11-.08-10.43,0,4.21,0,7.28,0,10.35-.05.14-.11.28-.16.43.08-.11.16-.23.24-.34ZM252.5,489.32l.11.06c.08,1.09,1.01,1.21,1.75,1.45,12.21,4.02,24.7,6.45,37.6,6.5,3.99,0,7.98,0,11.97,0,4.99-.66,10.41.87,14.79-2.9.48-.03.97-.06,1.45-.09,1.39,1.79,3,.66,4.56.35,10.46-2.09,20.49-5.46,30.2-9.88,16.57-7.53,25.58-20.03,25.58-38.51,0-23.45-.05-46.9-.03-70.34,0-2.01-.85-4.73,2.28-5.26,6.7-1.12,13.43-2.06,20.16-2.97.7-.1,1.77.23,2.2.75,2.28,2.78-.27,10.06-3.88,11.02-2.95.78-6.2.99-5.08,5.53.15.61-.89,1.42-.99,2.19-.45,3.33.2,6.68-.14,10.08-.16,1.66,2.48,2.78,4.24,3.78,4.87,2.76,6.73,6.67,6.4,12.59-.61,10.94-.11,21.94-.22,32.92-.03,3.24.63,6.52-1,9.75-1.01,2,.27,2.52,2.51,2.44,7.48-.25,14.96-.07,22.45-.15,1.9-.02,3.62.07,4.63,1.98.07,1.74-1.15,1.71-2.36,1.71-8.48,0-17,.45-25.43-.19-5.13-.39-6.56,1.15-6.03,5.86.23,2.07.59,5.04-2.43,5.05-4.86.03-4.68,2.88-4.54,6.25.14,3.49.01,6.98.03,10.47.02,4.91,1.58,6.11,5.88,4.14,4.82-2.21,9.62-2.23,14.36-.21,2.94,1.25,6.04,1.42,8.77.62,6.53-1.93,12.77-2.91,19.35-.02,3.02,1.33,4.97-.05,4.73-3.86-.25-3.97-.12-7.98-.03-11.97.06-2.65.25-4.86-3.74-4.27-2.48.36-2.91-2.04-3.26-4.1-.37-2.18,1.07-4.63-.95-6.56l-.14-.13c-1.28-1.02-2.55-2.03-3.83-3.05.56-2.99-1.26-3.14-3.5-3.12-8.15.07-16.29.03-24.44.03,0-.28,0-.55,0-.83h27.61c0-12.08,0-23.83,0-35.57,0-1.64.66-1.95,2.18-1.4,2.59.95,3.73,1.93,2.13,5.04-2.56,4.99-1.54,8.3,2.95,11.8-.41-3.06,1.13-5.25,3.31-6.32,5.65-2.77,3.93-8.27,5.1-12.63,1.52-5.68.49-6.92-7.32-10.79q-9.19-4.56-8.35-14.82c.03-.33.02-.66.03-1,.05-1.1.44-1.94,1.67-2.09,7.56-.9,12.17-5,13.76-12.5.16-.76.92-1.37,1.3-2.11,3.51-6.79,2.44-10-4.5-13.24-2.21-1.03-4.56-1.78-6.78-2.78-3.63-1.64-5.88-3.81-5.62-8.52.48-8.46.04-16.96.19-25.45.05-2.82-.85-3.72-3.68-3.67-8.32.17-16.64.07-24.96.08-.26-.21-.51-.43-.77-.64.16.3.32.6.49.91.1,8.64.06,17.28.36,25.9.11,3.29-1.24,4.5-4.23,4.6-5.47.19-11,.29-16.27,1.81-4.14,1.19-4.71-.34-4.67-4,.16-14.96-.03-29.92.14-44.88.04-3.51-1.06-4.57-4.54-4.52-12.3.18-24.6-.07-36.9.15-3.85.07-7.37-2.13-11.27-1.12-5.28,1.37-10.63.78-15.98.52,11.24-.2,22.1-2.8,33.16-4.84-.85-1.63-2.2-1.66-3.49-1.98-12.92-3.24-26.13-4.18-39.36-4.86-12.29-.64-24.56.43-36.7,2.14-6.36.9-13.19.81-18.82,4.88l-.07.09c-1-.16-2.49-1.17-1.45-1.59,3.87-1.55-.43-4.16,1.15-6.22.9-1.19-1.88-1.09-2.86-1.8-.82-.6-1.59-.18-2.09.6-.99,1.56.26,2.05,1.31,2.54,1.78.82,1.91,1.87,1,3.56-1.65,3.06.39,4.22,2.91,4.88,3.35.88,6.72,1.68,10.08,2.51-12.92.62-25.73.83-38.53.51-4.58-.12-5.54,1.41-5.47,5.68.25,14.81.07,29.62.12,44.43,0,2.44-.13,4.51-3.44,3.63-5.83-1.56-11.78-2.11-17.78-1.89-3.05.11-4.06-1.19-4-4.16.19-8.81.17-17.63.24-26.45,1.96-.57,2.01-1.94.58-2.79-3.19-1.89-.85-2.99.34-4.34.86-.92,2.5-.68,3.06-2.04,1.39-3.03,1.41-6.05-.01-9.07-.45-.88-1.29-.85-2.1-1.01-1.33-.27-3.35.88-3.84-1.14-.39-1.63.66-3.2,1.8-4.45.78-.86,1.66-1.66,2.61-2.31,2.01-1.38,2.1-3.33,1.36-5.24-1.29-3.34-3.57-5.37-7.39-6.11-3.59-.7-9.76,1.6-8.9-6.05.07-.64-.93-1.46-1.86-1.34-1.34.17-2.07,1.2-2.01,2.44.21,4.22-2.41,4.52-5.59,4.34-1.14-.06-2.37.03-3.45.37-3.34,1.07-6.69,2.4-7.94,6.05-1.24,3.62,1.47,5.48,3.96,7.2,1.34.93,1.77,2.32,2.44,3.65,1.08,2.12.18,2.74-1.79,2.58-7.2-.59-3.97,4.86-4.35,7.88-.54,4.34,2.88,3.31,5.4,3.37,9.45.24,18.92-.67,28.36.49-8.93.04-17.87.06-26.8.12-1.39,0-3.1-.49-2.26,2.21.45,1.46-.93,3.36,2.29,3.24,7.27-.28,14.56-.16,21.84-.02,1.33.02,3.55-1.23,3.85,1.6-8.32,0-16.64,0-24.97-.04-1.99-.01-3.14-.04-2.99,2.82.37,7.3-.55,14.72.33,21.94.96,7.87-2.21,12.02-9.2,14.21-.32.1-.66.12-.97.24-8.56,3.49-9.35,5.24-6.37,14.08.16.47.32.95.37,1.43.81,7.84,5.12,12.31,12.93,13.3,1.83.23,2.9.53,3.13,2.84,1.09,11,.12,12.1-9.86,16.37-5.9,2.52-8.83,2.77-6.27,10.85.59,1.88.97,3.89,1.04,5.86.19,5.39,5.53,6.21,8.19,9.38.77.91,1.56-.57,2.02-1.4,1.65-2.99.88-5.73-.79-8.44-.77-1.25-.78-2.58.75-3.39,1.3-.69,2.59-1.91,4.07-1.46,1.4.43.74,2.02.74,3.07.05,9.65-.25,19.32.23,28.95.12,2.42-3.15,3.94-1.04,6.38l.09.13c1.16,1.86,3.01.97,4.53,1,6.48.11,12.97.05,19.46.05,3.64,0,8.62,1.25,4.85-5.45-.43-.76-.05-1.96-.05-2.96,0-12.14.31-24.29-.13-36.42-.22-5.95,1.07-10.07,6.8-12.73,2.36-1.09,5.25-3.02,5.1-6.26-.19-4.12-1.06-8.2-1.62-12.3-.15-1.09-.61-1.99-1.8-2.03-3.33-.09-5.72-2.29-8.51-3.6,0-2.89,0-5.78,0-8.66,6.51-1.02,12.75.94,19.11,1.69,4.78.56,6.46,2.71,6.35,7.79-.42,18.76-.33,37.53-.34,56.3,0,6.79-.32,13.57.84,20.35,1.17,6.82,4.37,13.72,8,15.88,0,0,.19.11.19.11-.07.43-.36,1.04-.17,1.28,7.19,9.42,16.84,14.67,28.4,16.64l-.14.1c.49,1.76,1.72,1.23,2.88.94ZM252.62,289.78c6.19-.81,12.37-1.74,18.58-2.39,13.31-1.41,26.63-2.43,40.03-.84,8.01.95,16.06,1.5,24.09,2.23,1.41,1.56,2.94,1.22,5.71.11-2.58-.28-4-.43-5.43-.59-.26-.19-.5-.51-.79-.56-21.61-4.12-43.37-4.19-65.14-1.88-5.81.62-11.84.83-17.32,3.44-1.16.23-2.52-.26-3.5.96,1.44.84,2.7.9,3.78-.48ZM352.19,278.84c4.98,3.71-2.81,1.87-1.42,4.32,1.8.33,3.81.4,4.58-2.08.72-2.29-.95-2.74-2.79-2.76-2.46-.79-2.58-5.67-6.55-3.77-2.81,1.34-5.52.78-8.18-.32-3.91-1.61-7.83-2.53-12.14-1.82-3.53.58-7,.03-9.7-2.73-1.15-1.18-2.23-1.05-3.52-.2-3.42,2.25-7.01,2.46-10.94,1.19-3.43-1.1-7.09-1.3-10.58-.07-2.96,1.04-5.75,1-8.75.07-2.04-.64-4.23-.17-6.36.46-2.68.79-5.42,1.93-8.28,1.32-4.88-1.05-9.34.07-13.73,2.11-4.33,2-9.76-.68-13.71,3.19-1.1,1.08-4.35.26-3.25,3.21.94,2.51,3.13,2.81,5.5,2.18.09-2.74-3.33-.48-3.27-3.08,2.49-.73,4.98-1.64,7.55-2.19,10.04-2.16,20.17-3.59,30.45-4.33,16.28-1.17,32.51-1.14,48.69.98,8.83,1.16,17.6,2.86,26.39,4.32ZM199.68,484.33c0-2.66-.03-5.32.01-7.97.03-1.74-.49-2.98-2.46-2.93-4.66.11-4.9-2.95-4.55-6.35.42-4.1-1.06-5.25-5.35-4.99-8.77.52-17.61.57-26.39.13-7.09-.35-7.07-.8-7.25,6.32-.05,1.82.27,4.4-2.05,4.41-5.87.04-4.89,3.95-4.87,7.52.02,3.32-.07,6.64,0,9.96.08,4.09,1.96,5.53,5.64,3.67,5.17-2.62,10.2-2.19,15.31-.33,3.26,1.19,6.69,1.51,9.72.27,5.56-2.26,10.83-2.14,16.36-.12,4.89,1.79,5.87.97,5.89-4.1,0-1.83,0-3.65,0-5.48ZM431.74,301c-.03-3.49,2.8-5.72,4.34-8.53,4.03-7.32,1.77-8.54-4.73-9.91-3.73-.79-9.12.57-11.07-5.22-.53-1.57-2.42-.26-2.69,1.13-.21,1.09.42,2.56-1.43,2.37-3.6-.38-6.41,2.47-10.08,2.15-2.4-.21-4.66,1.4-5.36,3.72-.75,2.51-.73,5.19,1.99,7.08,1.59,1.11,3.24,2.27,3.98,4.33.75,2.05,1.11,3.81-1.9,3.45-4.24-.51-4.4,1.9-4.43,5.13-.03,3.15.08,5.8,3.52,7.21.93.38,2.46,1.3,2.11,2.51-.88,2.96,1.07,2.4,2.62,2.41,5.49.02,11,.26,16.47-.08,3.43-.21,8.48,2.51,9.35-4.01.03-.23.47-.46.76-.6,5.03-2.49,3.42-7.13,2.93-10.86-.45-3.45-4.44-.49-6.4-2.26ZM248.1,280.37c19.72-3.91,39.76-3.76,59.71-4.63-20.16-1.72-40.08-.22-59.71,4.63ZM295.74,282.9c2.47-.94,7.14,1.71,7.4-2.26.31-4.73-4.55-2.99-7.28-2.97-2.59.02-7.14-1.74-7.12,2.63.02,3.91,4.41,1.92,6.99,2.59ZM344.85,280.82c-5.55-3-23.9-5.54-28.82-4.05,10.31,1.45,19.56,2.75,28.82,4.05ZM326.19,284.16c1.64.55,3.14.25,3.36-1.64.29-2.51-1.76-1.82-3.11-1.88-1.82-.07-3.6-.04-5.34-.89-1.05-.51-2.54-.35-2.95.99-.5,1.62.96,2.45,2.14,2.73,1.91.46,3.93.48,5.9.68ZM262.96,282c.54,1.83,2.32,2.35,3.16,1.78,2.6-1.79,6.4.47,8.22-2.46.47-.75-1.84-2.28-2.92-1.6-2.64,1.66-6.28-.45-8.47,2.28ZM381.1,243.54c.46,1.09-1.22,2.76.77,2.93,1.7.15.73-1.3.71-2.15-.04-1.38.75-1.02,1.59-.77,1.35.4,2.44-.28,2.74-1.47.47-1.91-1.49-1.31-2.32-1.77-4.83-2.64-2.71,1.79-3.48,3.23ZM349.36,281.18c-.64-.27-1.06-.6-1.47-.59-.41.01-.81.36-1.21.56.41.21.81.56,1.22.59.41.02.83-.3,1.46-.56ZM245.26,281.89c.3-.34.55-.62.79-.9-.42-.14-.85-.4-1.26-.37-.3.03-.57.45-.85.69.41.18.81.36,1.31.58ZM364.35,225.81c-.22.15-.43.31-.65.46.12.11.25.32.35.31.29-.03.57-.16.85-.25-.18-.17-.36-.34-.55-.52ZM265.14,217.11c-.33-.11-.6-.24-.89-.28-.1-.01-.24.2-.35.31.21.16.42.42.64.44.18.01.38-.28.6-.47ZM358.1,278c-.34-.07-.63-.23-.89-.18-.49.11-.5.39-.05.62.13.07.34.13.44.07.18-.11.31-.31.5-.51ZM360.22,277.19c-.1-.11-.2-.3-.31-.31-.11,0-.24.16-.36.25.11.1.21.29.32.29.11,0,.24-.16.34-.24Z"/>
  <path class="cls-2" d="M.81,511.4c2.33.02,4.66.06,6.99.06,338.53,0,677.06,0,1015.59,0,.02,31.61.13,63.22-.01,94.83-.02,4.95-1.17,9.88-2.46,14.72-9.55,35.99-41.57,61.03-78.8,61.03-286.56.05-573.12.05-859.68,0-39.61,0-72.26-27.5-80.42-67.21-.25-1.22.29-2.75-1.21-3.56v-99.88Z"/>
  <path class="cls-2" d="M1023.39,170.73c-338.53,0-677.06,0-1015.59,0-2.33,0-4.66.04-6.99.06,0-32.63,0-65.26,0-97.89,1-4.33,1.86-8.7,3.02-12.99C13.05,25.79,44.76.97,80.14.13c1.33-.03,2.66-.02,3.99-.02,285.48,0,570.96,0,856.44,0,40.59,0,73.5,26.76,81.54,66.38.89,4.38,1.4,8.91,1.42,13.37.13,29.3.08,58.59.08,87.89,0,.99-.15,1.99-.22,2.98Z"/>
  <path class="cls-2" d="M246.64,294.54c5.63-4.06,12.46-3.98,18.82-4.88,12.14-1.71,24.41-2.78,36.7-2.14,13.22.69,26.44,1.62,39.36,4.86,1.28.32,2.64.36,3.49,1.98-11.07,2.03-21.92,4.64-33.16,4.84,5.35.25,10.7.85,15.98-.52,3.89-1.01,7.42,1.19,11.27,1.12,12.3-.22,24.6.03,36.9-.15,3.48-.05,4.58,1.01,4.54,4.52-.17,14.96.02,29.92-.14,44.88-.04,3.66.54,5.19,4.67,4,5.27-1.52,10.8-1.62,16.27-1.81,2.99-.1,4.34-1.31,4.23-4.6-.3-8.63-.26-17.27-.36-25.9l.28-.27c8.32,0,16.64.09,24.95-.08,2.83-.06,3.73.85,3.68,3.67-.15,8.48.3,16.99-.19,25.45-.27,4.72,1.98,6.88,5.62,8.52,2.23,1.01,4.57,1.75,6.78,2.78,6.94,3.24,8.01,6.45,4.5,13.24-.38.73-1.14,1.35-1.3,2.11-1.59,7.5-6.2,11.6-13.76,12.5-1.22.14-1.62.99-1.67,2.09-.01.33,0,.67-.03,1q-.84,10.26,8.35,14.82c7.81,3.87,8.84,5.12,7.32,10.79-1.17,4.36.55,9.87-5.1,12.63-2.18,1.07-3.72,3.26-3.31,6.32-4.48-3.5-5.51-6.81-2.95-11.8,1.6-3.11.46-4.09-2.13-5.04-1.51-.56-2.18-.24-2.18,1.4,0,11.75,0,23.5,0,35.57h-27.61c0,.28,0,.55,0,.83,8.15,0,16.29.04,24.44-.03,2.25-.02,4.07.13,3.5,3.12,0,0-.37.25-.37.25-1.01-1.91-2.73-2-4.63-1.98-7.48.08-14.97-.1-22.45.15-2.24.07-3.51-.44-2.51-2.44,1.63-3.23.97-6.5,1-9.75.11-10.97-.39-21.98.22-32.92.33-5.92-1.53-9.83-6.4-12.59-1.76-1-4.41-2.12-4.24-3.78.34-3.4-.31-6.74.14-10.08.1-.77,1.14-1.59.99-2.19-1.13-4.54,2.13-4.75,5.08-5.53,3.61-.96,6.16-8.24,3.88-11.02-.43-.52-1.5-.85-2.2-.75-6.73.92-13.46,1.85-20.16,2.97-3.13.52-2.28,3.25-2.28,5.26-.02,23.45.04,46.9.03,70.34,0,18.48-9.01,30.98-25.58,38.51-9.71,4.41-19.74,7.79-30.2,9.88-1.56.31-3.17,1.43-4.56-.35,7.15-2.57,14.93-3.12,22.39-6.63-4.93-.3-9.18.14-13.5-.65-8.77-1.62-15.65-6.63-22.59-11.63-.23-1.94-1.82-3-2.99-4.23-1.26-1.33-1.32.51-1.85,1.06-2.11.16-3.61-1.13-5.23-2.16,1.28-2.82,3.84.85,5.3-1.4-1.67-3.42-3.73-7.03-4.75-11.03-1.73.31-.49,2.63-2.17,2.87-.78-.6-.75-1.44-.57-2.26,2.22-10.2.58-20.54,1.18-30.8.19-3.19-1.04-4.54-4.13-4.77-3.91-.3-2.72,2.56-2.73,4.4-.06,12.64,0,25.28.01,37.92,0,1.66-.17,3.35,1.04,4.74.66.61.29,1.16-.14,1.66-5.54,6.48-11.86,11.69-20.21,14.4-6.41,2.07-12.98,1.66-19.46,2.46-11.56-1.97-21.21-7.22-28.4-16.64-.18-.24.1-.84.17-1.28,1.12-1.08.77-2.48.77-3.76.02-22.93-.02-45.86.06-68.78,0-2.73-.27-4.19-3.67-4.22-3.53-.02-4.02,1.38-4,4.4.12,16.95.07,33.89.06,50.84,0,4.03,1.13,7.81,2.27,11.63,1.04,3.46,3.8,6.12,4.32,9.78-3.63-2.16-6.83-9.06-8-15.88-1.16-6.78-.84-13.56-.84-20.35.01-18.77-.08-37.54.34-56.3.11-5.09-1.57-7.23-6.35-7.79-6.36-.74-12.6-2.71-19.11-1.69-3.13-.92-4.86-.57-4.64,3.51.34,6.57.09,13.17.09,19.92,3.19-.37,2.72-2.53,2.98-4.45.47-3.44-1.47-7.27,1.57-10.31,2.79,1.31,5.18,3.51,8.51,3.6,1.18.03,1.65.94,1.8,2.03.57,4.1,1.43,8.19,1.62,12.3.15,3.24-2.74,5.17-5.1,6.26-5.73,2.65-7.02,6.77-6.8,12.73.45,12.12.13,24.28.13,36.42,0,1-.37,2.2.05,2.96,3.78,6.7-1.21,5.45-4.85,5.45-6.49,0-12.97.06-19.46-.05-1.52-.03-3.37.86-4.53-1,9.24,0,18.48,0,27.73,0-6.75-1.14-13.51-1.25-20.25-1.09-2.52.06-5.26-1.01-7.56.95-2.12-2.44,1.16-3.96,1.04-6.38-.49-9.63-.18-19.3-.23-28.95,0-1.06.66-2.65-.74-3.07-1.48-.45-2.78.77-4.07,1.46-1.54.81-1.53,2.14-.75,3.39,1.67,2.71,2.44,5.45.79,8.44-.46.83-1.25,2.32-2.02,1.4-2.66-3.18-8-3.99-8.19-9.38-.07-1.97-.45-3.98-1.04-5.86-2.56-8.09.37-8.33,6.27-10.85,9.98-4.27,10.95-5.37,9.86-16.37-.23-2.3-1.3-2.61-3.13-2.84-7.81-.99-12.12-5.46-12.93-13.3-.05-.49-.21-.97-.37-1.43-2.98-8.84-2.19-10.59,6.37-14.08.3-.12.65-.14.97-.24,6.99-2.19,10.17-6.34,9.2-14.21-.88-7.22.04-14.64-.33-21.94-.15-2.86,1-2.83,2.99-2.82,8.32.05,16.64.03,24.97.04.17.09.31.21.42.37-.06,8.82-.05,17.63-.24,26.45-.06,2.97.95,4.27,4,4.16,6.01-.22,11.95.33,17.78,1.89,3.31.89,3.45-1.19,3.44-3.63-.04-14.81.13-29.63-.12-44.43-.07-4.26.89-5.79,5.47-5.68,12.8.33,25.61.11,38.53-.51-3.36-.83-6.73-1.62-10.08-2.51-2.52-.66-4.56-1.83-2.91-4.88.91-1.69.78-2.74-1-3.56-1.05-.48-2.31-.98-1.31-2.54.5-.78,1.27-1.2,2.09-.6.98.72,3.76.62,2.86,1.8-1.58,2.07,2.72,4.68-1.15,6.22-1.04.42.45,1.43,1.45,1.59,10.83,3.9,22,5.25,33.44,4.58-11.31-.24-22.23-3.26-33.37-4.67ZM378.84,346.87c0-13.64-.04-27.27.03-40.91.01-2.59-.03-4.29-3.57-4.26-24.78.15-49.55.1-74.33.05-2.17,0-3.3.31-3.29,2.93.1,17.96.05,35.92.06,53.88,0,1.28-.24,2.44,1.81,2.77,15.1,2.44,22.35,12.51,24.79,26.63.57,3.28,1.91,3.45,4.47,3.44,15.3-.07,30.6-.13,45.9.04,3.28.04,4.24-.88,4.2-4.15-.17-13.47-.07-26.94-.07-40.41ZM363.34,408.6c.09,3.27.94,5.16-.58,6.58-3.53,3.28-2.84,6.1-.04,9.57,1.65,2.05,1.54,4.9-.62,7.23-1.76,1.9-3.68,2.24-5.76.94-5.22-3.26-9.42-2.94-13.27,1.14-.54.57-.58,1.2-.2,1.77,2.7,4,8.76,4.7,13.2,1.55,2.04-1.45,3.9-1.35,5.77.44,1.64,1.57,2.73,3.59.96,5.15-3.53,3.1-3.14,6.08-.59,9.25,1.3,1.62.42,2.88-.48,3.88-.85.96-2.34.74-3.07-.31-1.28-1.83-3.66-2.96-3.4-5.8.28-3.17-2.25-5.42-4.43-5.92-3.09-.7-4.89-2.45-6.88-4.41-.71-.7-1.3-2.39-2.71-1.3-1.6,1.24-.11,2.4.52,3.42,1.37,2.23,3.95,3.49,3.28,7.18-.33,1.83,1.98,5.05,5.18,4.92,3.84-.16,5.51,2.59,6.1,5.22.61,2.7,2.02,6.87-4.1,6.62-2.34-.09-5.7.77-6.99,4.43-.92,2.6-3.58,1.7-4.68-.08-1.88-3.03-2.58-6.83.19-9.46,2.56-2.44,2.24-5.95,1.14-7.09-3.18-3.28-2.39-6.91-2.57-10.57-.06-1.2.58-3.1-1.36-3.17-2.01-.07-1.31,1.85-1.5,3.04-.46,2.87,1.18,6.08-1.04,8.62-2.82,3.23-2.91,6.1-.08,9.47,2.08,2.48,1.58,5.75.48,8.5-1.1,2.76-4.07,2.84-5.57.31-1.72-2.89-4.55-3.72-7.43-4.19-4.03-.66-5.92-3.14-4.03-6.58,1.21-2.2,2.8-4.52,5.91-4.8,3.21-.29,6.04-3.35,5.91-5.19-.26-3.67,2.11-5.26,3.53-7.65.57-.95,1.85-1.79.5-2.95-1.67-1.44-2.33.22-3.06,1.2-1.73,2.31-3.5,3.89-6.78,4.3-2.63.33-5.24,2.97-4.68,6.08.61,3.42-2.09,4.19-3.54,5.95-.81.98-2.19,1.08-3.01-.09-.71-1-1.68-2.07-.22-3.47,2.99-2.85,1.79-6.27-.19-8.6-1.88-2.22-1.98-3.53-.13-5.41,1.97-2,3.99-2.8,6.52-.84,4.01,3.1,10.86,2.25,13.43-1.67.69-1.05.15-1.92-1.11-2.1-1.17-.17-2.1-.54-3.05-1.38-2.97-2.62-6.14-2.65-9.12.06-2.39,2.17-4.42,1.45-6.47-.47-2.31-2.15-2.91-5.38-.85-7.02,3.18-2.53,1.6-4.92,2.22-8.86-2.77,2.79-4.38,4.39-6.79,4.98-1.45.35-2.98,1.33-.88,3.07,2.78,2.31,2.21,4.98.28,7.32-2.03,2.47-2.31,4.62-.11,7.04,1.82,2,2.03,3.39-.42,5.68-2.04,1.9-2.24,6.08.29,7.86,3.13,2.19,3.15,4.72,2.75,7.64-.43,3.17.58,5.12,3.76,5.95,2.69.7,4.57,2.05,5.38,5.14.99,3.76,4.47,5.1,7.78,4.24,3.2-.84,5.49-.32,7.7,1.76,2.33,2.19,4.68,2.31,7.04.12,2.22-2.06,4.43-2.9,7.66-1.87,3.03.96,6.33-.37,7.1-3.57.76-3.15,2.56-4.4,5.15-5.27,3.57-1.19,5.91-2.84,4.27-7.3-.82-2.22.16-4.51,1.89-6.3,2.71-2.82,4.16-5.72.73-9.08-1.66-1.63-1.03-3.31.29-4.83,2.05-2.37,2.09-4.51-.03-7.06-1.95-2.34-1.9-4.88.29-7.5,2.28-2.73,2.55-5.69-.25-8.63-2.25-2.36-1.87-5.2.09-7.56,1.72-2.09,2.45-3.99.35-6.11-2.07-2.09-4.33-2.25-6.63-.32-2.04,1.71-4.26,2.03-6.3.25-2.08-1.81-4.85-1.76-6.59-.95-4.05,1.89-7.52,2.49-11.22-.53-.96-.78-2.34.15-3.19.84-2.19,1.79-4.02,2.28-6.61.3-2.37-1.81-4.68-1.22-5.6,2.13-.43,1.57-1.11,3.08-1.78,4.9,3.18.13,5.95.88,8.68-1.43,2.04-1.74,4.02.06,5.68,1.51,2.03,1.77.43,2.62-.79,3.88-1.98,2.04-1.87,5.76-.65,6.9,2.84,2.65,2.43,5.56,2.56,8.63.05,1.1-.15,2.6,1.65,2.39,1.33-.15,1.11-1.41,1.2-2.37.29-2.94-.81-5.94,2.47-8.49,1.37-1.07,1.65-5.19-.75-7.19-1.9-1.59-2.11-2.76-.35-4.4,1.79-1.65,4.03-2.44,5.64-.44,1.65,2.04,3.42,1.1,5.22,1.48,3.19.67,5.08-3.91,8.83-1.71-3.28,3-4.35,8.01-9.07,8.39-3.26.26-5.02,2.55-5.26,4.43-.49,3.75-2.49,6.31-4.56,9.02-.61.79-1.43,1.64-.38,2.58,1.46,1.31,2.01-.39,2.74-1.06,2.15-1.95,3.71-4.27,7.3-4.53,2.06-.15,4.75-3.21,4.67-5.25-.21-5.66,4.23-7.47,7.54-12.09ZM250.86,439.48c0,14.15.12,28.3-.08,42.44-.05,3.66,1.28,4.32,4.59,4.4,3.63.09,3.97-1.51,3.96-4.46-.08-27.96-.09-55.92,0-83.88.01-3.05-.52-4.43-4.02-4.38-3.38.05-4.59.84-4.54,4.44.2,13.81.08,27.63.08,41.44ZM407.36,429.99c0,3.16-.11,6.32.03,9.47.19,4.43-1.94,10.34.86,12.9,2.99,2.73,8.87.51,13.46.87,2.53.2,3.47-.54,3.43-3.27-.15-10.46-.12-20.93-.01-31.39.02-2.33-.87-3.24-2.9-4.38-3.74-2.09-8.17-2.62-11.53-5.4-2.59-2.15-3.36-1.08-3.35,1.76.04,6.48.01,12.96,0,19.43ZM178.36,411.13c-5.06,1.77-9.82,3.24-14.4,5.13-2.3.95-3.37,2.89-3.21,5.78.32,5.79,0,11.61.13,17.41.1,4.43-1.93,10.36.79,12.9,2.93,2.74,8.84.49,13.42.89,2.69.23,3.34-.81,3.32-3.37-.12-12.6-.05-25.21-.05-38.75ZM240.58,482.88c0-1.74,0-3.36,0-4.98-.02-15.14-.04-30.28-.06-45.42-.02-11.65-.09-23.29,0-34.94.02-2.62-.49-3.8-3.51-3.92-3.64-.14-4.37,1.2-4.36,4.57.13,25.12.07,50.25.07,75.37q0,7.2,7.87,9.32ZM269.75,483.01c6.06-.97,8.01-3.83,7.83-9.61-.46-15.28-.88-30.63.1-45.86.64-10-3.25-17.71-7.94-25.41v80.88ZM160.85,338.64c0,3.32.19,6.65-.05,9.96-.34,4.69.32,6.54,6.01,5.01,3.13-.84,6.29-2.76,9.85-2.32,1.71.21,1.7-1.12,1.7-2.32,0-7.8-.01-15.6.01-23.4,0-1.49-.22-2.64-2.11-2.55-4.94.23-10.77-1.76-14.55.8-2.77,1.88-.53,7.76-.86,11.84-.08.99-.01,1.99-.01,2.99ZM160.91,401.85c1.9-.51,3.34-.9,4.77-1.29,10.74-2.93,12.68-5.45,12.68-16.42,0-2.16,0-4.32,0-6.48q0-8.79-8.53-7.93c-1.31.13-2.71-.16-3.96.17-3.1.82-5.33,1.99-5.11,6.21.45,8.44.13,16.92.13,25.75ZM425.08,338.1c0-.5,0-.99,0-1.49,0-14.98,0-14.93-14.88-13.67-2.14.18-2.88.86-2.86,2.94.07,7.28.08,14.57,0,21.85-.02,2.05.74,2.73,2.75,3.17,15,3.25,14.99,3.3,14.99-11.82,0-.33,0-.66,0-.99ZM425.08,398.79c0-8.79.03-17.08-.02-25.38,0-1.5.66-3.36-2.05-3.65-4.26-.46-8.48-1.27-12.73-1.91-2.07-.31-3.05.45-2.94,2.7.17,3.48.15,6.97.18,10.45.11,11.84.92,13.01,12.12,16.74,1.68.56,3.5.69,5.44,1.05ZM186.1,407.69c-3.47.21-3.27,2.3-3.26,4.34.02,12.61-.02,25.21.06,37.82,0,1.2-1.01,3.37,1.6,3.28,2.44-.09,1.57-2.16,1.57-3.43.06-13.93.04-27.86.04-42ZM330.12,422.24c-.8-3.58-2.34-6.19-6.78-6.58-3.32-.3-3.81.26-3.87,3.63-.06,3.52,2.18,5.97,4.39,6.47,3.47.78,5.36,2.91,7.58,5.04.9.85,1.83,2.37,3.24.82,1.4-1.54-.42-2.25-1.08-3.24-1.29-1.93-4.17-2.87-3.48-6.13ZM182.84,336.9c0,3.82-.03,7.64.02,11.45.01,1.06-.42,2.52,1.45,2.55,1.64.03,1.79-1.09,1.79-2.36,0-7.64,0-15.27,0-22.91,0-1.16.1-2.5-1.58-2.55-2.19-.07-1.63,1.66-1.65,2.86-.06,3.65-.02,7.3-.02,10.96ZM429.56,435.1c0,5.3-.01,10.61.01,15.91,0,.92-.22,2.15,1.3,2.12,1.48-.02,1.29-1.24,1.29-2.16.02-10.44,0-20.88,0-31.32,0-1.13-.32-1.96-1.61-2-1.79-.06-.96,1.35-.97,2.04-.08,5.14-.04,10.27-.04,15.41ZM432.18,354.22c0-9.74,0-19.3-.01-28.85,0-.95.13-2.23-1.27-2.22-1.81.02-1.32,1.59-1.32,2.61-.04,8.44-.02,16.88-.02,25.32,0,1.34-.1,2.72,2.62,3.14ZM432.12,402.28c0-9.36,0-18.45,0-27.54,0-1.12.29-2.61-1.29-2.75-2.01-.17-1.22,1.6-1.23,2.51-.07,8.1.04,16.2-.1,24.3-.03,1.88.9,2.6,2.63,3.48ZM180.21,452.95h.74v-42.7h-.74v42.7ZM296.53,393.13c-2.23,2.67-.79,6.94-5.27,7.81-1.3.25-.46,2.8,1.23,3.23,2.7.67,5.37.9,8.14-.51,1.46-.74,1.71-2.33,1.24-2.4-4.76-.67-2.64-5.73-5.35-8.13ZM430.63,368.13c.78-1.96-2.55-3.63-.57-5.4,4.35-3.91,1.38-3.98-2.05-5.29-6.51-2.48-4,3.31-5.31,5.37-.62.98-1.25,3.25.47,3.95,2.07.84,1.42-2.12,2.73-2.65,1.79,1.04,1.23,4.85,4.74,4.02ZM311.06,386.35c-2.21-1.31-4.61-2.64-4.17-5.94.07-.57-.73-1.71-1.28-1.82-1.3-.26-1.33,1.11-1.72,1.95-.6,1.3.64,3.17-.96,4.06-1.34.75-3.99.84-2.54,2.97.96,1.41,3.52,1.73,5.36,2.54.89-2.39,4.66-.51,5.31-3.76ZM426.89,452.95c.18,0,.35-.01.53-.02v-36.54c-.18.01-.35.02-.53.04v36.52ZM288.26,378.36c-.46.27-.79.38-1,.61-1.89,1.98.89,6.96-4.48,6.86-.54-.01-.49,1.79.63,2.31,2.9,1.36,5.8,1.96,8.78.06,1.06-.68,1.45-2.06.69-2.34-3.57-1.31-3.4-4.81-4.61-7.5ZM157.67,370.24c.56-.35,1.35-.74,1.31-.85-1.21-3.44,1.2-5.19,3.17-7.25.72-.75.38-1.96-.48-2.66-2.07-1.67-4.07-.5-6.05.29-1.69.67-2.24,1.82-1.45,3.55,1.06,2.33,1.38,5.05,3.51,6.92ZM426.95,352.97c.25,0,.51.02.76.03v-29.6c-.25,0-.51,0-.76,0v29.57ZM433.53,368.52c3.79-.54,6.95-.85,7.13,4.27.02.44.84.96,1.39,1.22.19.09.97-.43,1.01-.73.39-2.95.89-5.91.92-8.87.02-2.08-1.45-1.83-2.77-.96-2.57,1.68-5.11,3.38-7.67,5.08ZM427.68,371.08c-.23,0-.46,0-.69,0v28.84c.23,0,.46,0,.69,0v-28.84ZM180.23,350.86c.24,0,.48,0,.72,0v-27.46c-.24,0-.48,0-.72,0v27.46ZM409.98,364.69c-5.17-.72-3.77-4.33-3.92-7.22-.06-1.13.14-2.47-1.52-2.66-.94-.11-1.71.34-1.77,1.3-.16,2.8-1.11,5.98.35,8.3,1.28,2.04,4.14.82,6.87.28ZM180.21,393.04c.22,0,.45,0,.67,0v-24.66c-.22,0-.45,0-.67,0v24.66ZM399.22,354.44c-3.46,2.13-1.92,5.9-4.51,7.53-1.52-1.99-2.86-3.85-4.35-5.59-.32-.37-1.22-.38-1.83-.32-.24.03-.68.9-.57,1.07,1.88,2.69,3.72,5.42,5.83,7.94.72.86,1.91.35,2.29-.81,1-2.99,1.92-6.01,3.13-9.82ZM186.33,354.78q-3.12,5.81-6.74,1.58c-.11-.13-.2-.26-.31-.39-.69-.83-1.66-1.45-2.59-.93-1.29.73-.25,1.76.17,2.51,1.21,2.17,2.47,4.31,3.86,6.37.64.94,2.07,2.1,2.53.25.76-3.02,3.57-5.28,3.08-9.39ZM412.26,354.85c2.6,1.74,2.35,4.07,1.85,6.57-.29,1.45-1.56,3.67,1.12,3.86,2.52.18,1.67-2.29,1.89-3.74.34-2.24-.85-5.19,4.67-5.45-3.07-.68-4.33-1.06-5.62-1.2-1.29-.14-2.6-.03-3.91-.03ZM196.03,354.9c-2.57-.33-4.13.38-4.69,2.11-.71,2.2,1.04,3.21,2.66,4.13,1.03.59,2.16,1.26,1.49,2.66-.51,1.08-1.63.88-2.62.61-.32-.09-.61-.28-.93-.31-.58-.07-.94.12-.47,1.1,2.21.16,4.95,1.33,6.53-1.22,1.78-2.88-1.06-3.96-2.9-5.23-2.33-1.61-.82-2.63.93-3.83ZM173.93,366.25c-3.33-.12-3.88-2.47-4.37-5.02-.24-1.29-.65-2.57-1.16-3.77-.26-.62-1.05-.89-1.7-.49-.35.21-.78.82-.7,1.13.68,2.88,1.13,5.91,2.46,8.47.34.66,3.57-.17,5.47-.32ZM246.27,334.03c.47-2.23-1.15-2.31-2.97-2.35-1.85-.03-2.82.61-2.46,2.58.3,1.67.66,3.16,2.91,3.22,2.41.06,2.64-1.35,2.52-3.45ZM267.2,331.74c-1.76-.17-2.82.43-2.68,2.44.12,1.65-.04,3.32,2.47,3.31,2.09-.01,2.38-1.18,2.42-2.83.03-1.6.01-3.05-2.21-2.92ZM255.12,337.41c1.83.37,2.26-.86,2.38-2.56.13-1.86-.1-3.18-2.47-3.17-2.08.01-2.41,1.13-2.33,2.82.07,1.5-.08,3.09,2.42,2.91ZM248.23,322.08h-9.36c3.12,1.36,6.24,1.84,9.36,0ZM269.09,368.75c-.56-1.38-1.86-.8-2.89-.82-.93-.02-1.62.55-1.2,1.54.49,1.15,1.66.72,2.57.75.86.03,1.61-.23,1.52-1.47ZM273.14,370.25c.86,0,1.88-.12,1.85-1.13-.04-1.37-1.3-1.19-2.27-1.22-.85-.02-1.85.05-1.83,1.12.03,1.45,1.3,1.16,2.24,1.23Z"/>
  <path class="cls-2" d="M209.64,235.62c2.41-1.72,1.11-4.79,2.81-7.2,1.8-2.55,6.02-2.48,6.22-6.4.02-.5,2.16-.46,2.47.53.58,1.83,2.25,3.96-.52,5.58-4.08,2.38-5.61,6.33-6.52,10.67-.45,2.13,1.33,4.14.23,6.51-2.41-1.66-1.44-4.44-2.5-7.25-.2,5.53-1.36,10.59,2.82,14.16.86.74.17,3.73,2.57,2.33,1.94-1.13,3.63-3.95,2.76-5.2-3-4.29.6-4.92,2.88-5.83,7.16-2.86,14.2-6.3,22.25-5.86,1.97.11,3.74.18,2.77-2.88-.29-.92.22-3.02,1.81-2.91.83.06,3.96.37,1.77,2.97,3.49-.19.12,5.75,4.79,5.15,1.92-.25,1.21,2.47.34,4.29q4.5-2.17,1.37-6.21c8.11-3.69,16.69-6.09,25.34-7.73,4.69-.89,5.64-2.67,5.28-6.67-.18-1.96.28-4.01-1.29-5.64l.22-.38c1.23-.17,1.93-.61.52-1.56-1.17-.78-2.47-1.37-3.71-2.05.08-.17.2-.31.34-.43,2.44.5,3.02-.82,2.84-2.9v.02c.88-.64,3.08-.4,1.91-2.5-2.41-4.31-.13-7.43,2.61-10.34,2.13-2.26,3.04-4.08-.86-5.24-.31-.09-.67-.15-.91-.35-.91-.76-.91-2.47-.47-2.64,2.78-1.07,3.47-5.22,7.13-4.82,2.11.24,1.44,1.74,1.33,3.12-1.4-1.33-2.91-4.51-3.77.17-.37,2.01-2.64,1.05-3.47,2.31,2.72,1.87,4.93,9.53,3.47,12.26-.26.49-.9.87-1.45,1.1-1.09.45-3.31-.51-3.11,1.41.26,2.44,2.65,1.19,4.09,1.32,2.14.19,4.32.05,6.48.02.87-.01,1.74-.26,1.77-1.3.03-1.06-.85-1.36-1.71-1.31-2.23.13-3.53-.6-3.23-3.1.12-1.02.17-2.01,1.5-2.17,2.4-.29,3.73,1.08,4.55,3.07.71,1.71,1.22,3.62.04,5.23-1.5,2.05.19,3.79.2,5.67,0,1.03.97,1.21,1.86,1.11.84-.1,1.28-.26,1.32-1.47.12-2.97,2.04-3.6,4.79-3.25,1.74.23,3.6.28,5.28-.88,4.48-3.1,4.41.16,4.39,3.27,3.63-4.55,6.99-3.58,13.61,3.94-1.84,2.22-3.78,1.16-5.8.27-7.67-3.34-15.44-2.92-23.2-.41-1.57.51-1.56.85-.48,2.33l.25.3c-3.75,3.4-2.09,7.83-1.67,11.69.21,1.88,3.72,1.91,5.62,1.95,7.61.16,14.17,4.2,21.47,5.44,1.23.21,3.4.91,1.57,3.43-1.37,1.9,1.06,2.75,2.17,3.55.43.31.14-1.33.49-2,.12-.17.26-.32.42-.44,2.35-.85,2.13-.82,1.8-3.67-.12-1.03,1.08-2.22,1.67-3.33.23.12.47.25.69.39.16.39.31.78.47,1.17.6-.4,1.59-.45,1.22-1.64-.32-1.06-.69-2.22.81-2.78l.13.12c3.14,4.44,4.62,4.13,9.31,6.19,6.21,2.73,13.58,2.19,18.95,7.08,1.49,1.35,3.12,2.04,2.03,4.69-.7,1.69.7,3.61,2.24,4.56,2.33,1.44.79-.99,1.25-1.48.15-.14.32-.24.51-.3,1.59-.41,3.18-.82,4.77-1.22.43,1.54,1.46,1.63,2.73,1.14-4.31,1.89-1.7,6.72-4.27,9.77-1.35-1.31-.69-4.54-3.47-4.3-2.11.18-4.21.55-6.26,1.07-1.86.47-1.71,2.18-1.83,3.67-.16,2.09.66,3.15,2.85,2.9l.29.33c-.19,3.93-1.78,6.37-6.19,5.77-.38-.23-.75-.47-1.14-.68-.02-.01-.19.24-.28.36.45.14.89.29,1.34.43.27,2.19-1.41,3-2.84,3.99l-.23-.28c-.11-1.05.93-3.11-1.71-1.99-1.66.7-3.25,1.63-4.98,2.09-1.89.51-3.96.26-4.22-2.17-.44-4.19-2.01-3.51-4.78-1.77-5.68,3.56-11.61.46-12.36-6.21-.09-.78.22-1.7-1.36-2.41-1.57,3.73-3.76,7.07-8.36,7.63-4.96.61-7.76-1.81-8.99-6.43-10.81,7.29-15.53,6.22-19.15-4.94-1.51,4.67-2.68,8.76-7.61,10.02-5.53,1.42-7.71-2.38-10.58-6.07-1.67,4.13-4,7.33-8.89,7.52-5.4.22-6.88-4.38-9.99-8.26-.44,5.5-2.24,9.33-7.46,10.72-3.9,1.04-6.02-1.6-8.89-3.36-.81,2-.51,5.14-3.61,5.79-2.83.59-4.99-.78-7.17-2.59-1.26-1.05-2.26-2.39-5.28-1.3-3.74,1.34-5.66-3.18-6.47-6.88l.27-.29c2.62,1.56,3.78,1.04,3.8-2.24.02-3.33-2.2-3.19-4.43-3.85-2.24-.66-4.83-1.29-5.74.77-1.05,2.36,2.71,1.5,3.47,3.1l-.22.34c-3.29.23-6.08-.02-6.54-4.35-.26-2.44-.5-5.02-3.33-6.57-.7-.38-1.59-3.49.47-5.11,1.58-1.24,1.63-2.7.2-4.16.14-.8.21-1.58-.79-1.91.71-1.17,1.19-2.41,1.05-3.81.35-.4.7-.8,1.04-1.2ZM289.46,239.69c1.11,1.2,2.23,2.39,3.33,3.6.69.75,1.47,1.81.12,2.34-4.34,1.68-.67,3.82-.08,5.22,1.13,2.7,4.11.97,6.04,1.09,1.57.1,2.69-4.42,2.17-4.72-2.52-1.43-2.44-5.69-4.37-5.77-5.25-.21-3.02-3.39-3.06-5.78,3.82,2.21,5.02.48,4.88-3.25,4.94,2.71,1.82,6.77,1.32,10.54,4.74-2.4,5.94-3.45,4.38-7.26-2.53-6.17-1.29-12.66-2.82-18.86-1.23-5-4.56-6.32-8.9-3.08-3.25,1.99-1.99,5.49-2.22,8.14-.51,5.89-1.96,11.8-.78,17.78ZM292.27,256.11c.03-3.32-2.64-4.27-4.66-4.09-2.95.26-6.98,2.07-7.35,4.32-.35,2.14,4.25,3.13,6.39,5,1.6-2.05,5.77-1.43,5.62-5.23ZM300.67,256.15c-.21,3.38,1.96,5.15,4.75,5,2.69-.14,6.03-2.5,6-4.61-.04-2.58-3.8-4-6.36-4.42-2.04-.34-4.71.75-4.38,4.03ZM335.92,255.64c2.3.39,4.18-1.45,4.01-3.28-.2-2.15-2.08-4.14-3.23-6.21-2.12,1.35-4.23,2.7-6.35,4.05,2.06,1.51.07,6.96,5.57,5.44ZM238.03,263.3c-1.76-.96-3.54-.55-5.18-1.73-2-1.45-3.94.51-5.47,2.04-.81.81-1.96,1.79-1.29,2.96.98,1.7,2.86,1.72,4.7,2.01,4.38.69,5.19-2.88,7.24-5.27ZM342.08,264.54c1.74-.92,5.66.06,5.54-2.84-.08-1.94-3.11-4.36-5.81-4.69-3.44-.41-3.81,2.69-3.99,5.02-.2,2.58,2.1,2.41,4.25,2.5ZM355.12,262.94c-.25,3.21,3.44,1.81,3.46,4.8,0,1.48,3.35.65,5.17.63,1.53-.02,2.26-1.37,2.45-2.67.26-1.8-1.31-2.42-2.53-3.26-3.12-2.15-5.57,1.65-8.54.5ZM256.34,246.33c-.31,2.93-6.98,4.6-1.86,8.51,1.94,1.48,4.75,1.3,5.86-.1,3.65-4.61-2.91-5.23-4-8.41ZM272.04,256.75c-3.13.39-5.92-5.11-9.07-.33-1.33,2.01-.09,4.57,1.88,5.55,4.82,2.39,4.79-3.09,7.19-5.22ZM320.07,257.59c.63,2.45,3.79.9,4.48,3.56.23.89,3.08.59,4.49-.47,1.57-1.18,1.51-2.97.78-4.46-.69-1.41-3.29-2.25-3.69-1.72-1.61,2.11-4.75.56-6.06,3.08ZM244.27,261.42c2.72,1.47,5.08,2.43,5.91,2.43,4.21-.03,7-2.52,2.8-6.04-3.87-3.25-5.1,2.43-8.71,3.62ZM310.58,212.46c.82-.03,1.06-.63,1.01-1.27-.03-.35-.44-.67-.67-1-.35.47-.78.9-1.02,1.42-.27.57.2.76.68.86ZM209.59,247.72c-.43.46-.69.74-.95,1.03.32.23.62.53.97.65.16.05.65-.35.63-.44-.1-.36-.34-.69-.65-1.23ZM214.12,231.24c.27-.19.6-.31.76-.55.36-.54.04-.84-.49-.83-.19,0-.49.35-.53.58-.04.24.16.52.27.8ZM316.2,210.04c-.31.26-.64.41-.69.61-.14.61.3.86.81.86.23,0,.47-.26.7-.4-.27-.35-.53-.7-.82-1.07Z"/>
  <path class="cls-2" d="M438.38,463.54c2.01,1.93.58,4.38.95,6.56.35,2.06.78,4.46,3.26,4.1,3.99-.59,3.8,1.62,3.74,4.27-.09,3.99-.22,7.99.03,11.97.24,3.81-1.71,5.19-4.73,3.86-6.58-2.89-12.81-1.91-19.35.02-2.72.81-5.83.64-8.77-.62-4.74-2.02-9.54-2-14.36.21-4.3,1.97-5.86.77-5.88-4.14-.01-3.49.11-6.99-.03-10.47-.14-3.37-.31-6.22,4.54-6.25,3.02-.02,2.66-2.99,2.43-5.05-.53-4.71.9-6.26,6.03-5.86,8.43.65,16.95.18,25.43.19,1.2,0,2.42.04,2.35-1.71,0,0,.37-.25.37-.25,1.28,1.02,2.55,2.03,3.83,3.05-10.79.12-21.58.37-32.37.27-3.5-.03-4.49,1.08-4.49,4.53,0,3.41,1.18,4.18,4.33,4.1,7.64-.2,15.3-.06,22.95-.06q9.1,0,9.73-8.72ZM405.68,484.46c-2.55-.79-5.28,1.94-8.56,2.26-1.06.1-2.8-.15-2.26,1.65.42,1.43,1.95.8,2.99.49,2.36-.71,4.64-1.67,7.02-2.28,3-.77,6.03-.18,8.34,1.72,3.42,2.81,6.64,2.7,10.39.81,5.19-2.62,10.47-4.7,15.88-.11.81.69,2.55.32,3.86.35.73.02,1.31-.44,1.24-1.2-.04-.42-.45-1.09-.79-1.16-5.71-1.17-11.23-4.12-17.32-1.4-4.42,1.97-9.04,1.87-13.48,0-2.08-.88-4.16-.95-7.3-1.11ZM407.49,476.63c-3.35-.59-6.37.9-9.48,2.02-1.2.43-3.79-.54-3.05,1.85.46,1.47,2.58.53,3.93-.12,5.43-2.58,10.81-2.37,16.26.07,2.82,1.26,5.92,1.19,8.75.2,5.48-1.93,10.83-4.14,16.07.57.39.35,1.29.19,1.95.18.96,0,2.24.28,2.59-.88.47-1.57-.88-1.83-2.03-2.16-5.62-1.61-11.16-2.84-16.95-.42-3.77,1.57-7.79,1.42-11.66-.01-2.03-.75-4.03-1.54-6.37-1.29Z"/>
  <path class="cls-2" d="M199.69,484.33c0,1.83,0,3.65,0,5.48-.02,5.07-1,5.89-5.89,4.1-5.54-2.02-10.8-2.15-16.36.12-3.04,1.24-6.47.91-9.72-.27-5.11-1.86-10.13-2.29-15.31.33-3.68,1.86-5.56.42-5.64-3.67-.06-3.32.03-6.64,0-9.96-.02-3.57-1.01-7.47,4.87-7.52,2.32-.02,2-2.59,2.05-4.41.18-7.12.17-6.68,7.25-6.32,8.78.44,17.62.39,26.39-.13,4.29-.25,5.77.89,5.35,4.99-.35,3.4-.11,6.46,4.55,6.35,1.97-.05,2.49,1.19,2.46,2.93-.05,2.66-.01,5.32,0,7.97ZM172.86,472.25c5.31,0,10.63-.09,15.94.03,2.85.06,2.84-1.76,2.61-3.61-.23-1.84,1.31-4.82-2.38-4.84-10.46-.07-20.92-.09-31.38.02-3.69.04-2.64,3.05-2.84,5.2-.22,2.3.68,3.31,3.11,3.24,4.98-.12,9.96-.04,14.94-.04ZM160.32,476.6c-3.67-.81-6.89,2.13-10.69,2.35-.29.02-.73.68-.78,1.08-.1.84.59,1.22,1.26,1.05,1.42-.35,2.85-.77,4.19-1.35,4.91-2.14,10.04-1.94,14.17.93,3.29,2.28,6.3,2.41,8.98.74,5.9-3.67,11.57-3.64,17.55-.63,1.03.52,2.72.92,3.07-.25.64-2.12-1.46-1.47-2.56-1.86-1.85-.65-3.63-1.51-5.48-2.16-3.09-1.08-5.75-1.1-9.24.16-4.14,1.48-9.1,3.12-13.85,1.04-2.02-.88-4.1-1.22-6.61-1.11ZM159.3,484.37c-2.65-.62-5.7,2.29-9.36,2.45-.73.03-1.2.58-1.09,1.35.17,1.2,1.2,1.07,1.92.88,1.26-.34,2.46-.92,3.67-1.41,5.1-2.08,10.2-1.65,14.64,1.28,3.78,2.5,7.31,2.11,10.3-.23,1.59-1.24,3.18-1.65,4.79-2.06,3.91-1,7.41.81,10.94,2.17,1.04.4,2.54.99,3.01-.38.6-1.77-1.13-1.45-2.18-1.72-1.59-.41-3.14-.96-4.68-1.52-3.84-1.39-7.77-2.77-11.64-.44-4.55,2.74-9.12,2.29-13.74.54-1.78-.68-3.57-.57-6.57-.9Z"/>
  <path class="cls-2" d="M431.74,301c1.96,1.76,5.95-1.19,6.4,2.26.48,3.72,2.09,8.37-2.93,10.86-.29.14-.73.37-.76.6-.87,6.52-5.92,3.8-9.35,4.01-5.47.34-10.98.1-16.47.08-1.55,0-3.5.55-2.62-2.41.36-1.2-1.17-2.12-2.11-2.51-3.44-1.42-3.55-4.06-3.52-7.21.03-3.23.19-5.63,4.43-5.13,3.02.36,2.65-1.4,1.9-3.45-.75-2.05-2.39-3.22-3.98-4.33-2.72-1.89-2.74-4.57-1.99-7.08.69-2.32,2.96-3.93,5.36-3.72,3.67.32,6.48-2.53,10.08-2.15,1.85.2,1.22-1.28,1.43-2.37.27-1.39,2.16-2.7,2.69-1.13,1.94,5.8,7.33,4.44,11.07,5.22,6.5,1.37,8.75,2.59,4.73,9.91-1.54,2.8-4.38,5.03-4.34,8.53ZM420.18,311.4c4.49,0,8.99-.23,13.45.07,3.53.24,3.73-1.6,3.62-4.24-.09-2.38.32-4.58-3.41-4.5-9.3.2-18.61.23-27.91,0-3.98-.1-3.53,2.22-3.68,4.79-.19,3.04.88,4.1,3.97,3.95,4.64-.24,9.3-.06,13.95-.06ZM419.75,317.41c3.48,0,6.95.01,10.43,0,.84,0,1.74-.14,1.79-1.22.05-1.08-.79-1.33-1.66-1.33-6.95-.02-13.9-.02-20.86-.01-.83,0-1.77.13-1.77,1.22,0,1.44,1.19,1.34,2.14,1.35,3.31.03,6.62.01,9.93,0ZM433.29,313.29c0-.1,0-.19,0-.29h-26.84c0,.1,0,.19,0,.29h26.84Z"/>
  <path class="cls-1" d="M306.47,475.43c6.95,5.01,13.82,10.02,22.59,11.63,4.32.8,8.58.36,13.5.65-7.46,3.52-15.24,4.06-22.39,6.63-.48.03-.97.06-1.45.09-4.09.32-8.19.61-12.28.98-1.16.11-2.31.45-2.51,1.92-3.99,0-7.98,0-11.97,0-1.21-2.51-3.72-1.85-5.64-1.96-6.59-.38-13-1.7-19.46-2.85-4.81-.86-9.24-3.3-14.25-3.14l-.11-.06c-.48-1.77-1.71-1.26-2.88-.94,0,0,.14-.1.14-.09,6.49-.8,13.06-.39,19.46-2.46,8.35-2.7,14.68-7.92,20.21-14.4.42-.49.8-1.05.14-1.66l.15-.3c.85.27,1.11-.02.78-.84l.15-.19c1.37-.05,1.71-.63.93-1.8l.12-.19c1.4-.06,1.75-.63.89-1.8l.12-.18c2.15-.56,2.37-2.02,1.81-3.85l.26-.08c1.68-.24.45-2.56,2.18-2.87,1.01,4,3.07,7.61,4.75,11.03-1.46,2.25-4.02-1.42-5.3,1.4,0,0-.04.28-.04.28-2.63-.64-5.63-1.93-4.94,2.96l-.05.05c-2.01-.7-2.45.16-1.94,1.95l-.08.1c-2.17.65-2.03,2.44-1.86,4.09.13,1.26.99,1.48,2.05.8-2.39,4.49,3.22,2.85,3.85,5.03-.73,1.71,1.99.81,1.57,2.73-5.49-4-11.42-5.01-18.3-3.32,3.84,4.03,7.47,6.93,12.75,7.1,2.21.07,5.31-1.59,6.24,2.47.19.82,2.26.5,2.55-.26,1.47-3.85,4.67-2.5,7.18-2.35,5.16.31,9.23-1.6,12.98-4.98-4.39-2.61-6-2.74-14.87-1.33.17-.71,1.36-.9.96-1.89l.09-.12c1.3-.13,1.58-.77.95-1.88,0,0,.06-.12.06-.12,2.61-1.64.69-3.96.88-5.96l.02-.02Z"/>
  <path class="cls-2" d="M188.42,313.33c-9.44-1.16-18.91-.25-28.36-.49-2.52-.06-5.95.97-5.4-3.37.38-3.03-2.85-8.47,4.35-7.88,1.97.16,2.87-.46,1.79-2.58-.68-1.33-1.1-2.72-2.44-3.65-2.49-1.72-5.2-3.59-3.96-7.2,1.25-3.64,4.6-4.98,7.94-6.05,1.08-.35,2.31-.44,3.45-.37,3.18.18,5.8-.12,5.59-4.34-.06-1.24.66-2.27,2.01-2.44.93-.12,1.93.69,1.86,1.34-.86,7.65,5.32,5.35,8.9,6.05,3.82.75,6.1,2.77,7.39,6.11.73,1.9.64,3.86-1.36,5.24-.95.66-1.83,1.46-2.61,2.31-1.14,1.25-2.19,2.81-1.8,4.45.49,2.02,2.5.87,3.84,1.14.82.16,1.66.13,2.1,1.01-.17.11-.33.24-.47.39-10.76-.06-21.52-.02-32.27-.24-3.87-.08-3.12,2.4-3.19,4.62-.08,2.25-.23,4.18,3.17,4.11,10.75-.22,21.52-.16,32.27-.21.15.15.32.29.5.41-.56,1.37-2.2,1.12-3.06,2.04l-.25-.39Z"/>
  <path class="cls-2" d="M352.19,278.84c-8.8-1.46-17.56-3.16-26.39-4.32-16.18-2.12-32.41-2.15-48.69-.98-10.28.74-20.41,2.17-30.45,4.33-2.57.55-5.07,1.46-7.55,2.19-.06,2.6,3.36.34,3.27,3.08-2.37.62-4.56.33-5.5-2.18-1.1-2.95,2.15-2.13,3.25-3.21,3.95-3.87,9.38-1.19,13.71-3.19,4.39-2.03,8.85-3.16,13.73-2.11,2.86.62,5.6-.53,8.28-1.32,2.13-.63,4.32-1.09,6.36-.46,3,.93,5.79.97,8.75-.07,3.49-1.23,7.15-1.03,10.58.07,3.93,1.26,7.52,1.06,10.94-1.19,1.3-.85,2.37-.98,3.52.2,2.7,2.76,6.16,3.31,9.7,2.73,4.31-.71,8.23.21,12.14,1.82,2.66,1.1,5.38,1.66,8.18.32,3.97-1.9,4.09,2.99,6.55,3.77-.08.2-.21.37-.37.51Z"/>
  <path class="cls-2" d="M339.14,234.53c.32-5.66.98-11.42-4.89-15.28,1.64-1.01,2.82-2.01,4.17-2.45.9-.29,2.24-.58,2.94.95,1.47,3.25,4.62,4.18,7.56,1.7,3.8-3.21,7.8-2.76,11.91-1.58,1.95.56,4.61,1.23,2.71,5.03,2.38-2.79,4.34-4.83,6.82-1.14l.03-.03c-2.45-.22-2.08,1.44-1.95,2.93l-.26.25c-6.58-1.43-13.02-3.84-19.93-3.03-1.07.12-2.31-.46-3.69,1.17,5.41-.39,10.31-.27,14.98,1.48l-.19.28c-4.74-.02-9.49.06-14.23-.1-2.76-.09-1.2,1.15-.82,2.1-.7.21-1.74-.1-1.8,1.12-.03.58.29.88.86.81,1.22-.15.74-1.21.97-1.89,1.37,2.37.89,3.65-1.88,4.94,0,0-.13-.12-.13-.12-.15-.42-.17-1.07-.46-1.21-.89-.44-.98.36-1.11.94-.25,1.19.17,2.56-.94,3.52-.23-.13-.46-.26-.69-.39ZM355,219.55c-.37-.99-1.28-.95-2.03-.94-.61,0-1.42.23-1.24,1.12.22,1.09,1.22.89,1.97.85.58-.03,1.37-.07,1.3-1.03ZM358.99,220.02c-.29-.06-.58-.22-.81-.15-.46.13-.48.42-.06.67.12.07.35.13.43.07.18-.15.29-.37.45-.58Z"/>
  <path class="cls-2" d="M247.47,222.68c-6.6-2.07-12.96-.43-19.27,1.38-1.6.46-3.02,1.36-4.33-.57-.65-.95-1.16-1.69.1-2.35,1.85-.97,3.43-2.21,4.86-3.74.97-1.03,2.41-.65,2.96.47,1.05,2.16,1.68,4.28,3.88.77.61-.97,1.14.1,1.68.74,1.54,1.8,3.16,2.51,4.16-.55.31-.12.62-.22.94-.3,1.38-.01,2.75-.03,4.13-.04.33.11.67.23,1,.34,1.63,2.92,3.25,3.02,4.88,0,.51-.33,1.73-.08,1.22-1.28-.39-.93-1.25-.54-1.97-.45,1.88-2.79,5.01-2.67,7.79-3.36,0,0,.03.03.03.03.03.61.05,1.22.08,1.84,0,0-.16.22-.16.22-.19.25-.6.66-.55.72,3.28,4.39-1.74,5.72-3.07,8.39l-.35-.19v-2.61c-1.74,1.69-2.49,3.39-2.8,5.12-.32,1.82-1.13,2.87-2.88,2.46-1.97-.47-1.15-1.96-.65-3.14.77-1.82.68-3.22-1.56-3.76l-.12-.13ZM228.48,221.74c-.17-.19-.33-.4-.53-.57-.02-.02-.35.2-.33.28.05.26.18.51.28.76.19-.16.39-.31.58-.47Z"/>
  <path class="cls-1" d="M187.4,376.91c-3.05,3.04-1.1,6.87-1.57,10.31-.26,1.93.21,4.09-2.98,4.45,0-6.75.25-13.35-.09-19.92-.21-4.08,1.52-4.43,4.64-3.51,0,2.89,0,5.78,0,8.67Z"/>
  <path class="cls-2" d="M335.32,288.78c-8.03-.73-16.09-1.28-24.09-2.23-13.4-1.6-26.72-.57-40.03.84-6.21.66-12.39,1.59-18.58,2.39-.12-.14-.21-.3-.28-.48,5.48-2.61,11.51-2.82,17.32-3.43,21.77-2.32,43.53-2.25,65.14,1.88.29.06.53.37.79.56-.07.17-.16.33-.27.48Z"/>
  <path class="cls-2" d="M248.1,280.37c19.63-4.85,39.55-6.35,59.71-4.63-19.96.87-39.99.72-59.71,4.63Z"/>
  <path class="cls-2" d="M370.36,221.75c4.15-.57,6.03,3,8.81,4.9.53.36.19,1.57,1.15,1.98,3.93,1.68,3.53,3.34.07,5.23-.88.48-1.36,1.69-2.77,3.56-.68-6.69-6.13-8.66-9.43-12.52,0,0,.26-.25.26-.25,2.39.18,1.84-1.6,1.95-2.93l-.03.03Z"/>
  <path class="cls-2" d="M284.32,214.06c-6.22-.69-12.44-.92-18.68-.18,0,0-.19-.27-.19-.27,1.32-.85-1.21-2.81,1.25-3.58,5.46-1.7,5.42-1.84,9.55,1.88,1.09-1.47-.67-4.98,2.49-4.65,2.95.31,2.41,2.87,1.52,5.34,2.97-.46,4.49-3.84,7.22-1.86,0,0,.01-.02.01-.02-1.52.4-1.85,1.97-2.84,2.9-.14.12-.25.27-.34.43Z"/>
  <path class="cls-2" d="M188.67,313.72c-1.19,1.35-3.54,2.45-.34,4.34,1.43.85,1.39,2.22-.58,2.79-.11-.16-.25-.28-.42-.37-.3-2.83-2.52-1.58-3.85-1.6-7.28-.13-14.57-.25-21.84.02-3.22.12-1.84-1.78-2.29-3.24-.83-2.71.88-2.21,2.26-2.21,8.93-.06,17.87-.08,26.8-.12,0,0,.25.39.25.39ZM173.09,317.41c3.47,0,6.95.01,10.42,0,.84,0,1.73-.15,1.78-1.23.05-1.09-.8-1.32-1.66-1.32-6.94-.02-13.89-.02-20.83-.01-.84,0-1.77.13-1.77,1.22,0,1.43,1.19,1.34,2.15,1.35,3.31.03,6.61.01,9.92,0Z"/>
  <path class="cls-2" d="M295.74,282.9c-2.58-.68-6.97,1.31-6.99-2.59-.02-4.38,4.53-2.61,7.12-2.63,2.73-.02,7.59-1.77,7.28,2.97-.26,3.98-4.93,1.32-7.4,2.26Z"/>
  <path class="cls-2" d="M252.62,489.39c5.01-.16,9.44,2.28,14.25,3.14,6.47,1.15,12.87,2.47,19.46,2.85,1.92.11,4.43-.55,5.64,1.96-12.9-.05-25.39-2.48-37.6-6.5-.74-.24-1.67-.37-1.75-1.45Z"/>
  <path class="cls-2" d="M344.85,280.82c-9.25-1.3-18.5-2.6-28.82-4.05,4.92-1.48,23.27,1.05,28.82,4.05Z"/>
  <path class="cls-2" d="M326.19,284.16c-1.97-.2-3.99-.22-5.9-.68-1.18-.29-2.64-1.12-2.14-2.73.41-1.35,1.9-1.51,2.95-.99,1.74.85,3.52.82,5.34.89,1.35.06,3.4-.63,3.11,1.88-.22,1.89-1.72,2.19-3.36,1.64Z"/>
  <path class="cls-2" d="M262.96,282c2.18-2.73,5.83-.62,8.47-2.28,1.08-.68,3.39.85,2.92,1.6-1.83,2.93-5.63.67-8.22,2.46-.84.58-2.62.05-3.16-1.78Z"/>
  <path class="cls-2" d="M381.1,243.54c.77-1.43-1.35-5.86,3.48-3.23.83.46,2.8-.14,2.32,1.77-.3,1.2-1.38,1.87-2.74,1.47-.83-.24-1.63-.61-1.59.77.03.85.99,2.3-.71,2.15-1.99-.17-.32-1.84-.77-2.93Z"/>
  <path class="cls-2" d="M303.94,497.34c.2-1.47,1.35-1.82,2.51-1.92,4.09-.37,8.19-.66,12.28-.98-4.38,3.78-9.8,2.25-14.79,2.9Z"/>
  <path class="cls-2" d="M259.5,213.73c1.9-4.01,3.93-1.48,5.94-.11,0,0,.19.26.19.26-1.94,1.05-3.35,3.79-6.19,1.94,0,0,.16-.22.16-.22.62-.17,1.12-.53.92-1.2-.09-.29-.65-.43-1-.63l-.03-.03Z"/>
  <path class="cls-2" d="M247.59,222.81c-2.5,4.32-6.34.14-9.28,1.68,2.65-2.94,6.12-1.11,9.15-1.81,0,0,.12.13.12.13Z"/>
  <path class="cls-2" d="M336.37,234.69v-10.35c2.43,4.32,2.51,7.42.08,10.43l-.08-.08Z"/>
  <path class="cls-2" d="M352.56,278.32c1.83.02,3.5.47,2.79,2.76-.78,2.48-2.78,2.4-4.58,2.08-1.39-2.46,6.4-.61,1.42-4.32.17-.14.29-.31.37-.51Z"/>
  <path class="cls-2" d="M311.31,215.55c3.62-1.82,7.35-.71,11.07.27h-10.88l-.19-.27Z"/>
  <path class="cls-2" d="M269.35,215.54c3.62-1.81,7.34-.7,11.05.27h-10.87l-.18-.27Z"/>
  <path class="cls-2" d="M191.72,302.6c1.42,3.02,1.4,6.05.01,9.07-.18-.12-.35-.26-.5-.41,0-2.76.01-5.52.02-8.28.14-.14.3-.27.47-.39Z"/>
  <path class="cls-2" d="M255.82,224.93c-.16,2.73-.33,5.46-.49,8.18-.81-2.85-1.92-5.7.14-8.38,0,0,.35.19.35.19Z"/>
  <path class="cls-1" d="M384.26,252.45c-1.27.49-2.31.4-2.73-1.14,0,0-.09-.09-.09-.09.95-.02,1.9-.03,2.85-.05,0,.43-.02.86-.02,1.28Z"/>
  <path class="cls-2" d="M376.25,252.84c-1.23-.92-1.84-2.05-1.21-3.82,1.92.64,1.31,2.34,1.72,3.52-.19.06-.36.16-.5.3Z"/>
  <path class="cls-2" d="M335.59,288.3c1.43.15,2.86.31,5.43.59-2.76,1.1-4.29,1.45-5.71-.11.12-.14.21-.3.27-.48Z"/>
  <path class="cls-1" d="M251.71,217.09c.71-.09,1.57-.48,1.97.45.51,1.2-.71.95-1.22,1.28-.93-.29-.83-1.01-.75-1.73Z"/>
  <path class="cls-2" d="M252.62,289.78c-1.09,1.38-2.34,1.32-3.78.48.99-1.22,2.34-.72,3.51-.96.07.17.16.33.28.48Z"/>
  <path class="cls-1" d="M242.45,218.53c-.32.08-.64.18-.94.3-.67-.26-1.03-.79-.75-1.43.12-.28.75-.33,1.15-.48.18.54.36,1.08.54,1.62Z"/>
  <path class="cls-1" d="M247.58,218.83c-.33-.11-.67-.23-1-.34,0-.83.03-1.93,1.19-1.45.95.39.79,1.28-.19,1.79Z"/>
  <path class="cls-1" d="M209.64,235.62c-.35.4-.7.8-1.04,1.2-.7-.22-1.12-.75-.73-1.36.56-.88,1.25-.65,1.78.17Z"/>
  <path class="cls-1" d="M207.54,240.62c1,.33.93,1.11.79,1.91-.53-.16-1.33-.17-1.54-.53-.33-.54.07-1.14.75-1.38Z"/>
  <path class="cls-2" d="M359.54,224.53c.78.17,1.57.34,2.35.51-.15.21-.27.56-.46.61-.87.22-1.62.03-2.08-.84,0,0,.19-.28.19-.28Z"/>
  <path class="cls-2" d="M287.29,218.05l-2.27-.69c.15-.21.27-.54.46-.6.89-.24,1.55.16,2.03.91,0,0-.22.38-.22.38Z"/>
  <path class="cls-2" d="M311.5,215.82c-.74,1.09-1.62,1.26-2.68.42.67-.92,1.65-.56,2.49-.7,0,0,.19.27.19.27Z"/>
  <path class="cls-2" d="M269.53,215.81c-.74,1.07-1.61,1.28-2.68.43.68-.91,1.66-.56,2.5-.7,0,0,.18.27.18.27Z"/>
  <path class="cls-2" d="M349.36,281.18c-.63.26-1.06.58-1.46.56-.42-.02-.82-.38-1.22-.59.4-.2.8-.55,1.21-.56.41-.01.84.32,1.47.59Z"/>
  <path class="cls-2" d="M249.62,488.38c1.17-.32,2.39-.83,2.88.94-1.16.29-2.39.82-2.88-.94Z"/>
  <path class="cls-2" d="M245.26,281.89c-.5-.22-.91-.4-1.31-.58.28-.24.55-.66.85-.69.41-.04.84.23,1.26.37-.24.28-.49.56-.79.9Z"/>
  <path class="cls-2" d="M384.28,251.17c-.95.02-1.9.03-2.85.05.91-2.11,1.86-2.11,2.85-.05Z"/>
  <path class="cls-2" d="M364.35,225.81c.19.18.37.35.55.52-.28.09-.56.22-.85.25-.1.01-.23-.2-.35-.31.22-.15.43-.31.65-.46Z"/>
  <path class="cls-2" d="M265.14,217.11c-.22.19-.42.48-.6.47-.22-.01-.43-.28-.64-.44.12-.11.25-.32.35-.31.29.04.56.17.89.28Z"/>
  <path class="cls-2" d="M358.1,278c-.18.2-.31.4-.5.51-.1.06-.31,0-.44-.07-.45-.23-.44-.51.05-.62.25-.06.55.1.89.18Z"/>
  <path class="cls-2" d="M305.34,217.61c.26-.68.77-.93,1.46-.76.13.03.22.21.33.32-.52.25-1.03.49-1.55.74,0,0-.25-.3-.25-.3Z"/>
  <path class="cls-2" d="M219.37,263.85c-.61-.37-1.23-.75-1.84-1.12,0,0,.22-.34.22-.34.8.14,1.6.26,1.92,1.17l-.3.29Z"/>
  <path class="cls-2" d="M371.27,265.56c.27-.17.53-.33.8-.5-.17.28-.34.55-.51.83,0,0-.29-.33-.29-.33Z"/>
  <path class="cls-2" d="M336.45,234.77l-.24.34c.05-.14.11-.28.16-.42,0,0,.08.08.08.08Z"/>
  <path class="cls-2" d="M220.39,264.89c-.34-.35-.67-.69-1.01-1.04,0,0,.3-.29.3-.29.33.35.65.7.98,1.04l-.27.29Z"/>
  <path class="cls-2" d="M362.45,275.77c-.22.21-.61.6-.63.59-.7-.64.02-.68.39-.87,0,0,.23.28.23.28Z"/>
  <path class="cls-2" d="M360.22,277.19c-.1.08-.23.24-.34.24-.11,0-.22-.19-.32-.29.12-.09.25-.26.36-.25.11,0,.21.2.31.31Z"/>
  <path class="cls-2" d="M405.2,320.74c-.16-.3-.32-.6-.49-.91.26.21.51.43.77.64,0,0-.28.27-.28.27Z"/>
  <path class="cls-2" d="M335.24,241.97c-.5-.13-.9-.5-.49-.92.43-.44.76.01.91.48-.16.12-.3.27-.42.44Z"/>
  <path class="cls-1" d="M378.84,346.87c0,13.47-.1,26.94.07,40.41.04,3.28-.92,4.19-4.2,4.15-15.3-.17-30.6-.11-45.9-.04-2.56.01-3.9-.15-4.47-3.44-2.45-14.12-9.69-24.19-24.79-26.63-2.06-.33-1.81-1.49-1.81-2.77-.01-17.96.04-35.92-.06-53.88-.02-2.62,1.12-2.94,3.29-2.93,24.78.05,49.56.1,74.33-.05,3.54-.02,3.58,1.68,3.57,4.26-.07,13.64-.03,27.27-.03,40.91ZM335.14,320.07c-2.93.66-4.47-1.05-6.19-2.24-1.14-.79-2.36-.78-3.2-.03-1.26,1.14.05,2.11.77,2.88,1.35,1.44,2.7,3.28,4.88,3.11,3.13-.24,1.35,2.61,2.44,3.78.87.93-1.44,1.4-2.65,1.68-4.09.96-6.82-1.88-10.02-3.47-2.26-1.12-3.42-2.5-2.14-5.11,1.31-2.67.51-4.76-2.8-6.73.77,8.94-7.45,1.44-9.62,6.18,2.85,1.21,4.66,2.56,1.14,5.52-1.69,1.42-1.41,3.15,1.82,2.75,3.1-.38,5.96.63,7.03,4.1.66,2.13,2.35,2.63,4.13,3.51,1.54.76,4.37,1.81,3.74,3.95-.93,3.17-5.69,3.75-8.31,1.49-1.54-1.33-3.36-1.62-5.02-.4-2.13,1.56-.61,2.29.86,3.03.41.21,1.21.89.3,1.45-5.3,3.27-2.76,4.01,1.34,4.75.75.14,1.03,2.28,1.77,3.32.81,1.15,2.59,2.03,2.92.21.8-4.36,2.48-6.32,7.35-6.2,2.21.06,4.52-4.57,7.14-.67,1.75,2.61,5.73,2.72,6.58,6.26-3.15.4-6.75-1.04-8.42,2.98-1.11,2.68-.77,5.08.88,7.52.42.62,3.42,1.16.84,2.67-1.51.88-2.7-.28-2.93-1.67-.68-4.22-3.79-4.39-6.21-2.83-3.11,2.01,2.94,2.02,1.36,4.23-.33.04-.84.03-1.32.16-1.67.44-3.42,1.11-3.33,3.12.12,2.66,2.35.86,3.52,1.18,1.78.5,2.49,1.21,2.42,3-.05,1.11.72,1.87,1.73,2.17,1.44.43,1.7-.94,1.92-1.72.94-3.4,3.57-2.26,5.69-2.16,5.7.27,5.82.09,5.14-5.52-.19-1.61-2.03-4.36,1.35-4.77,3.5-.42,2.27,2.81,2.27,4.3-.02,3.85,1.07,5.82,5.21,4.55,1.3-.4,2.54-.36,2.72,1.08.17,1.31-.95,2.03-2.3,2.01-.99,0-1.99-.16-2.98-.17-1.29-.01-2.29.59-2.73,1.79-.72,1.96.8,1.59,1.9,1.79,1.81.33,1.11,1.72.97,2.77-.88,6.8,6.8-.61,7.14,4.27.01.16,1.4.53,1.72.28.38-.31.22-1.22.44-1.82,1.57-4.38-1.41-9.45,2.26-13.64.85-.97-1.34-1.87-2.17-2.8-2.88-3.24-2.57-7.41.54-8.92,7.3-3.55,8.97-7.4,6.2-14.72-2.13-5.6-2.85-11,.99-16.26,1.33-1.82,2.96-3.71,2.73-6.21-.14-1.55,1.91-3.78-.02-4.37-1.61-.5-4.06.55-5.41,2.26-.77.99-1.71,2.05-1.48,3.54.92,5.86-4.31,11.2-1.26,17.41.84,1.72,1.97,3.47,2.37,5.5.64,3.25.62,5.98-2.59,8.07-3.59,2.33-5.93.43-8.19-1.97-4.49-4.77-4.15-8.87.55-13.77,1.25-1.3,4-2.31,2.03-5.44-1.9-3.01-.9-6.7-.35-9.95.5-3.02,4.3-.03,5.76-2.22-3.78-6.32-9.25-10.36-16.88-12.64,1.44,3.78.71,7.19-3,7.89-4.04.77-4.77,2.56-3.37,5.88Z"/>
  <path class="cls-3" d="M363.34,408.6c-3.31,4.62-7.75,6.43-7.54,12.09.07,2.04-2.62,5.1-4.67,5.25-3.59.26-5.15,2.59-7.3,4.53-.73.66-1.28,2.36-2.74,1.06-1.05-.94-.23-1.79.38-2.58,2.08-2.71,4.07-5.27,4.56-9.02.25-1.88,2.01-4.17,5.26-4.43,4.72-.38,5.78-5.39,9.07-8.39-3.75-2.21-5.64,2.38-8.83,1.71-1.8-.38-3.57.57-5.22-1.48-1.61-2-3.85-1.21-5.64.44-1.77,1.63-1.56,2.8.35,4.4,2.39,2,2.12,6.13.75,7.19-3.28,2.55-2.18,5.55-2.47,8.49-.09.96.13,2.21-1.2,2.37-1.8.21-1.61-1.29-1.65-2.39-.13-3.07.29-5.98-2.56-8.63-1.22-1.13-1.33-4.85.65-6.9,1.22-1.26,2.82-2.11.79-3.88-1.66-1.45-3.64-3.24-5.68-1.51-2.73,2.31-5.5,1.56-8.68,1.43.67-1.82,1.35-3.33,1.78-4.9.92-3.35,3.24-3.95,5.6-2.13,2.59,1.98,4.41,1.49,6.61-.3.85-.69,2.23-1.62,3.19-.84,3.7,3.02,7.17,2.41,11.22.53,1.73-.81,4.51-.86,6.59.95,2.05,1.78,4.26,1.46,6.3-.25,2.31-1.93,4.56-1.77,6.63.32,2.1,2.12,1.38,4.03-.35,6.11-1.96,2.37-2.34,5.21-.09,7.56,2.81,2.94,2.53,5.9.25,8.63-2.19,2.62-2.23,5.17-.29,7.5,2.13,2.55,2.09,4.69.03,7.06-1.32,1.53-1.95,3.2-.29,4.83,3.44,3.37,1.98,6.27-.73,9.08-1.73,1.79-2.71,4.08-1.89,6.3,1.64,4.46-.7,6.1-4.27,7.3-2.59.87-4.39,2.12-5.15,5.27-.77,3.2-4.08,4.54-7.1,3.57-3.23-1.03-5.43-.19-7.66,1.87-2.36,2.19-4.71,2.07-7.04-.12-2.21-2.08-4.5-2.59-7.7-1.76-3.31.87-6.8-.48-7.78-4.24-.81-3.09-2.68-4.43-5.38-5.14-3.18-.83-4.2-2.78-3.76-5.95.4-2.92.38-5.45-2.75-7.64-2.54-1.78-2.34-5.96-.29-7.86,2.46-2.28,2.24-3.67.42-5.68-2.2-2.42-1.92-4.57.11-7.04,1.92-2.34,2.49-5.01-.28-7.32-2.1-1.74-.56-2.72.88-3.07,2.41-.58,4.02-2.19,6.79-4.98-.62,3.94.96,6.33-2.22,8.86-2.06,1.64-1.46,4.87.85,7.02,2.05,1.91,4.08,2.64,6.47.47,2.98-2.71,6.16-2.68,9.12-.06.96.85,1.88,1.22,3.05,1.38,1.26.18,1.8,1.05,1.11,2.1-2.57,3.92-9.42,4.77-13.43,1.67-2.53-1.96-4.56-1.16-6.52.84-1.85,1.88-1.75,3.19.13,5.41,1.98,2.34,3.18,5.76.19,8.6-1.46,1.39-.49,2.47.22,3.47.83,1.17,2.21,1.07,3.01.09,1.45-1.76,4.15-2.53,3.54-5.95-.55-3.11,2.06-5.75,4.68-6.08,3.28-.41,5.05-2,6.78-4.3.73-.98,1.4-2.64,3.06-1.2,1.35,1.17.07,2-.5,2.95-1.43,2.38-3.79,3.98-3.53,7.65.13,1.84-2.71,4.91-5.91,5.19-3.12.28-4.71,2.6-5.91,4.8-1.88,3.44,0,5.92,4.03,6.58,2.88.48,5.71,1.3,7.43,4.19,1.51,2.53,4.47,2.45,5.57-.31,1.1-2.75,1.61-6.02-.48-8.5-2.83-3.37-2.74-6.24.08-9.47,2.22-2.54.58-5.75,1.04-8.62.19-1.19-.51-3.12,1.5-3.04,1.94.07,1.3,1.97,1.36,3.17.18,3.67-.61,7.29,2.57,10.57,1.11,1.14,1.43,4.65-1.14,7.09-2.76,2.63-2.06,6.43-.19,9.46,1.1,1.78,3.76,2.68,4.68.08,1.29-3.65,4.65-4.52,6.99-4.43,6.12.25,4.71-3.92,4.1-6.62-.6-2.63-2.26-5.38-6.1-5.22-3.2.14-5.52-3.08-5.18-4.92.67-3.69-1.9-4.95-3.28-7.18-.63-1.02-2.12-2.19-.52-3.42,1.41-1.09,2,.6,2.71,1.3,1.99,1.96,3.79,3.71,6.88,4.41,2.18.49,4.71,2.75,4.43,5.92-.25,2.84,2.13,3.97,3.4,5.8.73,1.05,2.22,1.27,3.07.31.9-1,1.78-2.26.48-3.88-2.55-3.17-2.94-6.16.59-9.25,1.77-1.55.69-3.58-.96-5.15-1.87-1.79-3.73-1.89-5.77-.44-4.44,3.15-10.5,2.45-13.2-1.55-.38-.57-.34-1.2.2-1.77,3.85-4.08,8.05-4.4,13.27-1.14,2.08,1.3,4,.96,5.76-.94,2.15-2.33,2.27-5.18.62-7.23-2.8-3.48-3.49-6.3.04-9.57,1.53-1.42.67-3.31.58-6.58Z"/>
  <path class="cls-3" d="M250.86,439.48c0-13.81.12-27.63-.08-41.44-.05-3.6,1.15-4.39,4.54-4.44,3.51-.05,4.04,1.32,4.02,4.38-.1,27.96-.09,55.92,0,83.88,0,2.95-.33,4.56-3.96,4.46-3.31-.08-4.65-.74-4.59-4.4.2-14.14.08-28.29.08-42.44Z"/>
  <path class="cls-1" d="M407.36,429.99c0-6.48.03-12.96-.01-19.43-.02-2.84.75-3.92,3.35-1.76,3.36,2.79,7.8,3.31,11.53,5.4,2.03,1.14,2.92,2.05,2.9,4.38-.11,10.46-.14,20.93.01,31.39.04,2.72-.9,3.46-3.43,3.27-4.6-.36-10.48,1.86-13.46-.87-2.8-2.56-.67-8.47-.86-12.9-.13-3.15-.03-6.31-.02-9.47Z"/>
  <path class="cls-1" d="M178.36,411.13c0,13.54-.06,26.14.05,38.75.02,2.56-.64,3.6-3.32,3.37-4.58-.39-10.49,1.86-13.42-.89-2.72-2.55-.7-8.47-.79-12.9-.13-5.8.19-11.63-.13-17.41-.16-2.89.91-4.83,3.21-5.78,4.59-1.89,9.35-3.36,14.4-5.13Z"/>
  <path class="cls-3" d="M240.58,482.88q-7.86-2.12-7.87-9.32c0-25.12.06-50.25-.07-75.37-.02-3.37.71-4.71,4.36-4.57,3.02.11,3.53,1.3,3.51,3.92-.09,11.65-.01,23.29,0,34.94.02,15.14.04,30.28.06,45.42,0,1.62,0,3.24,0,4.98Z"/>
  <path class="cls-3" d="M269.75,483.01v-80.88c4.69,7.7,8.58,15.42,7.94,25.41-.98,15.23-.56,30.58-.1,45.86.17,5.78-1.77,8.64-7.83,9.61Z"/>
  <path class="cls-3" d="M221.36,470.26c-.52-3.66-3.28-6.32-4.32-9.78-1.14-3.82-2.28-7.6-2.27-11.63,0-16.95.06-33.89-.06-50.84-.02-3.02.48-4.43,4-4.4,3.4.02,3.68,1.49,3.67,4.22-.08,22.93-.04,45.85-.06,68.78,0,1.29.34,2.69-.77,3.76,0,0-.19-.11-.19-.11Z"/>
  <path class="cls-1" d="M160.85,338.64c0-1-.07-2,.01-2.99.32-4.08-1.91-9.96.86-11.84,3.78-2.56,9.61-.58,14.55-.8,1.88-.09,2.11,1.06,2.11,2.55-.03,7.8-.01,15.6-.01,23.4,0,1.21,0,2.54-1.7,2.32-3.55-.44-6.71,1.48-9.85,2.32-5.7,1.53-6.35-.32-6.01-5.01.24-3.3.05-6.64.05-9.96Z"/>
  <path class="cls-1" d="M160.91,401.85c0-8.83.31-17.31-.13-25.75-.22-4.22,2-5.39,5.11-6.21,1.25-.33,2.64-.04,3.96-.17q8.53-.84,8.53,7.93c0,2.16,0,4.32,0,6.48,0,10.98-1.94,13.49-12.68,16.42-1.44.39-2.87.78-4.77,1.29Z"/>
  <path class="cls-1" d="M425.08,338.1c0,.33,0,.66,0,.99,0,15.12.01,15.07-14.99,11.82-2.01-.44-2.78-1.12-2.75-3.17.09-7.28.08-14.57,0-21.85-.02-2.09.72-2.76,2.86-2.94,14.89-1.26,14.88-1.32,14.88,13.67,0,.5,0,.99,0,1.49Z"/>
  <path class="cls-1" d="M425.08,398.79c-1.95-.36-3.77-.49-5.44-1.05-11.2-3.73-12.01-4.9-12.12-16.74-.03-3.48-.01-6.97-.18-10.45-.11-2.25.88-3.01,2.94-2.7,4.24.64,8.46,1.45,12.73,1.91,2.72.29,2.04,2.15,2.05,3.65.05,8.3.02,16.59.02,25.38Z"/>
  <path class="cls-3" d="M289.58,469.77c-1.21-1.39-1.04-3.08-1.04-4.74-.02-12.64-.08-25.28-.01-37.92,0-1.84-1.18-4.7,2.73-4.4,3.09.24,4.32,1.58,4.13,4.77-.6,10.26,1.04,20.6-1.18,30.8-.18.81-.2,1.66.57,2.26,0,0-.26.08-.26.08-2.2.53-2.49,1.96-1.81,3.85,0,0-.12.18-.12.18-1.52,0-1.44.78-.89,1.8,0,0-.12.19-.12.19-1.44.01-1.66.66-.93,1.8,0,0-.15.19-.15.19-1.01-.41-1.02.1-.78.84l-.15.3Z"/>
  <path class="cls-1" d="M186.1,407.69c0,14.14.02,28.07-.04,42,0,1.27.86,3.34-1.57,3.43-2.6.1-1.59-2.08-1.6-3.28-.08-12.61-.04-25.21-.06-37.82,0-2.03-.21-4.12,3.26-4.34Z"/>
  <path class="cls-3" d="M293.4,485.35c-.63-2.18-6.24-.53-3.85-5.02-.06-1.63-.13-3.26-.19-4.89,0,0,.08-.1.08-.1,1.25-.06,1.81-.79,1.94-1.95,0,0,.05-.05.05-.05,2.23-.02,3.76-1.19,4.94-2.96,0,0,.04-.28.04-.28,1.61,1.03,3.12,2.32,5.22,2.16l-.05.17c.04,1.45.85,1.38,1.85.94l.12.09c-.27.87.11,1.09.91.9l.1.1c.34,2.32.67,4.64,1.01,6.97,0,0-.06.12-.06.12-1.22.17-1.47.83-.95,1.88,0,0-.09.12-.09.12-1.73-.62-2.55.5-3.31,1.73-.95-.1-1.91-.21-2.99-.32,1.3-2.32,3.09-4.32,2.17-7.01-.58-1.68-1.15-4.05-3.22-3.93-2.58.15-1.82,2.71-1.89,4.39-.07,1.48-.12,3.11.41,4.43,1.06,2.65-.94,2.19-2.23,2.55Z"/>
  <path class="cls-3" d="M330.12,422.24c-.7,3.26,2.18,4.2,3.48,6.13.66.99,2.48,1.7,1.08,3.24-1.41,1.55-2.34.04-3.24-.82-2.22-2.12-4.12-4.26-7.58-5.04-2.21-.49-4.44-2.95-4.39-6.47.05-3.37.55-3.93,3.87-3.63,4.43.4,5.98,3,6.78,6.58Z"/>
  <path class="cls-1" d="M182.84,336.9c0-3.65-.04-7.3.02-10.96.02-1.19-.54-2.93,1.65-2.86,1.68.05,1.58,1.39,1.58,2.55,0,7.64,0,15.27,0,22.91,0,1.26-.15,2.39-1.79,2.36-1.86-.04-1.44-1.49-1.45-2.55-.04-3.82-.02-7.64-.02-11.45Z"/>
  <path class="cls-1" d="M429.56,435.1c0-5.14-.04-10.27.04-15.41.01-.69-.82-2.1.97-2.04,1.29.04,1.61.87,1.61,2,0,10.44,0,20.88,0,31.32,0,.93.19,2.14-1.29,2.16-1.52.03-1.3-1.2-1.3-2.12-.03-5.3-.01-10.61-.02-15.91Z"/>
  <path class="cls-1" d="M432.18,354.22c-2.73-.41-2.63-1.8-2.62-3.14,0-8.44-.02-16.88.02-25.32,0-1.03-.49-2.6,1.32-2.61,1.4-.01,1.26,1.27,1.27,2.22.02,9.56.01,19.11.01,28.85Z"/>
  <path class="cls-1" d="M432.12,402.28c-1.72-.88-2.66-1.6-2.63-3.48.14-8.1.03-16.2.1-24.3,0-.91-.79-2.68,1.23-2.51,1.59.14,1.29,1.63,1.29,2.75,0,9.09,0,18.18,0,27.54Z"/>
  <path class="cls-1" d="M180.21,452.95v-42.7h.74v42.7h-.74Z"/>
  <path class="cls-3" d="M296.53,393.13c2.71,2.4.59,7.46,5.35,8.13.47.07.22,1.65-1.24,2.4-2.77,1.41-5.44,1.18-8.14.51-1.69-.42-2.54-2.97-1.23-3.23,4.48-.87,3.03-5.14,5.27-7.81Z"/>
  <path class="cls-3" d="M430.63,368.13c-3.51.83-2.95-2.98-4.74-4.02-1.3.53-.66,3.49-2.73,2.65-1.73-.7-1.1-2.96-.47-3.95,1.31-2.07-1.19-7.85,5.31-5.37,3.43,1.3,6.41,1.38,2.05,5.29-1.97,1.77,1.35,3.44.57,5.4Z"/>
  <path class="cls-3" d="M311.06,386.35c-.65,3.25-4.42,1.37-5.31,3.76-1.84-.81-4.4-1.13-5.36-2.54-1.45-2.12,1.2-2.22,2.54-2.97,1.6-.89.36-2.75.96-4.06.39-.84.41-2.21,1.72-1.95.55.11,1.35,1.25,1.28,1.82-.43,3.3,1.96,4.62,4.17,5.94Z"/>
  <path class="cls-1" d="M426.89,452.95v-36.52c.18-.01.35-.02.53-.04v36.54c-.18,0-.35.01-.53.02Z"/>
  <path class="cls-3" d="M288.26,378.36c1.21,2.69,1.04,6.19,4.61,7.5.76.28.37,1.66-.69,2.34-2.97,1.9-5.88,1.3-8.78-.06-1.12-.52-1.17-2.32-.63-2.31,5.37.1,2.6-4.88,4.48-6.86.21-.22.55-.34,1-.61Z"/>
  <path class="cls-3" d="M157.67,370.24c-2.13-1.87-2.45-4.59-3.51-6.92-.79-1.73-.23-2.88,1.45-3.55,1.98-.79,3.98-1.96,6.05-.29.86.7,1.2,1.91.48,2.66-1.96,2.06-4.38,3.81-3.17,7.25.04.1-.75.49-1.31.85Z"/>
  <path class="cls-1" d="M426.95,352.97v-29.57c.25,0,.51,0,.76,0v29.6c-.25,0-.51-.02-.76-.03Z"/>
  <path class="cls-3" d="M433.53,368.52c2.55-1.69,5.1-3.4,7.67-5.08,1.32-.86,2.8-1.11,2.77.96-.03,2.96-.53,5.92-.92,8.87-.04.3-.82.83-1.01.73-.55-.27-1.37-.78-1.39-1.22-.18-5.12-3.33-4.81-7.13-4.27Z"/>
  <path class="cls-1" d="M427.68,371.08v28.84c-.23,0-.46,0-.69,0v-28.84c.23,0,.46,0,.69,0Z"/>
  <path class="cls-1" d="M180.23,350.86v-27.46c.24,0,.48,0,.72,0v27.46c-.24,0-.48,0-.72,0Z"/>
  <path class="cls-3" d="M409.98,364.69c-2.73.54-5.58,1.76-6.87-.28-1.46-2.32-.5-5.5-.35-8.3.05-.97.83-1.41,1.77-1.3,1.66.19,1.46,1.52,1.52,2.66.15,2.9-1.25,6.51,3.92,7.22Z"/>
  <path class="cls-1" d="M180.21,393.04v-24.66c.22,0,.45,0,.67,0v24.66c-.22,0-.45,0-.67,0Z"/>
  <path class="cls-3" d="M399.22,354.44c-1.21,3.82-2.13,6.83-3.13,9.82-.39,1.15-1.57,1.67-2.29.81-2.1-2.51-3.95-5.24-5.83-7.94-.11-.16.33-1.04.57-1.07.61-.06,1.5-.06,1.83.32,1.49,1.73,2.83,3.6,4.35,5.59,2.58-1.63,1.05-5.41,4.51-7.53Z"/>
  <path class="cls-3" d="M186.33,354.78c.5,4.11-2.32,6.37-3.08,9.39-.47,1.86-1.9.69-2.53-.25-1.39-2.06-2.65-4.2-3.86-6.37-.42-.75-1.46-1.79-.17-2.51.93-.52,1.91.1,2.59.93.11.13.2.27.31.39q3.61,4.23,6.74-1.58Z"/>
  <path class="cls-3" d="M246.64,294.54c11.14,1.41,22.07,4.43,33.37,4.67-11.44.67-22.61-.68-33.44-4.58,0,0,.07-.09.07-.09Z"/>
  <path class="cls-3" d="M412.26,354.85c1.3,0,2.62-.11,3.91.03,1.29.14,2.55.53,5.62,1.2-5.52.26-4.33,3.21-4.67,5.45-.22,1.46.63,3.93-1.89,3.74-2.67-.19-1.41-2.41-1.12-3.86.5-2.49.76-4.83-1.85-6.57Z"/>
  <path class="cls-3" d="M196.03,354.9c-1.75,1.2-3.26,2.22-.93,3.83,1.84,1.28,4.68,2.35,2.9,5.23-1.58,2.56-4.32,1.38-6.53,1.22-.47-.98-.11-1.16.47-1.1.32.04.62.23.93.31.99.27,2.1.47,2.62-.61.67-1.4-.46-2.07-1.49-2.66-1.61-.92-3.37-1.93-2.66-4.13.56-1.73,2.11-2.44,4.69-2.11Z"/>
  <path class="cls-3" d="M173.93,366.25c-1.9.15-5.12.98-5.47.32-1.33-2.56-1.78-5.59-2.46-8.47-.08-.32.35-.92.7-1.13.65-.4,1.43-.13,1.7.49.51,1.21.92,2.49,1.16,3.77.49,2.55,1.04,4.91,4.37,5.02Z"/>
  <path class="cls-3" d="M246.27,334.03c.12,2.1-.11,3.52-2.52,3.45-2.25-.06-2.61-1.55-2.91-3.22-.36-1.98.61-2.61,2.46-2.58,1.82.03,3.44.11,2.97,2.35Z"/>
  <path class="cls-3" d="M267.2,331.74c2.22-.13,2.24,1.32,2.21,2.92-.03,1.65-.33,2.82-2.42,2.83-2.51.01-2.35-1.66-2.47-3.31-.14-2.01.92-2.6,2.68-2.44Z"/>
  <path class="cls-3" d="M255.12,337.41c-2.5.19-2.35-1.41-2.42-2.91-.08-1.69.25-2.8,2.33-2.82,2.37-.01,2.6,1.31,2.47,3.17-.12,1.7-.55,2.93-2.38,2.56Z"/>
  <path class="cls-3" d="M158.68,457.48c2.3-1.96,5.04-.89,7.56-.95,6.75-.16,13.5-.06,20.25,1.09-9.24,0-18.49,0-27.73,0,0,0-.09-.13-.09-.13Z"/>
  <path class="cls-3" d="M248.23,322.08c-3.12,1.84-6.24,1.36-9.36,0h9.36Z"/>
  <path class="cls-3" d="M269.09,368.75c.09,1.24-.66,1.5-1.52,1.47-.91-.03-2.08.4-2.57-.75-.42-1,.27-1.56,1.2-1.54,1.03.02,2.33-.56,2.89.82Z"/>
  <path class="cls-3" d="M273.14,370.25c-.95-.07-2.21.23-2.24-1.23-.02-1.07.98-1.14,1.83-1.12.96.02,2.22-.16,2.27,1.22.03,1.01-.99,1.14-1.85,1.13Z"/>
  <path class="cls-1" d="M301.63,472.25c.53-.55.59-2.38,1.85-1.06,1.17,1.23,2.75,2.29,2.99,4.23,0,0-.02.02-.02.02-.74-.12-.84-1.46-1.89-1.01,0,0-.1-.1-.1-.1.22-.82-.12-1.08-.91-.9,0,0-.12-.09-.12-.09-.14-1.25-.87-1.33-1.85-.94l.05-.17Z"/>
  <path class="cls-3" d="M292.47,213.77c4.34-3.24,7.67-1.92,8.9,3.08,1.53,6.2.28,12.69,2.82,18.86,1.56,3.81.37,4.85-4.38,7.26.5-3.77,3.62-7.83-1.32-10.54-.25-.24-.51-.49-.76-.73-.02-.58-.05-1.16-.07-1.74.16-.3.31-.6.47-.9-.29.16-.58.33-.88.49-2.12-.32-3.16.45-2.72,2.7-.01.37-.21.55-.58.55-2.55-2.68-1.54-6.04-.92-8.82.62-2.78,3.26.95,5.1-.54,2.06-1.67-3.33-3.5.29-4.57,1.42-.42,2.08-.72,1.53-2.26-.52-1.47-1.12-2.87-2.91-2.94-1.48-.06-2.96.13-4.45.21l-.11-.08Z"/>
  <path class="cls-3" d="M293.61,235.67c.04,2.39-2.18,5.56,3.06,5.78,1.92.08,1.84,4.34,4.37,5.77.53.3-.6,4.81-2.17,4.72-1.94-.12-4.91,1.61-6.04-1.09-.59-1.4-4.26-3.54.08-5.22,1.36-.52.57-1.59-.12-2.34-1.1-1.2-2.22-2.4-3.33-3.6l.1-.07c3.91-.89,1.35-3.85,1.87-5.82,0,0,.09-.1.09-.1.79.52.64,1.97,1.97,1.95l.12.03Z"/>
  <path class="cls-3" d="M292.27,256.11c.15,3.8-4.02,3.18-5.62,5.23-2.15-1.86-6.74-2.86-6.39-5,.37-2.25,4.4-4.06,7.35-4.32,2.02-.18,4.69.77,4.66,4.09Z"/>
  <path class="cls-3" d="M300.67,256.15c-.32-3.29,2.34-4.37,4.38-4.03,2.56.42,6.32,1.84,6.36,4.42.03,2.11-3.31,4.48-6,4.61-2.79.14-4.96-1.63-4.75-5Z"/>
  <path class="cls-3" d="M335.92,255.64c-5.5,1.53-3.52-3.93-5.57-5.44,2.12-1.35,4.23-2.7,6.35-4.05,1.15,2.06,3.03,4.05,3.23,6.21.17,1.83-1.71,3.67-4.01,3.28Z"/>
  <path class="cls-3" d="M238.03,263.3c-2.05,2.39-2.86,5.96-7.24,5.27-1.83-.29-3.72-.31-4.7-2.01-.68-1.17.48-2.15,1.29-2.96,1.53-1.53,3.47-3.49,5.47-2.04,1.64,1.19,3.42.77,5.18,1.73Z"/>
  <path class="cls-3" d="M342.08,264.54c-2.15-.09-4.45.08-4.25-2.5.18-2.33.54-5.44,3.99-5.02,2.7.32,5.73,2.74,5.81,4.69.12,2.9-3.8,1.92-5.54,2.84Z"/>
  <path class="cls-3" d="M355.12,262.94c2.97,1.15,5.42-2.64,8.54-.5,1.22.84,2.79,1.46,2.53,3.26-.19,1.31-.91,2.65-2.45,2.67-1.82.02-5.16.85-5.17-.63-.02-3-3.71-1.6-3.46-4.8Z"/>
  <path class="cls-3" d="M256.34,246.33c1.09,3.18,7.65,3.8,4,8.41-1.11,1.4-3.92,1.58-5.86.1-5.12-3.91,1.55-5.58,1.86-8.51Z"/>
  <path class="cls-3" d="M272.04,256.75c-2.4,2.13-2.37,7.61-7.19,5.22-1.97-.98-3.21-3.53-1.88-5.55,3.15-4.78,5.94.72,9.07.33Z"/>
  <path class="cls-3" d="M320.07,257.59c1.31-2.53,4.46-.97,6.06-3.08.4-.53,3,.31,3.69,1.72.73,1.48.79,3.27-.78,4.46-1.41,1.06-4.26,1.36-4.49.47-.69-2.67-3.85-1.11-4.48-3.56Z"/>
  <path class="cls-3" d="M244.27,261.42c3.6-1.19,4.84-6.87,8.71-3.62,4.2,3.53,1.41,6.01-2.8,6.04-.82,0-3.19-.95-5.91-2.43Z"/>
  <path class="cls-3" d="M220.65,264.6c-.33-.35-.65-.7-.98-1.04-.32-.92-1.12-1.04-1.92-1.17-.75-1.59-4.51-.74-3.47-3.1.91-2.06,3.5-1.43,5.74-.77,2.23.66,4.45.52,4.43,3.85-.02,3.27-1.18,3.79-3.8,2.24Z"/>
  <path class="cls-3" d="M289.46,239.69c-1.18-5.98.27-11.89.78-17.78.23-2.65-1.03-6.16,2.22-8.14,0,0,.11.08.11.08-1.08,6.58-1.7,13.18-1.06,19.85,0,0-.09.1-.09.1-1.69,1.6-1.78,3.71-1.87,5.82l-.1.07Z"/>
  <path class="cls-1" d="M293.95,232.79c.38,0,.57-.18.58-.55,1.07-.18,2.14-.37,3.2-.55.25.24.51.49.76.73.14,3.73-1.06,5.46-4.88,3.25,0,0-.12-.03-.12-.03.15-.95.31-1.91.46-2.86Z"/>
  <path class="cls-3" d="M339.83,234.92c1.11-.96.69-2.33.94-3.52.12-.58.22-1.39,1.11-.94.28.14.31.8.46,1.21-1.5.56-1.13,1.72-.81,2.78.36,1.19-.63,1.24-1.22,1.64-.16-.39-.31-.78-.47-1.17Z"/>
  <path class="cls-3" d="M284.65,213.63c.99-.92,1.32-2.49,2.84-2.9.18,2.07-.4,3.39-2.84,2.9Z"/>
  <path class="cls-3" d="M310.58,212.46c-.48-.09-.95-.28-.68-.85.24-.52.67-.95,1.02-1.42.24.33.65.65.67,1,.05.63-.19,1.24-1.01,1.27Z"/>
  <path class="cls-3" d="M209.59,247.72c.31.55.56.87.65,1.23.03.09-.47.49-.63.44-.36-.11-.65-.42-.97-.65.26-.28.52-.56.95-1.03Z"/>
  <path class="cls-3" d="M214.12,231.24c-.1-.28-.31-.56-.27-.8.04-.23.34-.57.53-.58.53-.01.85.29.49.83-.16.24-.49.36-.76.55Z"/>
  <path class="cls-3" d="M316.2,210.04c.29.37.55.72.82,1.07-.23.14-.47.4-.7.4-.51,0-.95-.25-.81-.86.05-.21.38-.35.69-.61Z"/>
  <path class="cls-3" d="M365.29,271.78c-.45-.14-.89-.29-1.34-.43.1-.13.26-.37.28-.36.39.21.76.45,1.14.68,0,0-.08.11-.08.11Z"/>
  <path class="cls-3" d="M438.38,463.54q-.63,8.71-9.73,8.72c-7.65,0-15.3-.13-22.95.06-3.15.08-4.34-.7-4.33-4.1,0-3.46.99-4.56,4.49-4.53,10.79.09,21.58-.16,32.37-.27,0,0,.14.13.14.13Z"/>
  <path class="cls-1" d="M405.68,484.46c3.14.16,5.22.24,7.3,1.11,4.44,1.87,9.06,1.97,13.48,0,6.09-2.72,11.62.24,17.32,1.4.34.07.75.74.79,1.16.07.76-.51,1.21-1.24,1.2-1.31-.03-3.05.34-3.86-.35-5.41-4.59-10.69-2.51-15.88.11-3.75,1.89-6.96,2-10.39-.81-2.32-1.9-5.34-2.48-8.34-1.72-2.38.61-4.67,1.57-7.02,2.28-1.04.31-2.56.94-2.99-.49-.53-1.8,1.2-1.54,2.26-1.65,3.29-.32,6.01-3.04,8.56-2.26Z"/>
  <path class="cls-1" d="M407.49,476.63c2.34-.25,4.34.54,6.37,1.29,3.87,1.43,7.89,1.58,11.66.01,5.8-2.41,11.34-1.18,16.95.42,1.16.33,2.5.59,2.03,2.16-.34,1.16-1.63.87-2.59.88-.66,0-1.56.17-1.95-.18-5.23-4.7-10.58-2.49-16.07-.57-2.83,1-5.93,1.07-8.75-.2-5.45-2.44-10.83-2.65-16.26-.07-1.36.64-3.48,1.59-3.93.12-.74-2.39,1.85-1.42,3.05-1.85,3.11-1.12,6.13-2.62,9.48-2.02Z"/>
  <path class="cls-3" d="M172.86,472.25c-4.98,0-9.96-.08-14.94.04-2.43.06-3.33-.95-3.11-3.24.21-2.15-.85-5.16,2.84-5.2,10.46-.1,20.92-.09,31.38-.02,3.69.02,2.16,3,2.38,4.84.23,1.86.24,3.68-2.61,3.61-5.31-.12-10.62-.03-15.94-.03Z"/>
  <path class="cls-1" d="M160.32,476.6c2.51-.1,4.59.23,6.61,1.11,4.76,2.08,9.71.44,13.85-1.04,3.49-1.25,6.15-1.23,9.24-.16,1.85.65,3.63,1.51,5.48,2.16,1.11.39,3.2-.26,2.56,1.86-.35,1.16-2.04.76-3.07.25-5.98-3-11.64-3.03-17.55.63-2.68,1.67-5.7,1.54-8.98-.74-4.13-2.87-9.26-3.06-14.17-.93-1.34.58-2.77,1-4.19,1.35-.67.16-1.36-.22-1.26-1.05.05-.4.48-1.06.78-1.08,3.81-.23,7.02-3.16,10.69-2.35Z"/>
  <path class="cls-1" d="M159.3,484.37c2.99.33,4.79.22,6.57.9,4.61,1.75,9.19,2.2,13.74-.54,3.87-2.33,7.8-.96,11.64.44,1.54.56,3.1,1.1,4.68,1.52,1.05.27,2.78-.05,2.18,1.72-.46,1.37-1.97.78-3.01.38-3.54-1.36-7.04-3.17-10.94-2.17-1.61.41-3.2.82-4.79,2.06-2.99,2.34-6.52,2.73-10.3.23-4.44-2.94-9.54-3.36-14.64-1.28-1.22.5-2.41,1.07-3.67,1.41-.72.19-1.74.32-1.92-.88-.11-.77.37-1.32,1.09-1.35,3.66-.15,6.71-3.06,9.36-2.45Z"/>
  <path class="cls-3" d="M420.18,311.4c-4.65,0-9.31-.18-13.95.06-3.09.16-4.15-.9-3.97-3.95.16-2.57-.3-4.89,3.68-4.79,9.3.24,18.61.21,27.91,0,3.72-.08,3.31,2.12,3.41,4.5.1,2.64-.1,4.48-3.62,4.24-4.47-.3-8.97-.07-13.45-.07Z"/>
  <path class="cls-3" d="M419.75,317.41c-3.31,0-6.62.02-9.93,0-.95,0-2.15.09-2.14-1.35,0-1.09.94-1.22,1.77-1.22,6.95-.01,13.9,0,20.86.01.87,0,1.71.26,1.66,1.33-.05,1.08-.95,1.21-1.79,1.22-3.48.02-6.95,0-10.43.01Z"/>
  <path class="cls-3" d="M433.29,313.29h-26.84c0-.1,0-.19,0-.29h26.84c0,.1,0,.19,0,.29Z"/>
  <path class="cls-2" d="M293.4,485.35c1.29-.35,3.28.11,2.23-2.55-.53-1.33-.48-2.96-.41-4.43.08-1.68-.69-4.25,1.89-4.39,2.07-.12,2.64,2.25,3.22,3.93.92,2.69-.86,4.69-2.17,7.01,1.08.12,2.03.22,2.99.32.19.13.36.29.49.48-.23,1.29-2.5.28-2.51,2.83,1.57-1.55,3.67-1.04,4.31-3.1l.06-.04c8.87-1.42,10.48-1.29,14.87,1.33-3.75,3.38-7.82,5.29-12.98,4.98-2.51-.15-5.71-1.51-7.18,2.35-.29.75-2.36,1.08-2.55.26-.93-4.06-4.02-2.4-6.24-2.47-5.28-.17-8.91-3.06-12.75-7.1,6.88-1.68,12.8-.68,18.3,3.32.41-1.92-2.3-1.02-1.57-2.73Z"/>
  <path class="cls-2" d="M289.35,475.44c.06,1.63.13,3.26.19,4.89-1.06.67-1.92.45-2.05-.81-.17-1.64-.32-3.44,1.86-4.09Z"/>
  <path class="cls-2" d="M296.36,470.37c-1.18,1.77-2.71,2.95-4.94,2.96-.69-4.89,2.31-3.61,4.94-2.96Z"/>
  <path class="cls-2" d="M304.55,474.44c1.05-.45,1.15.88,1.89,1.01-.19,2,1.73,4.31-.88,5.96-.34-2.32-.67-4.64-1.01-6.97Z"/>
  <path class="cls-2" d="M292.72,464.47c-.68-1.89-.39-3.31,1.81-3.85.56,1.83.34,3.29-1.81,3.85Z"/>
  <path class="cls-2" d="M301.14,485.25c.76-1.23,1.58-2.35,3.31-1.73.39.99-.79,1.19-.96,1.89,0,0-.06.04-.06.04-.6.09-1.2.18-1.8.28-.13-.19-.3-.35-.49-.48Z"/>
  <path class="cls-2" d="M291.37,473.38c-.13,1.17-.7,1.9-1.94,1.95-.51-1.8-.07-2.66,1.94-1.95Z"/>
  <path class="cls-2" d="M304.55,483.41c-.52-1.05-.26-1.71.95-1.88.63,1.11.34,1.75-.95,1.88Z"/>
  <path class="cls-2" d="M291.71,466.45c-.55-1.02-.64-1.8.89-1.8.86,1.17.51,1.74-.89,1.8Z"/>
  <path class="cls-2" d="M290.66,468.44c-.73-1.13-.51-1.78.93-1.8.78,1.16.44,1.75-.93,1.8Z"/>
  <path class="cls-2" d="M289.73,469.47c-.24-.74-.23-1.25.78-.84.33.82.07,1.11-.78.84Z"/>
  <path class="cls-3" d="M191.25,302.99c0,2.76,0,5.52-.02,8.28-10.76.05-21.52-.02-32.28.2-3.4.07-3.25-1.85-3.17-4.11.08-2.22-.68-4.7,3.19-4.62,10.75.23,21.51.18,32.27.24Z"/>
  <path class="cls-3" d="M355,219.55c.07.96-.72,1-1.3,1.03-.75.04-1.75.23-1.97-.85-.18-.89.63-1.12,1.24-1.12.75,0,1.66-.04,2.03.94Z"/>
  <path class="cls-3" d="M370.4,221.72c-.11,1.34.44,3.11-1.95,2.93-.13-1.49-.5-3.15,1.95-2.93Z"/>
  <path class="cls-1" d="M344.35,226.85c-.23.68.25,1.74-.97,1.89-.57.07-.89-.23-.86-.81.06-1.22,1.1-.91,1.8-1.12,0,0,.04.04.04.04Z"/>
  <path class="cls-3" d="M358.99,220.02c-.15.21-.27.43-.45.58-.07.06-.31,0-.43-.07-.42-.25-.4-.54.06-.67.23-.06.51.09.81.15Z"/>
  <path class="cls-3" d="M259.53,213.76c.35.21.91.35,1,.63.2.67-.3,1.03-.92,1.2-.03-.61-.05-1.23-.08-1.84Z"/>
  <path class="cls-3" d="M228.48,221.74c-.19.16-.39.31-.58.47-.1-.25-.23-.5-.28-.76-.01-.07.31-.29.33-.28.2.17.36.37.53.57Z"/>
  <path class="cls-3" d="M173.09,317.41c-3.31,0-6.61.02-9.92,0-.96,0-2.14.08-2.15-1.35,0-1.09.93-1.22,1.77-1.22,6.94,0,13.89,0,20.83.01.86,0,1.71.23,1.66,1.32-.05,1.08-.94,1.22-1.78,1.23-3.47.02-6.94,0-10.42.01Z"/>
  <path class="cls-2" d="M335.14,320.07c-1.39-3.32-.67-5.12,3.37-5.88,3.72-.7,4.44-4.11,3-7.89,7.63,2.27,13.11,6.32,16.88,12.64-1.46,2.19-5.26-.8-5.76,2.22-.54,3.25-1.54,6.94.35,9.95,1.97,3.13-.78,4.14-2.03,5.44-4.71,4.9-5.04,9-.55,13.77,2.26,2.4,4.6,4.3,8.19,1.97,3.21-2.08,3.23-4.82,2.59-8.07-.4-2.04-1.53-3.79-2.37-5.5-3.05-6.21,2.18-11.55,1.26-17.41-.23-1.49.7-2.55,1.48-3.54,1.35-1.71,3.79-2.77,5.41-2.26,1.92.6-.13,2.82.02,4.37.23,2.5-1.4,4.39-2.73,6.21-3.84,5.26-3.12,10.66-.99,16.26,2.78,7.32,1.1,11.17-6.2,14.72-3.1,1.51-3.42,5.68-.54,8.92.83.93,3.02,1.83,2.17,2.8-3.67,4.19-.69,9.26-2.26,13.64-.21.6-.05,1.5-.44,1.82-.31.26-1.71-.12-1.72-.28-.34-4.89-8.03,2.53-7.14-4.27.14-1.05.84-2.44-.97-2.77-1.1-.2-2.62.17-1.9-1.79.44-1.2,1.44-1.8,2.73-1.79.99.01,1.99.16,2.98.17,1.35.01,2.46-.71,2.3-2.01-.18-1.44-1.42-1.48-2.72-1.08-4.14,1.27-5.24-.7-5.21-4.55,0-1.49,1.24-4.72-2.27-4.3-3.38.4-1.54,3.15-1.35,4.77.67,5.61.55,5.79-5.14,5.52-2.11-.1-4.74-1.24-5.69,2.16-.22.78-.48,2.15-1.92,1.72-1.01-.3-1.78-1.06-1.73-2.17.08-1.8-.63-2.51-2.42-3-1.16-.32-3.4,1.47-3.52-1.18-.09-2.01,1.66-2.68,3.33-3.12.48-.13.99-.12,1.32-.16,1.58-2.2-4.48-2.22-1.36-4.23,2.42-1.56,5.53-1.39,6.21,2.83.22,1.39,1.41,2.55,2.93,1.67,2.57-1.5-.42-2.04-.84-2.67-1.65-2.44-1.99-4.84-.88-7.52,1.66-4.01,5.27-2.57,8.42-2.98-.84-3.54-4.83-3.65-6.58-6.26-2.62-3.9-4.93.73-7.14.67-4.88-.12-6.56,1.84-7.35,6.2-.33,1.82-2.11.94-2.92-.21-.74-1.05-1.01-3.18-1.77-3.32-4.1-.75-6.64-1.49-1.34-4.75.92-.56.11-1.24-.3-1.45-1.47-.75-2.98-1.47-.86-3.03,1.66-1.22,3.48-.92,5.02.4,2.62,2.26,7.38,1.68,8.31-1.49.63-2.14-2.21-3.19-3.74-3.95-1.78-.88-3.47-1.38-4.13-3.51-1.07-3.47-3.93-4.49-7.03-4.1-3.23.4-3.51-1.33-1.82-2.75,3.52-2.96,1.71-4.31-1.14-5.52,2.16-4.74,10.38,2.76,9.62-6.18,3.31,1.98,4.11,4.06,2.8,6.73-1.28,2.61-.13,3.98,2.14,5.11,3.2,1.59,5.93,4.42,10.02,3.47,1.2-.28,3.51-.75,2.65-1.68-1.09-1.17.69-4.02-2.44-3.78-2.18.17-3.53-1.67-4.88-3.11-.72-.76-2.03-1.74-.77-2.88.83-.75,2.05-.76,3.2.03,1.71,1.18,3.26,2.9,6.19,2.24Z"/>
  <path class="cls-2" d="M301.58,472.42c.97-.39,1.71-.31,1.85.94-1,.44-1.81.51-1.85-.94Z"/>
  <path class="cls-2" d="M303.55,473.45c.78-.19,1.12.07.91.9-.79.2-1.17-.02-.91-.9Z"/>
  <path class="cls-2" d="M293.95,232.79c-.15.95-.31,1.91-.46,2.86-1.33.03-1.18-1.43-1.97-1.95-.64-6.67-.02-13.27,1.06-19.85,1.48-.08,2.97-.26,4.45-.21,1.8.07,2.39,1.47,2.91,2.94.55,1.54-.11,1.85-1.53,2.26-3.63,1.07,1.77,2.9-.29,4.57-1.84,1.49-4.48-2.24-5.1.54-.62,2.78-1.63,6.14.92,8.82Z"/>
  <path class="cls-2" d="M297.73,231.69c-1.07.18-2.14.37-3.2.55-.43-2.25.61-3.02,2.72-2.7.15.12.28.26.41.41.02.58.05,1.16.07,1.74Z"/>
  <path class="cls-2" d="M297.25,229.54c.29-.16.58-.33.88-.49-.16.3-.31.6-.47.9-.12-.15-.26-.28-.41-.41Z"/>
  <path class="cls-2" d="M289.57,239.62c.09-2.11.17-4.22,1.87-5.82-.52,1.97,2.04,4.93-1.87,5.82Z"/>
  <path class="cls-1" d="M301.63,485.73c.6-.09,1.2-.18,1.8-.28-.65,2.06-2.74,1.55-4.31,3.1.02-2.54,2.28-1.53,2.51-2.83Z"/>
</svg>