<?xml version="1.0" encoding="UTF-8"?>
<svg id="Layer_1" data-name="Layer 1" xmlns="http://www.w3.org/2000/svg" viewBox="0 0 1024.44 682.2">
  <defs>
    <style>
      .cls-1 {
        fill: #fefefe;
      }

      .cls-1, .cls-2, .cls-3, .cls-4, .cls-5, .cls-6 {
        stroke-width: 0px;
      }

      .cls-2 {
        fill: #ec5565;
      }

      .cls-3 {
        fill: #ec5666;
      }

      .cls-4 {
        fill: #4a89da;
      }

      .cls-5 {
        fill: #f4f5f7;
      }

      .cls-6 {
        fill: #f4f6f8;
      }
    </style>
  </defs>
  <path class="cls-4" d="M1.41,86.34C5.09,44.05,33.21,11.57,74.71,2.12,80.67.76,86.93.1,93.06.09,206.74-.03,320.42,0,434.1.01c1.9,0,3.79.19,5.69.29.08,7.79.2,15.58.22,23.36.1,40.61.18,81.22.27,121.83,0,43.51,0,87.01,0,130.52-.09,2.82-.24,5.64-.25,8.46-.05,45.46-.08,90.92-.11,136.38-.5.2-.99.4-1.49.61-3.08-.12-6.16-.34-9.24-.35-142.49-.04-284.98-.07-427.47-.1,0,0-.13-.18-.13-.17,0-17.71.05-35.42,0-53.13-.07-30.45-.2-60.91-.31-91.36.11-32.49.26-64.98.31-97.47.02-11.06-.19-22.12-.29-33.18.03-19.79.06-39.58.1-59.37ZM264.12,339.71c-.17-3.26-2.62-3.34-4.59-3.43-5.22-.24-10.45-.37-15.67-.21-8.02.24-12.96-3.47-15.48-10.88-1.82-5.35-3.81-10.65-5.81-15.94-.57-1.5-1.11-3.5-3.06-3.51-2-.01-2.48,2.02-2.95,3.54-1.69,5.39-3.18,10.85-4.86,16.25-2.62,8.4-6.63,11.35-15.6,11.59-4.27.11-8.55.08-12.83.21-2.3.07-5.2-.53-6.14,2.28-.8,2.41,1.6,3.7,3.15,5.07,3.19,2.83,6.43,5.59,9.7,8.33,6.01,5.03,8.39,11.12,6.12,18.87-1.38,4.74-2.26,9.63-3.44,14.43-.45,1.84-1.34,3.79.67,5.14,2.01,1.35,3.55-.37,5.09-1.3,1.42-.85,2.7-1.93,4.05-2.88q17.77-12.48,36.42-.98c.4.25.79.54,1.21.74,2.43,1.12,4.74,4.29,7.58,1.86,2.43-2.08.49-5.16-.5-7.24-7.22-15.1-3.48-26.76,10.56-35.56,1.59-.99,2.92-2.41,4.27-3.73.83-.81,1.46-1.81,2.1-2.63ZM338.65,387.01c.02,5.25,1.26,6.02,5.24,3.55,4.63-2.88,9.05-6.1,13.47-9.3,6.09-4.4,12.26-4.53,18.6-.63,4.25,2.61,8.49,5.22,12.74,7.82,1.44.88,3.07,1.86,4.65.89,2.02-1.23,1.32-3.4.87-5.15-1.07-4.11-2.43-8.14-3.59-12.22-2.12-7.49-.83-13.99,5.6-19.06,2.98-2.35,5.9-4.8,8.6-7.45,2.09-2.05,6.2-3.51,5.07-6.98-1.17-3.6-5.28-2.11-8.18-2.32-3.31-.24-6.66-.09-9.99-.12-10.99-.12-13.84-2.12-17.76-12.62-1.57-4.2-2.97-8.46-4.61-12.63-.82-2.09-.98-5.35-3.91-5.21-2.44.11-2.44,3.17-3.07,5.1-1.52,4.71-2.79,9.51-4.26,14.24-2.9,9.28-6.61,11.99-16.59,12.23-4.76.11-9.52.13-14.27.28-1.68.05-3.42.43-3.92,2.38-.4,1.58.69,2.69,1.76,3.62,3.76,3.27,7.52,6.53,11.36,9.71,5.9,4.88,7.92,10.94,6.02,18.34-1.41,5.48-2.69,10.99-3.81,15.56ZM46.11,387.23c-.03,1.54-.43,3.06.89,4.09,1.71,1.33,3.18.14,4.5-.76,4.51-3.06,9-6.15,13.42-9.34,6.1-4.4,12.26-4.46,18.58-.57,4.04,2.49,8.06,4.99,12.14,7.41,1.6.95,3.47,2.46,5.24,1.24,2.1-1.45,1.12-3.92.64-5.89-.95-3.89-2.13-7.73-3.33-11.55-2.37-7.57-.77-13.88,5.55-18.98,3.87-3.13,7.55-6.49,11.26-9.8,1.39-1.24,3.18-2.52,2.42-4.71-.76-2.17-2.94-2.14-4.8-2.18-5.23-.12-10.46-.26-15.69-.15-7.42.15-12.1-3.4-14.57-10.13-2.12-5.75-4.2-11.52-6.27-17.29-.49-1.37-1.06-2.95-2.55-3.11-2.12-.23-2.59,1.78-3.07,3.29-1.51,4.71-2.92,9.46-4.29,14.22-3.29,11.43-6.54,13.91-18.71,14.12-3.09.06-6.18.03-9.27.15-2.56.09-5.93-.74-7.14,1.94-1.33,2.96,2.03,4.36,3.83,6.05,2.59,2.42,5.27,4.78,8.09,6.94,7.06,5.42,9.02,12.33,6.66,20.74-1.34,4.76-2.38,9.6-3.53,14.27ZM46.11,111.5c-.29,4.06,1.07,5.85,4.87,3.45,4.4-2.78,8.76-5.69,12.87-8.88,6.65-5.15,13.27-5.64,20.33-.92,3.54,2.37,7.23,4.53,10.9,6.71,1.79,1.07,3.78,2.93,5.82,1.65,2.12-1.33,1.16-3.92.67-5.9-1.02-4.11-2.36-8.15-3.52-12.23-2.09-7.31-.43-13.42,5.7-18.3,3.89-3.09,7.53-6.5,11.26-9.79,1.43-1.26,3.08-2.62,2.45-4.74-.71-2.39-3.02-1.88-4.83-1.92-4.99-.11-9.98-.04-14.97-.13-7.73-.13-13.04-3.58-15.55-11.07-1.87-5.59-3.99-11.09-6.01-16.63-.49-1.33-1.05-2.89-2.63-3.01-2.15-.17-2.57,1.77-3.04,3.3-1.65,5.41-3.13,10.87-4.82,16.27-2.74,8.78-6.21,11.33-15.42,11.62-4.99.16-9.97.31-14.95.63-1.58.1-3.59.07-4.3,1.9-.87,2.23,1.02,3.44,2.38,4.66,3.35,3,6.71,6.02,10.24,8.8,6.57,5.17,8.3,11.7,6.22,19.56-1.33,5.01-2.47,10.07-3.66,14.96ZM343.15,230.35c-1.12,4.61-2.71,10.76-4.09,16.96-.44,1.99-1.42,4.54.58,5.95,2.04,1.44,4.02-.34,5.77-1.55,4.09-2.83,8.25-5.59,12.24-8.56,5.86-4.37,11.78-4.42,17.89-.69,3.85,2.34,7.65,4.77,11.54,7.04,1.97,1.15,4.17,3.59,6.36,1.91,2.38-1.82.92-4.77.21-7.24-.91-3.17-1.75-6.37-2.75-9.52-2.57-8.04-1.18-14.79,5.89-20.13,3.77-2.85,7.2-6.17,10.73-9.33,1.39-1.24,3.21-2.51,2.48-4.69-.74-2.21-2.91-2.11-4.81-2.14-5.23-.07-10.46-.11-15.69-.09-7.31.03-12.14-3.43-14.63-10.18-2.04-5.53-4-11.1-6.01-16.64-.63-1.74-1.07-4.08-3.41-3.88-1.8.15-2.16,2.23-2.63,3.82-1.76,5.87-3.57,11.73-5.33,17.6-1.84,6.16-5.98,9.44-12.43,9.79-5.7.31-11.4.53-17.09.81-1.63.08-3.55-.18-4.41,1.62-1.07,2.24.81,3.49,2.17,4.7,3.71,3.31,7.54,6.5,11.3,9.76,3.96,3.44,6.21,7.68,6.14,14.66ZM192.61,110.48c-.72,2.38-.68,3.89.48,4.88,1.56,1.32,3.13.41,4.53-.56,4.29-2.96,8.7-5.76,12.8-8.96,6.74-5.27,13.37-5.12,20.31-.48,3.93,2.63,8.01,5.07,12.1,7.45,1.36.79,2.92,1.9,4.6.61,1.6-1.23,1.26-2.91.79-4.53-1.3-4.53-2.47-9.1-3.98-13.56-2.43-7.17-.36-12.9,5.18-17.72,4.29-3.73,8.57-7.46,12.79-11.26,1.04-.93,2.22-2.08,1.76-3.62-.57-1.93-2.38-2.07-4.07-2.09-5.22-.07-10.45,0-15.67-.14-8.81-.24-12.83-3.17-15.9-11.41-2.06-5.52-4.06-11.06-6.13-16.57-.49-1.31-1.08-2.86-2.77-2.84-1.72.03-2.22,1.64-2.62,2.97-1.79,5.85-3.48,11.73-5.23,17.6-2.06,6.91-6.5,10.69-13.98,10.73-5.22.02-10.45.18-15.66.51-1.76.11-4.09.02-4.64,2.42-.42,1.85.98,3.04,2.23,4.14,3.75,3.26,7.58,6.44,11.28,9.75,5.16,4.62,7.33,10.2,5.5,17.13-1.44,5.46-2.63,10.99-3.7,15.55ZM102.03,247.57c-.98-3.54-1.92-7.95-3.42-12.15-3.09-8.66-1.24-15.67,6.17-21.31,3.01-2.29,5.83-4.86,8.6-7.44,1.83-1.7,4.93-3.08,4.02-6.11-1-3.32-4.36-2.08-6.79-2.19-4.27-.19-8.56-.21-12.84-.07-7.98.24-13.02-3.58-15.64-10.85-1.76-4.88-3.32-9.84-5.2-14.67-.8-2.04-.98-5.31-3.96-5.11-2.43.16-2.47,3.1-3.06,5.06-1.5,4.96-2.94,9.95-4.36,14.93-1.97,6.88-6.2,10.98-13.68,11.24-5.46.19-10.92.46-16.38.69-1.67.07-3.55-.04-4.41,1.68-1.12,2.24.82,3.47,2.15,4.69,2.8,2.55,5.61,5.13,8.66,7.37,8.1,5.95,10.57,13.47,7.41,23.01-1.33,4.02-2.12,8.21-3.02,12.36-.34,1.57-.83,3.49.77,4.58,1.54,1.05,3.2.25,4.62-.73,4.48-3.1,9.04-6.11,13.42-9.36,6.11-4.53,12.18-4.52,18.49-.48,4.39,2.81,8.86,5.5,13.35,8.16,2.84,1.68,5.04,1.69,5.11-3.3ZM192.38,249.49c-.39,1.42-.62,2.88.84,3.8,1.66,1.04,3.2.23,4.6-.73,4.49-3.09,9.01-6.13,13.41-9.33,6.09-4.43,12.2-4.55,18.52-.54,4,2.54,8.01,5.07,12.12,7.41,1.71.97,3.56,2.99,5.73,1.04,1.71-1.53.77-3.46.23-5.28-1.14-3.84-2.01-7.76-3.36-11.53-2.95-8.27-.4-14.66,6.19-20.01,3.86-3.13,7.53-6.49,11.22-9.82,1.2-1.09,2.78-2.32,2.04-4.15-.69-1.69-2.5-1.95-4.23-1.96-5.46-.03-10.93-.09-16.39-.1-7.25-.01-12.17-3.3-14.62-10.13-1.91-5.32-3.75-10.67-5.76-15.95-.72-1.89-1.13-4.76-3.67-4.55-2.42.2-2.57,3.06-3.18,5.03-1.46,4.72-2.95,9.45-4.17,14.23-1.91,7.56-6.33,11.88-14.47,12.03-5.22.1-10.43.41-15.65.67-1.62.08-3.55-.19-4.31,1.71-.86,2.14.6,3.56,2.05,4.82,3.75,3.26,7.57,6.45,11.3,9.73,5.24,4.61,7.29,10.18,5.43,17.11-1.47,5.45-2.6,11-3.9,16.5ZM365.98,29.72c-2.11.07-2.57,1.75-3.05,3.31-1.73,5.64-3.48,11.27-5.09,16.94-2.07,7.3-6.63,11.13-14.47,11.03-4.75-.06-9.52.1-14.26.45-1.99.15-4.69-.27-5.64,2.11-.99,2.49,1.38,3.77,2.9,5.14,3.18,2.85,6.42,5.63,9.73,8.32,6.42,5.21,8.42,11.62,6.04,19.58-1.41,4.74-2.36,9.62-3.36,14.47-.32,1.55-.76,3.5.91,4.54,1.65,1.03,3.22-.15,4.57-1.08,4.5-3.09,8.95-6.24,13.41-9.39,5.86-4.14,11.8-4.46,17.95-.58,4.21,2.66,8.5,5.2,12.77,7.77,1.65,1,3.6,2.08,5.27.71,1.65-1.36.93-3.54.43-5.34-1.06-3.87-2.32-7.68-3.43-11.53-2.24-7.78-.77-14.37,5.97-19.57,3.94-3.04,7.53-6.51,11.25-9.83,1.23-1.1,2.68-2.28,2.14-4.17-.71-2.48-3-1.92-4.78-1.96-4.99-.13-9.99-.1-14.99-.12-7.81-.03-13.06-3.59-15.65-10.98-1.88-5.34-3.84-10.66-5.76-15.99-.56-1.55-.98-3.18-2.86-3.84Z"/>
  <path class="cls-2" d="M1024.18,537.24c.01,20.55.62,41.12-.08,61.64-1.42,41.57-42.43,81.6-84.28,82.97-4.04.13-8.09.17-12.13.17-276.46,0-552.92-.11-829.38.18-28.62.03-52.74-8.78-72.09-29.49-15.76-16.86-24.51-36.89-24.55-60.21-.02-18.42.09-36.84.15-55.27,3.33-.02,6.66-.07,9.99-.07,334.13,0,668.25,0,1002.38,0,3.33,0,6.66.05,9.99.07Z"/>
  <path class="cls-6" d="M1024.18,537.24c-3.33-.02-6.66-.07-9.99-.07-334.13,0-668.25,0-1002.38,0-3.33,0-6.66.05-9.99.07-.01-38.32-.03-76.63-.04-114.95,142.76,0,285.53,0,428.29-.04,2.79,0,5.71.79,8.38-.78.5-.2.99-.4,1.49-.61,2.14.06,4.28.19,6.41.19,190.73,0,381.47,0,572.2,0,1.9,0,3.8-.08,5.7-.13-.02,38.77-.04,77.54-.07,116.31Z"/>
  <path class="cls-2" d="M1024.25,420.93c-1.9.04-3.8.13-5.7.13-190.73,0-381.47,0-572.2,0-2.14,0-4.27-.12-6.41-.19.03-45.46.06-90.92.11-136.38,0-2.82.16-5.64.25-8.46,191.56.01,383.13.02,574.69.04,3.09,0,6.18.09,9.28.14,0,48.24,0,96.49,0,144.73Z"/>
  <path class="cls-3" d="M440.28,145.5c-.09-40.61-.16-81.22-.27-121.83-.02-7.79-.14-15.58-.22-23.36,2.61-.06,5.23-.17,7.84-.17,160.57,0,321.14-.02,481.71,0,47.68,0,84.72,30.27,94,76.72.37,1.85.81,3.72.81,5.59.03,21.01-.02,42.03-.05,63.04-194.6,0-389.21,0-583.81,0Z"/>
  <path class="cls-5" d="M440.28,145.5c194.6,0,389.21,0,583.81,0,.05,43.57.1,87.13.15,130.7-3.09-.05-6.18-.14-9.28-.14-191.56-.02-383.13-.03-574.69-.04,0-43.51,0-87.01,0-130.52Z"/>
  <path class="cls-5" d="M438.44,421.47c-2.67,1.56-5.59.78-8.38.78-142.76.05-285.53.04-428.29.04-.04-.42-.05-.84-.04-1.26,142.49.03,284.98.05,427.47.1,3.08,0,6.16.23,9.24.35Z"/>
  <path class="cls-5" d="M1.29,276.37c.11,30.45.24,60.91.31,91.36.04,17.71,0,35.42,0,53.13-1.86-1.7-1.26-3.94-1.26-6-.03-44.35-.03-88.71,0-133.06,0-1.85-.42-3.81.96-5.43Z"/>
  <path class="cls-5" d="M1.41,86.34c-.03,19.79-.06,39.58-.1,59.37-2.19-9.96-.91-20.05-.86-30.05.04-9.76-1.53-19.62.96-29.31Z"/>
  <path class="cls-1" d="M264.12,339.71c-.64.82-1.27,1.83-2.1,2.63-1.35,1.32-2.69,2.74-4.27,3.73-14.04,8.8-17.79,20.45-10.56,35.56.99,2.08,2.93,5.16.5,7.24-2.84,2.43-5.14-.74-7.58-1.86-.43-.2-.81-.49-1.21-.74q-18.65-11.5-36.42.98c-1.36.95-2.64,2.03-4.05,2.88-1.55.93-3.08,2.65-5.09,1.3-2.01-1.35-1.12-3.3-.67-5.14,1.18-4.8,2.06-9.69,3.44-14.43,2.26-7.75-.11-13.84-6.12-18.87-3.27-2.74-6.51-5.51-9.7-8.33-1.55-1.37-3.95-2.66-3.15-5.07.94-2.81,3.84-2.21,6.14-2.28,4.27-.12,8.55-.09,12.83-.21,8.97-.24,12.98-3.19,15.6-11.59,1.68-5.4,3.17-10.85,4.86-16.25.48-1.52.95-3.55,2.95-3.54,1.95.01,2.49,2.01,3.06,3.51,2,5.29,3.99,10.59,5.81,15.94,2.52,7.41,7.46,11.12,15.48,10.88,5.22-.16,10.46-.03,15.67.21,1.97.09,4.43.17,4.59,3.43Z"/>
  <path class="cls-1" d="M338.65,387.01c1.12-4.57,2.4-10.08,3.81-15.56,1.9-7.4-.12-13.46-6.02-18.34-3.84-3.17-7.6-6.44-11.36-9.71-1.07-.93-2.17-2.04-1.76-3.62.5-1.95,2.23-2.32,3.92-2.38,4.76-.15,9.51-.17,14.27-.28,9.98-.24,13.69-2.95,16.59-12.23,1.48-4.73,2.74-9.52,4.26-14.24.62-1.93.63-4.98,3.07-5.1,2.93-.14,3.09,3.13,3.91,5.21,1.64,4.17,3.04,8.43,4.61,12.63,3.93,10.5,6.77,12.5,17.76,12.62,3.33.03,6.67-.12,9.99.12,2.9.21,7.01-1.27,8.18,2.32,1.13,3.47-2.98,4.93-5.07,6.98-2.7,2.65-5.62,5.1-8.6,7.45-6.43,5.08-7.71,11.57-5.6,19.06,1.15,4.09,2.52,8.12,3.59,12.22.45,1.74,1.16,3.91-.87,5.15-1.58.96-3.21,0-4.65-.89-4.25-2.6-8.49-5.21-12.74-7.82-6.34-3.9-12.51-3.77-18.6.63-4.42,3.2-8.84,6.42-13.47,9.3-3.97,2.47-5.22,1.7-5.24-3.55Z"/>
  <path class="cls-1" d="M46.11,387.23c1.14-4.67,2.19-9.51,3.53-14.27,2.36-8.41.4-15.31-6.66-20.74-2.82-2.16-5.49-4.52-8.09-6.94-1.81-1.69-5.16-3.09-3.83-6.05,1.21-2.68,4.58-1.85,7.14-1.94,3.09-.11,6.18-.09,9.27-.15,12.17-.22,15.42-2.7,18.71-14.12,1.37-4.76,2.78-9.5,4.29-14.22.48-1.51.96-3.52,3.07-3.29,1.49.16,2.06,1.74,2.55,3.11,2.07,5.77,4.15,11.54,6.27,17.29,2.48,6.73,7.16,10.28,14.57,10.13,5.23-.11,10.46.03,15.69.15,1.87.04,4.05,0,4.8,2.18.76,2.18-1.02,3.47-2.42,4.71-3.71,3.31-7.39,6.67-11.26,9.8-6.31,5.1-7.92,11.41-5.55,18.98,1.2,3.82,2.38,7.66,3.33,11.55.48,1.97,1.46,4.44-.64,5.89-1.78,1.22-3.64-.28-5.24-1.24-4.08-2.42-8.1-4.92-12.14-7.41-6.32-3.89-12.49-3.83-18.58.57-4.42,3.19-8.91,6.28-13.42,9.34-1.33.9-2.79,2.09-4.5.76-1.32-1.03-.92-2.55-.89-4.09Z"/>
  <path class="cls-1" d="M46.11,111.5c1.19-4.89,2.33-9.95,3.66-14.96,2.09-7.86.35-14.39-6.22-19.56-3.53-2.78-6.89-5.8-10.24-8.8-1.36-1.21-3.25-2.43-2.38-4.66.72-1.83,2.72-1.8,4.3-1.9,4.98-.32,9.96-.47,14.95-.63,9.21-.29,12.68-2.84,15.42-11.62,1.68-5.4,3.17-10.86,4.82-16.27.47-1.53.89-3.47,3.04-3.3,1.58.12,2.15,1.68,2.63,3.01,2.02,5.54,4.14,11.04,6.01,16.63,2.51,7.49,7.82,10.94,15.55,11.07,4.99.09,9.98.02,14.97.13,1.81.04,4.12-.46,4.83,1.92.63,2.12-1.02,3.48-2.45,4.74-3.73,3.29-7.37,6.7-11.26,9.79-6.14,4.88-7.79,10.98-5.7,18.3,1.16,4.08,2.5,8.12,3.52,12.23.49,1.98,1.45,4.57-.67,5.9-2.03,1.28-4.02-.59-5.82-1.65-3.67-2.18-7.36-4.34-10.9-6.71-7.05-4.72-13.68-4.24-20.33.92-4.11,3.19-8.47,6.09-12.87,8.88-3.8,2.4-5.16.61-4.87-3.45Z"/>
  <path class="cls-1" d="M343.15,230.35c.08-6.98-2.18-11.22-6.14-14.66-3.76-3.26-7.59-6.44-11.3-9.76-1.35-1.21-3.23-2.46-2.17-4.7.86-1.8,2.77-1.54,4.41-1.62,5.7-.28,11.4-.51,17.09-.81,6.45-.35,10.59-3.63,12.43-9.79,1.76-5.87,3.57-11.73,5.33-17.6.48-1.59.83-3.67,2.63-3.82,2.35-.2,2.78,2.14,3.41,3.88,2.02,5.54,3.97,11.11,6.01,16.64,2.49,6.75,7.31,10.21,14.63,10.18,5.23-.02,10.46.03,15.69.09,1.89.02,4.07-.07,4.81,2.14.73,2.18-1.09,3.45-2.48,4.69-3.53,3.16-6.96,6.48-10.73,9.33-7.07,5.34-8.46,12.1-5.89,20.13,1,3.14,1.84,6.34,2.75,9.52.71,2.47,2.17,5.42-.21,7.24-2.19,1.68-4.39-.76-6.36-1.91-3.9-2.26-7.69-4.69-11.54-7.04-6.12-3.73-12.04-3.67-17.89.69-3.99,2.97-8.14,5.73-12.24,8.56-1.75,1.21-3.73,2.99-5.77,1.55-1.99-1.41-1.02-3.96-.58-5.95,1.38-6.2,2.97-12.35,4.09-16.96Z"/>
  <path class="cls-1" d="M192.61,110.48c1.08-4.56,2.26-10.08,3.7-15.55,1.83-6.92-.33-12.5-5.5-17.13-3.7-3.31-7.53-6.49-11.28-9.75-1.26-1.09-2.66-2.29-2.23-4.14.55-2.4,2.88-2.31,4.64-2.42,5.21-.33,10.44-.48,15.66-.51,7.48-.03,11.92-3.82,13.98-10.73,1.75-5.87,3.44-11.75,5.23-17.6.41-1.32.9-2.94,2.62-2.97,1.69-.03,2.27,1.52,2.77,2.84,2.08,5.51,4.08,11.05,6.13,16.57,3.07,8.24,7.09,11.17,15.9,11.41,5.22.14,10.45.08,15.67.14,1.68.02,3.5.16,4.07,2.09.45,1.54-.72,2.69-1.76,3.62-4.23,3.79-8.51,7.53-12.79,11.26-5.54,4.82-7.61,10.55-5.18,17.72,1.51,4.46,2.68,9.03,3.98,13.56.46,1.62.81,3.3-.79,4.53-1.68,1.28-3.24.18-4.6-.61-4.09-2.38-8.17-4.82-12.1-7.45-6.94-4.64-13.56-4.8-20.31.48-4.1,3.2-8.51,6-12.8,8.96-1.4.97-2.98,1.88-4.53.56-1.16-.98-1.2-2.49-.48-4.88Z"/>
  <path class="cls-1" d="M102.03,247.57c-.07,5-2.27,4.98-5.11,3.3-4.49-2.65-8.96-5.35-13.35-8.16-6.31-4.04-12.38-4.05-18.49.48-4.38,3.24-8.93,6.25-13.42,9.36-1.42.99-3.08,1.78-4.62.73-1.61-1.09-1.11-3.01-.77-4.58.9-4.14,1.69-8.34,3.02-12.36,3.16-9.54.69-17.07-7.41-23.01-3.05-2.24-5.86-4.82-8.66-7.37-1.33-1.21-3.27-2.45-2.15-4.69.86-1.72,2.75-1.61,4.41-1.68,5.46-.24,10.92-.5,16.38-.69,7.49-.26,11.72-4.36,13.68-11.24,1.43-4.99,2.87-9.97,4.36-14.93.59-1.96.64-4.9,3.06-5.06,2.97-.19,3.16,3.07,3.96,5.11,1.89,4.83,3.44,9.79,5.2,14.67,2.62,7.26,7.66,11.09,15.64,10.85,4.28-.13,8.56-.12,12.84.07,2.43.11,5.79-1.13,6.79,2.19.91,3.03-2.19,4.41-4.02,6.11-2.77,2.58-5.59,5.15-8.6,7.44-7.41,5.64-9.26,12.65-6.17,21.31,1.5,4.2,2.44,8.6,3.42,12.15Z"/>
  <path class="cls-1" d="M192.38,249.49c1.29-5.5,2.42-11.05,3.89-16.5,1.87-6.93-.18-12.5-5.43-17.11-3.73-3.28-7.55-6.47-11.3-9.73-1.45-1.26-2.91-2.69-2.05-4.82.77-1.9,2.69-1.63,4.31-1.71,5.21-.25,10.43-.57,15.65-.67,8.14-.16,12.56-4.47,14.47-12.03,1.21-4.79,2.71-9.51,4.17-14.23.61-1.97.76-4.83,3.18-5.03,2.53-.21,2.95,2.66,3.67,4.55,2,5.29,3.84,10.63,5.76,15.95,2.45,6.82,7.37,10.12,14.62,10.13,5.46,0,10.93.07,16.39.1,1.73,0,3.55.27,4.23,1.96.74,1.83-.83,3.07-2.04,4.15-3.69,3.33-7.36,6.69-11.22,9.82-6.59,5.35-9.14,11.74-6.19,20.01,1.34,3.76,2.21,7.69,3.36,11.53.54,1.81,1.48,3.75-.23,5.28-2.17,1.95-4.02-.07-5.73-1.04-4.12-2.34-8.12-4.88-12.12-7.41-6.32-4-12.43-3.89-18.52.54-4.4,3.2-8.92,6.25-13.41,9.33-1.4.96-2.94,1.77-4.6.73-1.47-.92-1.23-2.39-.84-3.8Z"/>
  <path class="cls-1" d="M365.98,29.72c1.87.67,2.3,2.29,2.86,3.84,1.92,5.33,3.89,10.64,5.76,15.99,2.59,7.39,7.85,10.95,15.65,10.98,5,.02,9.99,0,14.99.12,1.78.05,4.07-.51,4.78,1.96.54,1.89-.92,3.07-2.14,4.17-3.71,3.32-7.31,6.79-11.25,9.83-6.74,5.2-8.21,11.78-5.97,19.57,1.11,3.85,2.37,7.67,3.43,11.53.49,1.8,1.22,3.98-.43,5.34-1.67,1.37-3.62.29-5.27-.71-4.27-2.57-8.56-5.11-12.77-7.77-6.15-3.89-12.09-3.57-17.95.58-4.45,3.15-8.91,6.3-13.41,9.39-1.35.93-2.92,2.11-4.57,1.08-1.66-1.04-1.23-2.98-.91-4.54,1-4.85,1.95-9.73,3.36-14.47,2.37-7.96.37-14.36-6.04-19.58-3.31-2.69-6.56-5.47-9.73-8.32-1.52-1.36-3.89-2.65-2.9-5.14.95-2.38,3.65-1.96,5.64-2.11,4.74-.36,9.51-.52,14.26-.45,7.83.1,12.4-3.74,14.47-11.03,1.61-5.67,3.36-11.3,5.09-16.94.48-1.56.93-3.24,3.05-3.31Z"/>
</svg>