<svg width="24" height="24" viewBox="0 0 24 24" fill="none" xmlns="http://www.w3.org/2000/svg">
<path d="M18.157 16.882L16.97 18.056C16.0953 18.9147 14.96 20.0187 13.564 21.368C13.1444 21.7737 12.5836 22.0005 12 22.0005C11.4163 22.0005 10.8555 21.7737 10.436 21.368L6.94597 17.972C6.50597 17.5413 6.13831 17.178 5.84297 16.882C4.62534 15.6643 3.79614 14.1128 3.46023 12.4239C3.12432 10.7349 3.29678 8.98422 3.95581 7.39326C4.61484 5.8023 5.73084 4.44249 7.16269 3.48578C8.59453 2.52907 10.2779 2.01843 12 2.01843C13.722 2.01843 15.4054 2.52907 16.8373 3.48578C18.2691 4.44249 19.3851 5.8023 20.0441 7.39326C20.7032 8.98422 20.8756 10.7349 20.5397 12.4239C20.2038 14.1128 19.3746 15.6643 18.157 16.882ZM14.501 11C14.501 10.3369 14.2376 9.70106 13.7687 9.23222C13.2999 8.76338 12.664 8.49999 12.001 8.49999C11.3379 8.49999 10.702 8.76338 10.2332 9.23222C9.76437 9.70106 9.50097 10.3369 9.50097 11C9.50097 11.663 9.76437 12.2989 10.2332 12.7678C10.702 13.2366 11.3379 13.5 12.001 13.5C12.664 13.5 13.2999 13.2366 13.7687 12.7678C14.2376 12.2989 14.501 11.663 14.501 11Z" fill="#8764B5"/>
</svg>
