<svg width="50" height="50" viewBox="0 0 50 50" fill="none" xmlns="http://www.w3.org/2000/svg">
<mask id="mask0_6_666" style="mask-type:luminance" maskUnits="userSpaceOnUse" x="1" y="1" width="48" height="48">
<path d="M25.0001 45.8333C27.7365 45.8367 30.4465 45.2993 32.9746 44.2521C35.5026 43.205 37.7989 41.6686 39.7313 39.7312C41.6687 37.7988 43.2051 35.5025 44.2523 32.9745C45.2995 30.4464 45.8368 27.7363 45.8334 25C45.8368 22.2636 45.2995 19.5535 44.2523 17.0255C43.2051 14.4974 41.6687 12.2012 39.7313 10.2687C37.7989 8.33139 35.5026 6.79499 32.9746 5.7478C30.4465 4.70061 27.7365 4.16327 25.0001 4.16664C22.2637 4.16327 19.5537 4.70061 17.0256 5.7478C14.4975 6.79499 12.2013 8.33139 10.2688 10.2687C8.33151 12.2012 6.79512 14.4974 5.74793 17.0255C4.70073 19.5535 4.16339 22.2636 4.16676 25C4.16339 27.7363 4.70073 30.4464 5.74793 32.9745C6.79512 35.5025 8.33151 37.7988 10.2688 39.7312C12.2013 41.6686 14.4975 43.205 17.0256 44.2521C19.5537 45.2993 22.2637 45.8367 25.0001 45.8333Z" fill="white" stroke="white" stroke-width="5" stroke-linejoin="round"/>
<path d="M16.6667 25L22.9167 31.25L35.4167 18.75" stroke="black" stroke-width="5" stroke-linecap="round" stroke-linejoin="round"/>
</mask>
<g mask="url(#mask0_6_666)">
<path d="M0 0H50V50H0V0Z" fill="#95CF8A"/>
</g>
</svg>
