<?xml version="1.0" encoding="UTF-8"?>
<svg id="Official" xmlns="http://www.w3.org/2000/svg" viewBox="0 0 123.15 118.44">
  <defs>
    <style>
      .cls-1 {
        fill: #fff;
      }

      .cls-1, .cls-2 {
        stroke-width: 0px;
      }

      .cls-2 {
        fill: #631c8c;
      }
    </style>
  </defs>
  <rect class="cls-1" width="122.57" height="117.94" rx="30.22" ry="30.22"/>
  <path class="cls-2" d="M119.5,64.42l-10.24-2.18v-1.55l10.24-2.18c.82-.18,1.35-.99,1.17-1.81-.18-.82-.99-1.35-1.81-1.17l-9.6,2.05v-18.16c0-7.76-5.69-14.19-13.13-15.35-.4-1.76-2.96-12.45-7.34-15.22-4.47-2.83-16.41,12.99-17.93,15.04h-18.85c-1.52-2.05-13.46-17.87-17.93-15.04-4.46,2.82-7.03,13.82-7.36,15.3-7.22,1.34-12.68,7.67-12.68,15.27v18.2l-9.78-2.08c-.82-.18-1.63.35-1.81,1.17s.35,1.63,1.17,1.81l10.41,2.22v1.48l-10.41,2.22c-.82.18-1.35.99-1.17,1.81.15.72.79,1.21,1.49,1.21.11,0,.21-.01.32-.03l9.78-2.08v21.87c0,8.58,6.96,15.54,15.54,15.54h64.13c8.58,0,15.54-6.96,15.54-15.54v-21.84l9.6,2.05c.11.02.21.03.32.03.7,0,1.34-.49,1.49-1.21.18-.82-.35-1.63-1.17-1.81ZM42.38,88.05c0,2.21-1.79,4-4,4h-7.68c-2.21,0-4-1.79-4-4v-7.68c0-2.21,1.79-4,4-4h7.68c2.21,0,4,1.79,4,4v7.68ZM42.37,52c-2.29,0-4.14-2.74-4.14-6.13s1.85-6.13,4.14-6.13,4.14,2.74,4.14,6.13-1.85,6.13-4.14,6.13ZM69.61,88.05c0,2.21-1.79,4-4,4h-7.68c-2.21,0-4-1.79-4-4v-7.68c0-2.21,1.79-4,4-4h7.68c2.21,0,4,1.79,4,4v7.68ZM74.48,64.13c-2.43,2.07-4.72,3.11-6.81,3.11-.59,0-1.16-.08-1.72-.25-1.86-.55-3.14-1.9-3.97-3.16-.83,1.26-2.11,2.62-3.97,3.16-.56.16-1.13.25-1.72.25-2.1,0-4.38-1.04-6.81-3.11-.55-.47-.62-1.29-.15-1.84.47-.55,1.29-.62,1.84-.15,2.4,2.04,4.45,2.83,6.11,2.34,2.08-.61,3.15-3.16,3.4-3.83v-1.9s0-.04,0-.07c-1.95-.76-5.01-2.94-5.01-5.49,0-3.19,2.78-2.94,6.21-2.94s6.21-.25,6.21,2.94c0,2.49-2.8,4.6-4.8,5.41,0,.05,0,.1,0,.14v1.9c.25.67,1.31,3.22,3.41,3.83,1.65.48,3.7-.31,6.1-2.35.55-.47,1.38-.4,1.84.15.47.55.4,1.38-.15,1.84ZM77.23,45.87c0-3.38,1.85-6.13,4.14-6.13s4.14,2.74,4.14,6.13-1.85,6.13-4.14,6.13-4.14-2.74-4.14-6.13ZM97.07,88.05c0,2.21-1.79,4-4,4h-7.68c-2.21,0-4-1.79-4-4v-7.68c0-2.21,1.79-4,4-4h7.68c2.21,0,4,1.79,4,4v7.68Z"/>
</svg>