<?xml version="1.0" encoding="UTF-8"?>
<svg id="Official" xmlns="http://www.w3.org/2000/svg" viewBox="0 0 293.9 81.76">
  <defs>
    <style>
      .cls-1 {
        fill: #fff;
        stroke-width: 0px;
      }
    </style>
  </defs>
  <path class="cls-1" d="M77.64,45.65l-5.54-1.18v-.84l5.54-1.18c.45-.1.73-.53.63-.98-.09-.45-.53-.73-.98-.63l-5.19,1.11v-9.82c0-4.2-3.08-7.68-7.1-8.31-.21-.95-1.6-6.73-3.97-8.23-2.42-1.53-8.88,7.02-9.7,8.13h-10.19c-.82-1.11-7.28-9.67-9.7-8.13-2.41,1.53-3.8,7.47-3.98,8.28-3.9.73-6.86,4.15-6.86,8.26v9.84l-5.29-1.13c-.45-.1-.88.19-.98.63s.19.88.63.98l5.63,1.2v.8l-5.63,1.2c-.45.1-.73.53-.63.98.08.39.42.65.81.65.06,0,.11,0,.17-.02l5.29-1.13v11.83c0,4.64,3.76,8.41,8.41,8.41h34.69c4.64,0,8.41-3.76,8.41-8.41v-11.81l5.19,1.11c.06.01.12.02.17.02.38,0,.72-.27.81-.65.09-.45-.19-.88-.63-.98ZM35.93,58.43c0,1.2-.97,2.17-2.17,2.17h-4.15c-1.2,0-2.17-.97-2.17-2.17v-4.15c0-1.2.97-2.17,2.17-2.17h4.15c1.2,0,2.17.97,2.17,2.17v4.15ZM35.92,38.93c-1.24,0-2.24-1.48-2.24-3.31s1-3.31,2.24-3.31,2.24,1.48,2.24,3.31-1,3.31-2.24,3.31ZM50.66,58.43c0,1.2-.97,2.17-2.17,2.17h-4.15c-1.2,0-2.17-.97-2.17-2.17v-4.15c0-1.2.97-2.17,2.17-2.17h4.15c1.2,0,2.17.97,2.17,2.17v4.15ZM53.29,45.49c-1.32,1.12-2.55,1.68-3.69,1.68-.32,0-.63-.04-.93-.13-1.01-.3-1.7-1.03-2.15-1.71-.45.68-1.14,1.42-2.15,1.71-.3.09-.61.13-.93.13-1.13,0-2.37-.56-3.69-1.68-.3-.25-.33-.7-.08-1,.25-.3.7-.33,1-.08,1.3,1.1,2.41,1.53,3.3,1.27,1.13-.33,1.7-1.71,1.84-2.07v-1.03s0-.02,0-.04c-1.06-.41-2.71-1.59-2.71-2.97,0-1.72,1.5-1.59,3.36-1.59s3.36-.13,3.36,1.59c0,1.35-1.52,2.49-2.6,2.93,0,.03,0,.05,0,.08v1.03c.13.36.71,1.74,1.84,2.07.89.26,2-.17,3.3-1.27.3-.25.74-.22,1,.08.25.3.22.74-.08,1ZM54.78,35.61c0-1.83,1-3.31,2.24-3.31s2.24,1.48,2.24,3.31-1,3.31-2.24,3.31-2.24-1.48-2.24-3.31ZM65.51,58.43c0,1.2-.97,2.17-2.17,2.17h-4.15c-1.2,0-2.17-.97-2.17-2.17v-4.15c0-1.2.97-2.17,2.17-2.17h4.15c1.2,0,2.17.97,2.17,2.17v4.15Z"/>
  <g>
    <path class="cls-1" d="M142.14,47.81h-10.26c.01,1.19.25,2.24.72,3.15.47.91,1.09,1.6,1.86,2.06.78.46,1.63.69,2.57.69.63,0,1.2-.07,1.72-.22.52-.15,1.02-.38,1.51-.69.49-.31.94-.65,1.35-1.01.41-.36.94-.85,1.6-1.46.27-.23.65-.35,1.15-.35.54,0,.97.15,1.31.44.33.29.5.71.5,1.25,0,.47-.19,1.03-.56,1.66-.37.63-.93,1.24-1.68,1.83-.75.58-1.69,1.07-2.83,1.45s-2.44.58-3.91.58c-3.37,0-5.99-.96-7.86-2.88-1.87-1.92-2.81-4.53-2.81-7.82,0-1.55.23-2.99.69-4.31.46-1.33,1.13-2.46,2.02-3.41.88-.95,1.97-1.68,3.27-2.18,1.29-.51,2.73-.76,4.31-.76,2.05,0,3.81.43,5.28,1.3,1.47.86,2.57,1.98,3.3,3.35s1.1,2.77,1.1,4.19c0,1.32-.38,2.18-1.13,2.57-.76.39-1.82.59-3.19.59ZM131.88,44.83h9.51c-.13-1.79-.61-3.14-1.45-4.03-.84-.89-1.94-1.34-3.32-1.34s-2.38.45-3.22,1.36c-.84.9-1.35,2.24-1.53,4.01Z"/>
    <path class="cls-1" d="M170.53,46.52c0,1.56-.24,3-.73,4.32-.49,1.32-1.19,2.45-2.11,3.4-.92.95-2.02,1.68-3.31,2.18-1.28.51-2.72.76-4.32.76s-3.02-.26-4.29-.77c-1.27-.51-2.37-1.25-3.3-2.2-.93-.95-1.63-2.08-2.11-3.38-.48-1.3-.72-2.74-.72-4.31s.24-3.04.73-4.36c.49-1.32,1.19-2.45,2.09-3.38.91-.94,2.01-1.66,3.31-2.16,1.29-.51,2.72-.76,4.29-.76s3.03.26,4.32.77c1.29.51,2.4,1.24,3.33,2.19.92.95,1.62,2.08,2.1,3.38s.72,2.75.72,4.32ZM165.26,46.52c0-2.14-.47-3.81-1.41-5-.94-1.19-2.21-1.79-3.8-1.79-1.03,0-1.93.27-2.71.8-.78.53-1.38,1.32-1.81,2.35-.42,1.04-.63,2.25-.63,3.63s.21,2.57.62,3.59c.42,1.03,1.01,1.81,1.79,2.35.78.54,1.69.82,2.74.82,1.59,0,2.85-.6,3.8-1.8.94-1.2,1.41-2.85,1.41-4.97Z"/>
    <path class="cls-1" d="M177.93,39.12l3.42,11.72,3.11-10.9c.33-1.14.58-1.92.74-2.34.16-.42.46-.81.9-1.19.44-.38,1.05-.57,1.82-.57s1.39.19,1.84.57c.44.38.75.79.93,1.23s.43,1.21.75,2.3l3.11,10.9,3.46-11.72c.23-.85.42-1.46.56-1.84.14-.38.38-.71.71-1,.33-.29.81-.43,1.44-.43s1.17.22,1.63.65.69.95.69,1.54c0,.54-.2,1.35-.6,2.44l-4.29,12.57c-.37,1.06-.66,1.83-.87,2.31-.2.47-.53.9-.97,1.27-.44.37-1.05.56-1.82.56s-1.42-.2-1.87-.6c-.45-.4-.79-.88-1.01-1.46s-.46-1.33-.71-2.25l-3-10.22-2.9,10.22c-.38,1.42-.8,2.5-1.25,3.22-.45.72-1.24,1.09-2.36,1.09-.58,0-1.07-.11-1.47-.34-.4-.22-.74-.54-1.01-.96-.27-.42-.51-.91-.71-1.48-.21-.57-.37-1.02-.48-1.36l-4.25-12.57c-.42-1.18-.63-1.99-.63-2.44,0-.56.22-1.07.67-1.52.45-.45,1-.67,1.65-.67.87,0,1.46.25,1.77.74.31.49.63,1.34.98,2.53Z"/>
    <path class="cls-1" d="M103.36,38.55c-.45-.92-1.83-.6-1.83.42v14.99c0,1.08-.24,1.88-.72,2.42-.48.54-1.12.81-1.91.81s-1.4-.27-1.88-.8c-.49-.53-.73-1.34-.73-2.43v-22.29c0-1.23.32-2.06.96-2.49.64-.43,1.51-.64,2.59-.64h1.77c1.06,0,1.84.1,2.32.29.48.19.84.54,1.07,1.04.14.31,1.96,4.67,3.34,7.14.67,1.21,2.42,1.21,3.09,0,1.38-2.47,3.19-6.83,3.34-7.14.23-.5.59-.85,1.07-1.04.48-.19,1.25-.29,2.32-.29h1.77c1.09,0,1.95.21,2.59.64.64.43.96,1.26.96,2.49v22.29c0,1.08-.24,1.88-.72,2.42-.48.54-1.12.81-1.93.81-.76,0-1.38-.27-1.86-.81-.49-.54-.73-1.35-.73-2.42v-14.99c0-1.02-1.38-1.34-1.83-.42-1.73,3.52-2.75,5.22-6.51,5.22s-4.78-1.72-6.51-5.23Z"/>
    <path class="cls-1" d="M213.86,38.55c-.45-.92-1.83-.6-1.83.42v14.99c0,1.08-.24,1.88-.72,2.42-.48.54-1.12.81-1.91.81s-1.4-.27-1.88-.8c-.49-.53-.73-1.34-.73-2.43v-22.29c0-1.23.32-2.06.96-2.49.64-.43,1.51-.64,2.59-.64h1.77c1.06,0,1.84.1,2.32.29.48.19.84.54,1.07,1.04.14.31,1.96,4.67,3.34,7.14.67,1.21,2.42,1.21,3.09,0,1.38-2.47,3.19-6.83,3.34-7.14.23-.5.59-.85,1.07-1.04.48-.19,1.25-.29,2.32-.29h1.77c1.09,0,1.95.21,2.59.64.64.43.96,1.26.96,2.49v22.29c0,1.08-.24,1.88-.72,2.42-.48.54-1.12.81-1.93.81-.76,0-1.38-.27-1.86-.81-.49-.54-.73-1.35-.73-2.42v-14.99c0-1.02-1.38-1.34-1.83-.42-1.73,3.52-2.75,5.22-6.51,5.22s-4.78-1.72-6.51-5.23Z"/>
    <path class="cls-1" d="M252.71,54.23c-1.27.99-2.5,1.73-3.68,2.22-1.19.49-2.51.74-3.99.74-1.35,0-2.53-.27-3.55-.8-1.02-.53-1.8-1.25-2.35-2.16-.55-.91-.83-1.9-.83-2.96,0-1.43.45-2.66,1.36-3.67.91-1.01,2.16-1.69,3.75-2.04.33-.08,1.16-.25,2.48-.52,1.32-.27,2.45-.52,3.39-.74.94-.22,1.96-.5,3.07-.82-.06-1.38-.34-2.4-.84-3.05-.49-.65-1.52-.97-3.07-.97-1.33,0-2.34.19-3.01.56-.67.37-1.25.93-1.73,1.67-.48.74-.82,1.23-1.02,1.47-.2.24-.62.36-1.28.36-.59,0-1.1-.19-1.53-.57-.43-.38-.64-.86-.64-1.45,0-.92.33-1.82.98-2.69.65-.87,1.67-1.59,3.06-2.15,1.38-.56,3.11-.85,5.17-.85,2.31,0,4.12.27,5.44.82,1.32.54,2.25,1.41,2.8,2.58.54,1.18.82,2.74.82,4.69,0,1.23,0,2.27,0,3.13,0,.86-.02,1.81-.03,2.86,0,.99.16,2.01.49,3.08.33,1.07.49,1.76.49,2.07,0,.54-.25,1.03-.76,1.47-.51.44-1.08.66-1.72.66-.54,0-1.07-.25-1.6-.76-.53-.51-1.08-1.24-1.67-2.2ZM252.37,46.64c-.77.28-1.89.58-3.35.89-1.47.31-2.48.54-3.05.69-.56.15-1.1.44-1.61.86s-.77,1.03-.77,1.8.3,1.47.9,2.03c.6.56,1.39.84,2.36.84,1.04,0,2-.23,2.87-.68.88-.45,1.52-1.04,1.93-1.76.47-.79.71-2.1.71-3.92v-.75Z"/>
    <path class="cls-1" d="M274.22,55.02l-3.81-5.59-3.9,5.59c-.56.78-1.04,1.34-1.43,1.67-.39.33-.89.5-1.49.5-.67,0-1.23-.21-1.7-.62-.47-.42-.7-.89-.7-1.43s.36-1.34,1.08-2.36l4.75-6.8-4.21-5.67c-.73-.94-1.1-1.75-1.1-2.44,0-.54.22-1.01.65-1.4.44-.4,1.01-.6,1.71-.6.62,0,1.12.17,1.53.52.4.35.87.89,1.41,1.63l3.4,4.65,3.31-4.65c.55-.77,1.03-1.32,1.43-1.65.4-.33.91-.5,1.51-.5.69,0,1.27.2,1.72.59.45.39.68.86.68,1.41,0,.4-.09.78-.28,1.14s-.47.8-.86,1.3l-4.21,5.67,4.75,6.8c.74,1.06,1.11,1.86,1.11,2.4s-.23,1.03-.69,1.42c-.46.4-1.03.6-1.71.6-.6,0-1.11-.17-1.53-.52s-.89-.9-1.43-1.65Z"/>
  </g>
</svg>