<?xml version="1.0" encoding="UTF-8"?>
<svg id="Official" xmlns="http://www.w3.org/2000/svg" viewBox="0 0 293.9 258.12">
  <defs>
    <style>
      .cls-1 {
        fill: #9d71d8;
      }

      .cls-1, .cls-2 {
        stroke-width: 0px;
      }

      .cls-2 {
        fill: #631c8c;
      }
    </style>
  </defs>
  <path class="cls-2" d="M237.95,112.21l-16.08-3.43v-2.44l16.08-3.43c1.29-.28,2.12-1.55,1.84-2.84-.28-1.29-1.55-2.12-2.84-1.84l-15.08,3.21v-28.53c0-12.19-8.94-22.3-20.62-24.12-.62-2.77-4.65-19.55-11.53-23.91-7.03-4.45-25.78,20.4-28.16,23.62h-29.6c-2.38-3.22-21.14-28.07-28.16-23.62-7,4.43-11.04,21.71-11.56,24.04-11.33,2.11-19.92,12.05-19.92,23.99v28.59l-15.36-3.27c-1.29-.28-2.57.55-2.84,1.84s.55,2.57,1.84,2.84l16.36,3.49v2.32l-16.36,3.49c-1.29.28-2.12,1.55-1.84,2.84.24,1.13,1.23,1.9,2.34,1.9.17,0,.33-.02.5-.05l15.36-3.27v34.36c0,13.48,10.93,24.41,24.41,24.41h100.73c13.48,0,24.41-10.93,24.41-24.41v-34.3l15.08,3.21c.17.04.34.05.5.05,1.11,0,2.1-.77,2.34-1.9.28-1.29-.55-2.57-1.84-2.84ZM116.8,149.34c0,3.47-2.82,6.29-6.29,6.29h-12.06c-3.47,0-6.29-2.82-6.29-6.29v-12.06c0-3.47,2.82-6.29,6.29-6.29h12.06c3.47,0,6.29,2.82,6.29,6.29v12.06ZM116.79,92.7c-3.59,0-6.5-4.31-6.5-9.62s2.91-9.62,6.5-9.62,6.5,4.31,6.5,9.62-2.91,9.62-6.5,9.62ZM159.58,149.34c0,3.47-2.82,6.29-6.29,6.29h-12.06c-3.47,0-6.29-2.82-6.29-6.29v-12.06c0-3.47,2.82-6.29,6.29-6.29h12.06c3.47,0,6.29,2.82,6.29,6.29v12.06ZM167.23,111.75c-3.82,3.25-7.41,4.88-10.7,4.88-.92,0-1.83-.13-2.7-.39-2.92-.86-4.93-2.99-6.23-4.97-1.3,1.98-3.31,4.11-6.23,4.97-.88.26-1.78.39-2.7.39-3.3,0-6.88-1.63-10.7-4.88-.86-.73-.97-2.03-.23-2.89.73-.86,2.03-.97,2.89-.23,3.77,3.2,7,4.44,9.59,3.68,3.27-.96,4.95-4.96,5.34-6.01v-2.98s0-.07,0-.1c-3.07-1.19-7.88-4.62-7.88-8.62,0-5.01,4.37-4.62,9.75-4.62s9.75-.39,9.75,4.62c0,3.92-4.4,7.22-7.54,8.5,0,.07.01.15.01.23v2.98c.39,1.06,2.05,5.06,5.35,6.02,2.59.75,5.81-.49,9.57-3.69.86-.73,2.16-.63,2.89.23.73.86.63,2.16-.23,2.89ZM171.55,83.08c0-5.31,2.91-9.62,6.5-9.62s6.5,4.31,6.5,9.62-2.91,9.62-6.5,9.62-6.5-4.31-6.5-9.62ZM202.7,149.34c0,3.47-2.82,6.29-6.29,6.29h-12.06c-3.47,0-6.29-2.82-6.29-6.29v-12.06c0-3.47,2.82-6.29,6.29-6.29h12.06c3.47,0,6.29,2.82,6.29,6.29v12.06Z"/>
  <g>
    <path class="cls-1" d="M85.44,221.16h-13.79c.02,1.6.34,3.01.97,4.23.63,1.22,1.46,2.14,2.5,2.76,1.04.62,2.19.93,3.45.93.84,0,1.61-.1,2.31-.3.7-.2,1.37-.51,2.03-.93.65-.42,1.26-.87,1.81-1.36.55-.48,1.26-1.14,2.14-1.96.36-.31.88-.46,1.55-.46.72,0,1.31.2,1.76.59.45.4.67.96.67,1.68,0,.64-.25,1.38-.75,2.23-.5.85-1.25,1.67-2.26,2.45-1.01.78-2.27,1.43-3.79,1.95s-3.27.77-5.25.77c-4.53,0-8.05-1.29-10.56-3.87-2.51-2.58-3.77-6.08-3.77-10.51,0-2.08.31-4.01.93-5.8.62-1.78,1.52-3.31,2.71-4.58,1.19-1.27,2.65-2.25,4.39-2.93,1.74-.68,3.67-1.02,5.78-1.02,2.75,0,5.12.58,7.09,1.74,1.97,1.16,3.45,2.66,4.43,4.51s1.47,3.72,1.47,5.63c0,1.77-.51,2.92-1.52,3.45-1.02.53-2.44.79-4.29.79ZM71.66,217.16h12.78c-.17-2.41-.82-4.21-1.95-5.41-1.13-1.2-2.61-1.79-4.45-1.79s-3.2.61-4.32,1.82c-1.13,1.21-1.81,3.01-2.05,5.38Z"/>
    <path class="cls-1" d="M123.58,219.43c0,2.1-.33,4.04-.98,5.81-.65,1.77-1.6,3.3-2.84,4.57-1.24,1.27-2.72,2.25-4.44,2.93-1.72.68-3.66,1.02-5.81,1.02s-4.05-.34-5.76-1.03c-1.7-.69-3.18-1.67-4.43-2.96-1.25-1.28-2.19-2.8-2.84-4.54-.65-1.75-.97-3.68-.97-5.8s.33-4.09.98-5.86c.65-1.77,1.59-3.29,2.81-4.54,1.22-1.26,2.7-2.22,4.44-2.9,1.74-.68,3.66-1.02,5.76-1.02s4.07.34,5.81,1.03c1.74.69,3.23,1.67,4.47,2.94,1.24,1.27,2.18,2.79,2.83,4.54s.97,3.69.97,5.81ZM116.5,219.43c0-2.87-.63-5.11-1.9-6.71-1.26-1.6-2.96-2.4-5.1-2.4-1.38,0-2.59.36-3.64,1.07-1.05.71-1.86,1.77-2.43,3.16-.57,1.39-.85,3.02-.85,4.88s.28,3.45.84,4.83c.56,1.38,1.36,2.43,2.4,3.16,1.04.73,2.27,1.1,3.68,1.1,2.13,0,3.83-.8,5.1-2.41,1.27-1.61,1.9-3.83,1.9-6.67Z"/>
    <path class="cls-1" d="M133.51,209.49l4.6,15.75,4.18-14.64c.45-1.53.78-2.58.99-3.14.21-.56.62-1.09,1.21-1.6.59-.51,1.41-.76,2.44-.76s1.87.25,2.46.76c.59.51,1.01,1.06,1.25,1.65s.58,1.62,1.01,3.09l4.18,14.64,4.65-15.75c.31-1.14.56-1.96.75-2.47.19-.51.51-.96.96-1.34.45-.39,1.09-.58,1.94-.58s1.57.29,2.19.88.93,1.27.93,2.07c0,.72-.27,1.82-.8,3.28l-5.76,16.88c-.5,1.43-.89,2.46-1.16,3.1-.28.64-.71,1.21-1.3,1.7-.59.5-1.41.75-2.44.75s-1.91-.27-2.52-.8c-.61-.53-1.06-1.19-1.36-1.96s-.61-1.78-.96-3.02l-4.03-13.73-3.9,13.73c-.52,1.91-1.08,3.35-1.68,4.32-.6.97-1.66,1.46-3.18,1.46-.77,0-1.43-.15-1.97-.45-.54-.3-.99-.73-1.36-1.29-.36-.56-.68-1.22-.96-1.99-.28-.77-.49-1.37-.65-1.82l-5.71-16.88c-.57-1.58-.85-2.68-.85-3.28,0-.76.3-1.44.9-2.04.6-.6,1.34-.9,2.22-.9,1.17,0,1.96.33,2.38.99.41.66.85,1.79,1.32,3.39Z"/>
    <path class="cls-1" d="M33.35,208.72c-.61-1.23-2.46-.81-2.46.57v20.14c0,1.45-.32,2.53-.97,3.25-.65.72-1.5,1.08-2.57,1.08s-1.88-.36-2.53-1.07c-.65-.71-.98-1.8-.98-3.27v-29.95c0-1.65.43-2.77,1.29-3.34.86-.58,2.02-.86,3.49-.86h2.38c1.43,0,2.47.13,3.11.39.65.26,1.12.72,1.43,1.39.19.41,2.63,6.27,4.48,9.59.91,1.63,3.24,1.63,4.15,0,1.85-3.32,4.29-9.17,4.48-9.59.31-.67.79-1.14,1.43-1.39.65-.26,1.68-.39,3.11-.39h2.38c1.46,0,2.62.29,3.49.86.86.58,1.29,1.69,1.29,3.34v29.95c0,1.45-.32,2.53-.97,3.25-.65.72-1.51,1.08-2.59,1.08-1.02,0-1.85-.36-2.5-1.08-.65-.72-.98-1.81-.98-3.25v-20.13c0-1.37-1.85-1.8-2.46-.57-2.33,4.72-3.69,7.02-8.75,7.02s-6.42-2.3-8.75-7.02Z"/>
    <path class="cls-1" d="M181.77,208.72c-.61-1.23-2.46-.81-2.46.57v20.14c0,1.45-.32,2.53-.97,3.25-.65.72-1.5,1.08-2.57,1.08s-1.88-.36-2.53-1.07c-.65-.71-.98-1.8-.98-3.27v-29.95c0-1.65.43-2.77,1.29-3.34.86-.58,2.02-.86,3.49-.86h2.38c1.43,0,2.47.13,3.11.39.65.26,1.12.72,1.43,1.39.19.41,2.63,6.27,4.48,9.59.91,1.63,3.24,1.63,4.15,0,1.85-3.32,4.29-9.17,4.48-9.59.31-.67.79-1.14,1.43-1.39.65-.26,1.68-.39,3.11-.39h2.38c1.46,0,2.62.29,3.49.86.86.58,1.29,1.69,1.29,3.34v29.95c0,1.45-.32,2.53-.97,3.25-.65.72-1.51,1.08-2.59,1.08-1.02,0-1.85-.36-2.5-1.08-.65-.72-.98-1.81-.98-3.25v-20.13c0-1.37-1.85-1.8-2.46-.57-2.33,4.72-3.69,7.02-8.75,7.02s-6.42-2.3-8.75-7.02Z"/>
    <path class="cls-1" d="M233.97,229.78c-1.7,1.33-3.35,2.32-4.94,2.98-1.59.66-3.38.99-5.36.99-1.81,0-3.39-.36-4.76-1.07-1.37-.71-2.42-1.68-3.16-2.9-.74-1.22-1.11-2.55-1.11-3.98,0-1.93.61-3.57,1.83-4.93,1.22-1.36,2.9-2.27,5.03-2.74.45-.1,1.56-.34,3.33-.7,1.77-.36,3.29-.69,4.56-.99,1.26-.3,2.64-.67,4.12-1.1-.09-1.86-.46-3.22-1.12-4.09-.66-.87-2.04-1.3-4.12-1.3-1.79,0-3.14.25-4.04.75-.9.5-1.68,1.25-2.32,2.25-.65,1-1.1,1.66-1.37,1.98-.27.32-.84.48-1.72.48-.79,0-1.48-.25-2.05-.76-.58-.51-.86-1.16-.86-1.95,0-1.24.44-2.44,1.32-3.61.88-1.17,2.25-2.13,4.1-2.89,1.86-.76,4.17-1.14,6.94-1.14,3.1,0,5.53.37,7.31,1.1,1.77.73,3.02,1.89,3.76,3.47.73,1.58,1.1,3.68,1.1,6.3,0,1.65,0,3.06-.01,4.21,0,1.15-.02,2.44-.04,3.85,0,1.33.22,2.71.66,4.14.44,1.44.66,2.36.66,2.78,0,.72-.34,1.38-1.02,1.98-.68.59-1.45.89-2.31.89-.72,0-1.44-.34-2.14-1.02-.71-.68-1.45-1.66-2.25-2.96ZM233.5,219.59c-1.03.38-2.53.78-4.51,1.2-1.97.42-3.33.73-4.09.93-.76.2-1.48.59-2.17,1.16s-1.03,1.38-1.03,2.41.4,1.97,1.21,2.72c.81.75,1.87,1.12,3.18,1.12,1.39,0,2.68-.31,3.86-.92,1.18-.61,2.04-1.4,2.59-2.36.64-1.07.96-2.82.96-5.27v-1.01Z"/>
    <path class="cls-1" d="M262.86,230.84l-5.11-7.51-5.24,7.51c-.76,1.05-1.4,1.8-1.92,2.25-.53.45-1.19.67-2,.67-.89,0-1.66-.28-2.28-.84-.63-.56-.94-1.2-.94-1.92s.48-1.8,1.45-3.18l6.38-9.14-5.65-7.62c-.98-1.26-1.47-2.35-1.47-3.28,0-.72.29-1.35.88-1.88.59-.53,1.35-.8,2.3-.8.83,0,1.51.23,2.05.7.54.46,1.17,1.2,1.9,2.19l4.57,6.25,4.44-6.25c.74-1.03,1.38-1.77,1.92-2.22.54-.45,1.22-.67,2.03-.67.93,0,1.7.26,2.31.79.61.53.92,1.16.92,1.9,0,.53-.12,1.05-.37,1.54s-.63,1.07-1.15,1.74l-5.65,7.62,6.38,9.14c1,1.43,1.5,2.5,1.5,3.23s-.31,1.38-.93,1.91c-.62.53-1.39.8-2.3.8-.81,0-1.49-.23-2.05-.7s-1.2-1.2-1.92-2.22Z"/>
  </g>
</svg>