<?xml version="1.0" encoding="UTF-8"?>
<svg id="Official" xmlns="http://www.w3.org/2000/svg" viewBox="0 0 453.14 226.81">
  <defs>
    <style>
      .cls-1, .cls-2 {
        fill: #9d71d8;
      }

      .cls-1, .cls-3 {
        stroke-width: 0px;
      }

      .cls-2 {
        font-family: ArialRoundedMTBold, 'Arial Rounded MT Bold';
        font-size: 80.37px;
      }

      .cls-3 {
        fill: #631c8c;
      }
    </style>
  </defs>
  <path class="cls-3" d="M288.75,79.54l-10.99-2.34v-1.66l10.99-2.34c.88-.19,1.45-1.06,1.26-1.94-.19-.88-1.06-1.45-1.94-1.26l-10.3,2.2v-19.49c0-8.33-6.11-15.23-14.09-16.48-.43-1.89-3.18-13.36-7.88-16.34-4.8-3.04-17.61,13.94-19.24,16.14h-20.23c-1.63-2.2-14.44-19.18-19.24-16.14-4.78,3.03-7.54,14.83-7.9,16.43-7.74,1.44-13.61,8.23-13.61,16.39v19.53l-10.49-2.24c-.88-.19-1.75.38-1.94,1.26s.38,1.75,1.26,1.94l11.18,2.38v1.58l-11.18,2.38c-.88.19-1.45,1.06-1.26,1.94.16.77.84,1.3,1.6,1.3.11,0,.23-.01.34-.04l10.49-2.24v23.48c0,9.21,7.47,16.68,16.68,16.68h68.83c9.21,0,16.68-7.47,16.68-16.68v-23.44l10.3,2.2c.11.02.23.04.34.04.76,0,1.44-.53,1.6-1.3.19-.88-.38-1.75-1.26-1.94ZM205.97,104.9c0,2.37-1.92,4.3-4.3,4.3h-8.24c-2.37,0-4.3-1.92-4.3-4.3v-8.24c0-2.37,1.92-4.3,4.3-4.3h8.24c2.37,0,4.3,1.92,4.3,4.3v8.24ZM205.96,66.2c-2.45,0-4.44-2.94-4.44-6.58s1.99-6.58,4.44-6.58,4.44,2.94,4.44,6.58-1.99,6.58-4.44,6.58ZM235.2,104.9c0,2.37-1.92,4.3-4.3,4.3h-8.24c-2.37,0-4.3-1.92-4.3-4.3v-8.24c0-2.37,1.92-4.3,4.3-4.3h8.24c2.37,0,4.3,1.92,4.3,4.3v8.24ZM240.43,79.22c-2.61,2.22-5.06,3.33-7.31,3.33-.63,0-1.25-.09-1.85-.26-2-.59-3.37-2.04-4.26-3.4-.89,1.35-2.26,2.81-4.26,3.4-.6.18-1.22.26-1.85.26-2.25,0-4.7-1.12-7.31-3.33-.59-.5-.66-1.39-.16-1.98.5-.59,1.39-.66,1.98-.16,2.58,2.19,4.78,3.04,6.55,2.52,2.24-.66,3.38-3.39,3.65-4.11v-2.04s0-.05,0-.07c-2.1-.81-5.38-3.15-5.38-5.89,0-3.42,2.98-3.16,6.66-3.16s6.66-.27,6.66,3.16c0,2.68-3.01,4.93-5.15,5.81,0,.05,0,.1,0,.16v2.04c.26.72,1.4,3.46,3.66,4.11,1.77.51,3.97-.33,6.54-2.52.59-.5,1.48-.43,1.98.16.5.59.43,1.48-.16,1.98ZM243.38,59.63c0-3.63,1.99-6.58,4.44-6.58s4.44,2.94,4.44,6.58-1.99,6.58-4.44,6.58-4.44-2.94-4.44-6.58ZM264.67,104.9c0,2.37-1.92,4.3-4.3,4.3h-8.24c-2.37,0-4.3-1.92-4.3-4.3v-8.24c0-2.37,1.92-4.3,4.3-4.3h8.24c2.37,0,4.3,1.92,4.3,4.3v8.24Z"/>
  <g>
    <text class="cls-2" transform="translate(394.54 198.31)"><tspan x="0" y="0">!</tspan></text>
    <g>
      <path class="cls-1" d="M346.73,183.5h-16.21c.02,1.88.4,3.54,1.14,4.98s1.72,2.52,2.94,3.25c1.22.73,2.57,1.09,4.05,1.09.99,0,1.9-.12,2.72-.35s1.61-.6,2.38-1.09,1.48-1.03,2.12-1.59,1.49-1.34,2.52-2.31c.42-.36,1.03-.55,1.82-.55.85,0,1.54.23,2.06.7s.79,1.12.79,1.97c0,.75-.29,1.62-.88,2.63s-1.47,1.96-2.66,2.88c-1.18.92-2.67,1.68-4.46,2.29s-3.85.91-6.18.91c-5.32,0-9.46-1.52-12.41-4.55s-4.43-7.15-4.43-12.35c0-2.45.36-4.72,1.09-6.81.73-2.09,1.79-3.89,3.19-5.39s3.12-2.65,5.16-3.44c2.04-.8,4.31-1.2,6.8-1.2,3.24,0,6.01.68,8.33,2.05s4.05,3.13,5.2,5.3,1.73,4.37,1.73,6.62c0,2.08-.6,3.43-1.79,4.05-1.19.62-2.87.93-5.04.93ZM330.52,178.79h15.02c-.2-2.83-.97-4.95-2.29-6.36s-3.07-2.11-5.24-2.11-3.76.71-5.08,2.14c-1.33,1.43-2.13,3.54-2.41,6.33Z"/>
      <path class="cls-1" d="M383.24,193.57v-.82c-1.11,1.27-2.21,2.31-3.29,3.11s-2.26,1.41-3.52,1.82-2.65.62-4.14.62c-1.98,0-3.82-.42-5.51-1.26s-3.15-2.04-4.39-3.6c-1.23-1.56-2.17-3.39-2.81-5.49s-.96-4.38-.96-6.83c0-5.18,1.26-9.22,3.79-12.11s5.86-4.34,9.98-4.34c2.39,0,4.4.41,6.04,1.23s3.24,2.08,4.8,3.78v-12.23c0-1.7.34-2.98,1.02-3.85s1.64-1.3,2.9-1.3,2.22.4,2.9,1.2,1.02,1.98,1.02,3.54v36.54c0,1.58-.36,2.76-1.09,3.55s-1.67,1.18-2.82,1.18-2.07-.41-2.81-1.23-1.11-1.99-1.11-3.51ZM366.94,181.4c0,2.25.35,4.16,1.05,5.74s1.65,2.77,2.87,3.57,2.54,1.2,3.98,1.2,2.79-.38,3.99-1.14,2.16-1.92,2.88-3.49c.72-1.57,1.08-3.53,1.08-5.87,0-2.21-.36-4.1-1.08-5.69s-1.69-2.8-2.91-3.64c-1.22-.84-2.56-1.26-4.02-1.26s-2.87.43-4.07,1.29-2.12,2.09-2.78,3.7c-.66,1.61-.99,3.47-.99,5.6Z"/>
    </g>
    <path class="cls-1" d="M103.72,183.6h-16.09c.02,1.87.4,3.52,1.13,4.94.73,1.43,1.71,2.5,2.92,3.22,1.22.72,2.56,1.08,4.02,1.08.98,0,1.88-.12,2.7-.35.81-.23,1.6-.59,2.37-1.08.76-.49,1.47-1.02,2.11-1.58.64-.56,1.48-1.33,2.5-2.29.42-.36,1.02-.54,1.81-.54.84,0,1.53.23,2.05.69.52.46.78,1.12.78,1.96,0,.74-.29,1.61-.87,2.61-.58.99-1.46,1.95-2.64,2.86-1.17.91-2.65,1.67-4.43,2.27-1.78.6-3.82.9-6.13.9-5.28,0-9.39-1.51-12.32-4.52-2.93-3.01-4.4-7.1-4.4-12.26,0-2.43.36-4.68,1.08-6.76.72-2.08,1.78-3.86,3.16-5.35,1.39-1.49,3.09-2.63,5.12-3.42,2.03-.79,4.28-1.19,6.75-1.19,3.21,0,5.97.68,8.27,2.03,2.3,1.36,4.02,3.11,5.17,5.26s1.72,4.34,1.72,6.57c0,2.07-.59,3.41-1.78,4.02-1.19.61-2.85.92-5,.92ZM87.63,178.93h14.91c-.2-2.81-.96-4.92-2.27-6.31-1.32-1.4-3.05-2.09-5.2-2.09s-3.73.71-5.05,2.12c-1.32,1.42-2.11,3.51-2.4,6.28Z"/>
    <path class="cls-1" d="M148.22,181.58c0,2.45-.38,4.71-1.14,6.78-.76,2.07-1.87,3.85-3.31,5.33-1.45,1.49-3.17,2.63-5.18,3.42-2.01.79-4.27,1.19-6.78,1.19s-4.73-.4-6.72-1.21c-1.99-.8-3.71-1.95-5.17-3.45-1.46-1.5-2.56-3.26-3.31-5.3-.75-2.04-1.13-4.29-1.13-6.76s.38-4.77,1.14-6.84c.76-2.07,1.86-3.84,3.28-5.3,1.43-1.47,3.15-2.6,5.18-3.39,2.03-.79,4.27-1.19,6.72-1.19s4.75.4,6.78,1.21c2.03.8,3.77,1.95,5.21,3.43,1.45,1.49,2.55,3.25,3.3,5.3.75,2.05,1.13,4.31,1.13,6.78ZM139.97,181.58c0-3.35-.74-5.97-2.21-7.83-1.48-1.87-3.46-2.8-5.95-2.8-1.61,0-3.02.42-4.25,1.25-1.23.83-2.17,2.06-2.83,3.69-.66,1.63-.99,3.53-.99,5.69s.33,4.03.98,5.63c.65,1.61,1.59,2.84,2.8,3.69,1.22.85,2.65,1.28,4.29,1.28,2.49,0,4.47-.94,5.95-2.82,1.48-1.88,2.21-4.47,2.21-7.79Z"/>
    <path class="cls-1" d="M159.82,169.99l5.36,18.38,4.88-17.08c.52-1.79.91-3.01,1.16-3.66.25-.65.72-1.28,1.42-1.87.69-.59,1.64-.89,2.85-.89s2.18.3,2.88.89c.69.59,1.18,1.24,1.46,1.93s.67,1.89,1.18,3.6l4.88,17.08,5.42-18.38c.36-1.33.65-2.28.87-2.88.22-.59.59-1.11,1.11-1.57.52-.45,1.28-.68,2.26-.68s1.84.34,2.56,1.02,1.08,1.49,1.08,2.41c0,.84-.31,2.12-.93,3.83l-6.72,19.7c-.58,1.67-1.04,2.87-1.36,3.62-.32.74-.83,1.41-1.52,1.99-.69.58-1.64.87-2.85.87s-2.22-.31-2.94-.93c-.71-.62-1.24-1.39-1.58-2.29s-.71-2.08-1.11-3.52l-4.7-16.03-4.55,16.03c-.6,2.23-1.26,3.91-1.96,5.05-.7,1.13-1.94,1.7-3.71,1.7-.9,0-1.67-.18-2.3-.53-.63-.35-1.16-.85-1.58-1.51-.42-.65-.79-1.43-1.11-2.32-.32-.89-.57-1.6-.75-2.12l-6.66-19.7c-.66-1.85-.99-3.12-.99-3.83,0-.88.35-1.68,1.05-2.38.7-.7,1.57-1.05,2.59-1.05,1.37,0,2.29.39,2.77,1.16.48.77.99,2.09,1.54,3.96Z"/>
    <path class="cls-1" d="M42.93,169.08c-.71-1.44-2.87-.94-2.87.66v23.5c0,1.69-.38,2.95-1.13,3.8-.75.84-1.75,1.27-3,1.27s-2.19-.42-2.95-1.25c-.76-.83-1.14-2.1-1.14-3.81v-34.95c0-1.93.5-3.23,1.51-3.9,1-.67,2.36-1.01,4.07-1.01h2.77c1.67,0,2.88.15,3.63.45.75.3,1.31.84,1.67,1.63.22.48,3.07,7.31,5.23,11.19,1.06,1.9,3.79,1.9,4.84,0,2.16-3.87,5.01-10.7,5.23-11.19.36-.78.92-1.33,1.67-1.63.75-.3,1.96-.45,3.63-.45h2.77c1.71,0,3.06.34,4.07,1.01,1,.67,1.51,1.97,1.51,3.9v34.95c0,1.69-.38,2.95-1.13,3.8-.75.84-1.76,1.27-3.03,1.27-1.19,0-2.16-.42-2.92-1.27-.76-.84-1.14-2.11-1.14-3.8v-23.49c0-1.6-2.16-2.1-2.87-.66-2.72,5.51-4.31,8.19-10.21,8.19s-7.49-2.69-10.21-8.2Z"/>
    <path class="cls-1" d="M216.13,169.08c-.71-1.44-2.87-.94-2.87.66v23.5c0,1.69-.38,2.95-1.13,3.8-.75.84-1.75,1.27-3,1.27s-2.19-.42-2.95-1.25c-.76-.83-1.14-2.1-1.14-3.81v-34.95c0-1.93.5-3.23,1.51-3.9,1-.67,2.36-1.01,4.07-1.01h2.77c1.67,0,2.88.15,3.63.45.75.3,1.31.84,1.67,1.63.22.48,3.07,7.31,5.23,11.19,1.06,1.9,3.79,1.9,4.84,0,2.16-3.87,5.01-10.7,5.23-11.19.36-.78.92-1.33,1.67-1.63.75-.3,1.96-.45,3.63-.45h2.77c1.71,0,3.06.34,4.07,1.01,1,.67,1.51,1.97,1.51,3.9v34.95c0,1.69-.38,2.95-1.13,3.8-.75.84-1.76,1.27-3.03,1.27-1.19,0-2.16-.42-2.92-1.27-.76-.84-1.14-2.11-1.14-3.8v-23.49c0-1.6-2.16-2.1-2.87-.66-2.72,5.51-4.31,8.19-10.21,8.19s-7.49-2.69-10.21-8.2Z"/>
    <path class="cls-1" d="M277.05,193.67c-1.99,1.55-3.91,2.71-5.77,3.48-1.86.77-3.94,1.16-6.25,1.16-2.11,0-3.96-.42-5.56-1.25-1.6-.83-2.83-1.96-3.69-3.39-.86-1.43-1.3-2.97-1.3-4.64,0-2.25.71-4.17,2.14-5.75,1.43-1.59,3.38-2.65,5.88-3.19.52-.12,1.82-.39,3.89-.81,2.07-.42,3.84-.81,5.32-1.16,1.48-.35,3.08-.78,4.81-1.28-.1-2.17-.54-3.76-1.31-4.78-.77-1.01-2.38-1.52-4.81-1.52-2.09,0-3.66.29-4.72.87-1.05.58-1.96,1.46-2.71,2.62-.75,1.17-1.29,1.93-1.6,2.3-.31.37-.98.56-2,.56-.92,0-1.72-.3-2.4-.89-.67-.59-1.01-1.35-1.01-2.27,0-1.45.51-2.85,1.54-4.22,1.02-1.37,2.62-2.49,4.79-3.37,2.17-.88,4.87-1.33,8.1-1.33,3.62,0,6.46.43,8.53,1.28,2.07.85,3.53,2.2,4.38,4.05.85,1.85,1.28,4.3,1.28,7.35,0,1.93,0,3.57-.02,4.91-.01,1.35-.03,2.84-.05,4.49,0,1.55.26,3.16.77,4.84.51,1.68.77,2.76.77,3.24,0,.84-.4,1.61-1.19,2.3-.79.69-1.69,1.04-2.7,1.04-.84,0-1.68-.4-2.5-1.19-.82-.79-1.7-1.94-2.62-3.45ZM276.5,181.77c-1.21.44-2.96.91-5.26,1.4-2.3.49-3.89.85-4.78,1.08-.88.23-1.73.68-2.53,1.36s-1.2,1.61-1.2,2.82.47,2.3,1.42,3.18c.94.87,2.18,1.31,3.71,1.31,1.63,0,3.13-.36,4.5-1.07,1.38-.71,2.38-1.63,3.03-2.76.74-1.25,1.12-3.29,1.12-6.15v-1.18Z"/>
    <path class="cls-1" d="M310.76,194.9l-5.97-8.77-6.12,8.77c-.88,1.23-1.63,2.1-2.24,2.62-.61.52-1.39.78-2.34.78-1.04,0-1.93-.33-2.67-.98-.73-.65-1.1-1.4-1.1-2.24s.56-2.1,1.69-3.71l7.44-10.67-6.6-8.89c-1.14-1.47-1.72-2.74-1.72-3.83,0-.84.34-1.58,1.02-2.2.68-.62,1.58-.93,2.68-.93.96,0,1.76.27,2.4.81.63.54,1.37,1.4,2.21,2.56l5.33,7.29,5.18-7.29c.86-1.2,1.61-2.07,2.24-2.59.63-.52,1.42-.78,2.36-.78,1.08,0,1.98.31,2.7.92.71.61,1.07,1.35,1.07,2.21,0,.62-.15,1.22-.44,1.79s-.74,1.25-1.34,2.03l-6.6,8.89,7.44,10.67c1.16,1.67,1.75,2.92,1.75,3.77s-.36,1.61-1.08,2.23c-.72.62-1.62.93-2.68.93-.94,0-1.74-.27-2.4-.81s-1.4-1.41-2.24-2.59Z"/>
  </g>
</svg>